<?xml version="1.0" encoding="UTF-8"?>
<svg version="1.1" xmlns="http://www.w3.org/2000/svg" width="476" height="106">
<path d="M0 0 C157.08 0 314.16 0 476 0 C476 34.98 476 69.96 476 106 C318.92 106 161.84 106 0 106 C0 71.02 0 36.04 0 0 Z " fill="#FEFDFD" transform="translate(0,0)"/>
<path d="M0 0 C9.6525 -0.061875 19.305 -0.12375 29.25 -0.1875 C33.78476074 -0.22846802 33.78476074 -0.22846802 38.41113281 -0.27026367 C40.84179283 -0.27903605 43.27245729 -0.2866782 45.703125 -0.29296875 C46.93724121 -0.30831665 48.17135742 -0.32366455 49.44287109 -0.33947754 C64.56033179 -0.34398215 75.81098615 3.81508683 88.25 12.1875 C96.88163182 21.01530527 101.52088981 29.33566182 105 41 C105.33 41.99 105.66 42.98 106 44 C106.12343222 46.74134352 106.1851429 49.44619362 106.1875 52.1875 C106.19974609 52.91775391 106.21199219 53.64800781 106.22460938 54.40039062 C106.26198963 68.4678271 100.32421837 80.6808193 91 91 C87.52811887 94.02803269 83.9186724 96.58446015 80 99 C79.32195312 99.41894531 78.64390625 99.83789062 77.9453125 100.26953125 C67.92244589 105.82161711 56.90971948 106.43233787 45.703125 106.29296875 C44.53571777 106.28994751 43.36831055 106.28692627 42.16552734 106.28381348 C37.8602599 106.26827554 33.5551198 106.22639339 29.25 106.1875 C19.5975 106.125625 9.945 106.06375 0 106 C0 71.02 0 36.04 0 0 Z " fill="#EF3835" transform="translate(0,0)"/>
<path d="M0 0 C13.64606105 0 24.01765869 4.62727027 35.25 12.1875 C43.88163182 21.01530527 48.52088981 29.33566182 52 41 C52.33 41.99 52.66 42.98 53 44 C53.12343222 46.74134352 53.1851429 49.44619362 53.1875 52.1875 C53.19974609 52.91775391 53.21199219 53.64800781 53.22460938 54.40039062 C53.26198963 68.4678271 47.32421837 80.6808193 38 91 C34.52811887 94.02803269 30.9186724 96.58446015 27 99 C26.32195312 99.41894531 25.64390625 99.83789062 24.9453125 100.26953125 C17.16721421 104.57814586 8.78954523 106 0 106 C0 71.02 0 36.04 0 0 Z " fill="#F16A6B" transform="translate(53,0)"/>
<path d="M0 0 C1.06992187 0.00644531 2.13984375 0.01289062 3.2421875 0.01953125 C4.35335938 0.03628906 5.46453125 0.05304687 6.609375 0.0703125 C7.73601562 0.07933594 8.86265625 0.08835938 10.0234375 0.09765625 C12.80229865 0.12120592 15.5807289 0.1540957 18.359375 0.1953125 C18.359375 2.1753125 18.359375 4.1553125 18.359375 6.1953125 C16.379375 6.1953125 14.399375 6.1953125 12.359375 6.1953125 C12.689375 6.8553125 13.019375 7.5153125 13.359375 8.1953125 C13.37890625 10.21875 13.37890625 10.21875 13.171875 12.5703125 C13.11644531 13.34117188 13.06101562 14.11203125 13.00390625 14.90625 C12.12665524 18.02182024 10.92327271 19.23493662 8.359375 21.1953125 C5.34375 22.0234375 5.34375 22.0234375 2.109375 22.4453125 C1.03171875 22.59484375 -0.0459375 22.744375 -1.15625 22.8984375 C-2.38601563 23.04539062 -2.38601563 23.04539062 -3.640625 23.1953125 C-3.640625 23.8553125 -3.640625 24.5153125 -3.640625 25.1953125 C-2.68800781 25.23269531 -1.73539062 25.27007812 -0.75390625 25.30859375 C0.50035156 25.37433594 1.75460937 25.44007812 3.046875 25.5078125 C4.90892578 25.59482422 4.90892578 25.59482422 6.80859375 25.68359375 C10.48058228 26.21278022 12.42749011 26.97130612 15.359375 29.1953125 C17.84648741 32.92598111 17.62158722 34.67312995 17.02734375 38.97265625 C15.89613279 42.7367442 13.60253313 44.17598763 10.359375 46.1953125 C4.99722083 48.81403895 -0.79104847 48.76982448 -6.640625 48.1953125 C-10.140625 46.8828125 -10.140625 46.8828125 -12.640625 45.1953125 C-13.56875 44.5765625 -13.56875 44.5765625 -14.515625 43.9453125 C-16.41014484 40.99828163 -16.05714621 38.58698518 -15.640625 35.1953125 C-13.640625 32.7578125 -13.640625 32.7578125 -11.640625 31.1953125 C-11.970625 30.8653125 -12.300625 30.5353125 -12.640625 30.1953125 C-13.11386444 23.80658011 -13.11386444 23.80658011 -11.140625 21.2578125 C-10.645625 20.9071875 -10.150625 20.5565625 -9.640625 20.1953125 C-10.300625 19.5353125 -10.960625 18.8753125 -11.640625 18.1953125 C-13.89171568 14.81867649 -14.24001176 13.07656192 -14.03125 9.125 C-13.40082644 6.0107076 -11.9126965 4.3411578 -9.640625 2.1953125 C-6.36578729 0.14294971 -3.83107271 -0.04075609 0 0 Z " fill="#EF3936" transform="translate(330.640625,38.8046875)"/>
<path d="M0 0 C3.3 0 6.6 0 10 0 C10 5.61 10 11.22 10 17 C11.32 16.34 12.64 15.68 14 15 C19.55185216 14.55226999 23.30074042 14.68915802 28 18 C31.91745952 22.94836992 32.65069604 27.00916505 32.375 33.28125 C31.79717767 37.47046188 30.74632721 40.73969535 28 44 C24.50609052 46.62414903 21.18337351 47.83432771 16.875 48.4375 C13.46867184 47.91914571 10.97776149 46.70157799 8 45 C7.67 45.66 7.34 46.32 7 47 C4.69 47 2.38 47 0 47 C0 31.49 0 15.98 0 0 Z " fill="#EF3936" transform="translate(400,24)"/>
<path d="M0 0 C4.1603898 1.84906213 6.1449372 3.68758175 7.875 7.8125 C9.79133625 13.983559 9.41730358 19.27389882 6.984375 25.20703125 C5.4925243 27.92433075 3.58996576 29.35758269 1 31 C0.401875 31.4125 -0.19625 31.825 -0.8125 32.25 C-4.26449173 33.43354002 -7.35891412 33.17618158 -11 33 C-11.66 32.67 -12.32 32.34 -13 32 C-13 36.95 -13 41.9 -13 47 C-15.97 47 -18.94 47 -22 47 C-22 31.82 -22 16.64 -22 1 C-19.69 1 -17.38 1 -15 1 C-15 1.66 -15 2.32 -15 3 C-14.195625 2.505 -13.39125 2.01 -12.5625 1.5 C-8.16015675 -0.35361821 -4.70830508 -0.73409058 0 0 Z " fill="#EE3532" transform="translate(148,39)"/>
<path d="M0 0 C4.31600769 3.94606418 6.39464501 8.66309709 6.6875 14.5 C6.36601372 20.70468526 4.03756013 25.14993987 -0.3125 29.5 C-5.5700525 31.75323679 -10.12020893 31.25299071 -15.8125 31 C-15.8125 35.95 -15.8125 40.9 -15.8125 46 C-18.7825 46 -21.7525 46 -24.8125 46 C-24.8125 30.82 -24.8125 15.64 -24.8125 0 C-22.5025 0 -20.1925 0 -17.8125 0 C-17.8125 0.66 -17.8125 1.32 -17.8125 2 C-17.008125 1.505 -16.20375 1.01 -15.375 0.5 C-10.09952901 -1.72125094 -5.41359037 -1.92483213 0 0 Z " fill="#EE3532" transform="translate(215.8125,40)"/>
<path d="M0 0 C3.40920514 2.411389 5.69634878 5.08019755 7.5625 8.8125 C8.09089495 15.03130209 8.28743456 20.54621321 4.5625 25.8125 C-0.34416076 30.34172532 -4.40990048 32.34882243 -11.0546875 32.1953125 C-16.17187757 31.37320655 -20.07820552 28.64582096 -23.12890625 24.53125 C-25.55595159 19.48879163 -25.25806333 14.26104054 -24.4375 8.8125 C-19.60437317 -1.4168364 -10.35716751 -3.5779306 0 0 Z " fill="#EF3935" transform="translate(389.4375,40.1875)"/>
<path d="M0 0 C2.68760074 3.68194523 3.3655984 6.21103292 3.29296875 10.73828125 C3.28330078 11.80498047 3.27363281 12.87167969 3.26367188 13.97070312 C3.23853516 15.07349609 3.21339844 16.17628906 3.1875 17.3125 C3.16719727 18.99569336 3.16719727 18.99569336 3.14648438 20.71289062 C3.1112138 23.47575229 3.06192235 26.23762829 3 29 C0.36 29 -2.28 29 -5 29 C-5 28.01 -5 27.02 -5 26 C-5.49628906 26.30035156 -5.99257813 26.60070312 -6.50390625 26.91015625 C-10.14841497 28.95025127 -12.43281062 30 -16.6875 30 C-20.46851734 28.8585608 -22.39577279 27.9872018 -25 25 C-25.97572906 22.27252344 -26.2981142 19.88368164 -26 17 C-23.89040583 13.4058766 -21.84023608 11.5171303 -18 10 C-15.203125 9.8046875 -15.203125 9.8046875 -12.25 9.875 C-11.26515625 9.89304687 -10.2803125 9.91109375 -9.265625 9.9296875 C-8.14414062 9.96449219 -8.14414062 9.96449219 -7 10 C-7.66 8.35 -8.32 6.7 -9 5 C-14.57830016 4.87530901 -14.57830016 4.87530901 -20 6 C-21.5625 4.1875 -21.5625 4.1875 -23 2 C-22.67 1.01 -22.34 0.02 -22 -1 C-14.69093154 -3.89317293 -6.70821208 -4.63186072 0 0 Z " fill="#EF3835" transform="translate(310,42)"/>
<path d="M0 0 C3.3 0 6.6 0 10 0 C10.98459071 2.3937297 11.96278703 4.7897507 12.9375 7.1875 C13.21529297 7.86103516 13.49308594 8.53457031 13.77929688 9.22851562 C15.22621056 12.80221811 16.41163129 16.16443184 17 20 C17.176521 19.42967041 17.35304199 18.85934082 17.53491211 18.27172852 C18.33255199 15.7009727 19.13495994 13.13173007 19.9375 10.5625 C20.21529297 9.66466797 20.49308594 8.76683594 20.77929688 7.84179688 C21.04677734 6.98779297 21.31425781 6.13378906 21.58984375 5.25390625 C21.83597412 4.46314697 22.08210449 3.6723877 22.33569336 2.85766602 C23 1 23 1 24 0 C25.51928038 -0.07179964 27.04167482 -0.08392007 28.5625 -0.0625 C29.38878906 -0.05347656 30.21507812 -0.04445312 31.06640625 -0.03515625 C31.70449219 -0.02355469 32.34257812 -0.01195312 33 0 C32.08820179 6.64228881 29.74991625 12.6861865 27.44458008 18.94042969 C26.6909083 20.99072802 25.95148356 23.04579168 25.21289062 25.1015625 C24.73002499 26.42218915 24.24632813 27.74251223 23.76171875 29.0625 C23.32819092 30.24972656 22.89466309 31.43695313 22.44799805 32.66015625 C20.2993318 37.61610875 17.61027519 41.84389995 13.5 45.375 C12.9328125 45.87773438 12.365625 46.38046875 11.78125 46.8984375 C10 48 10 48 6 48 C3 43.92857143 3 43.92857143 3 41 C4.6939912 39.74988885 6.46933271 38.69332273 8.2734375 37.609375 C10.76676895 35.28527419 11.25997093 33.31353387 12 30 C11.19145347 26.68207818 11.19145347 26.68207818 9.5703125 23.359375 C9.30113007 22.75111877 9.03194763 22.14286255 8.75460815 21.51617432 C7.89603954 19.58544213 7.01172297 17.66794181 6.125 15.75 C5.25104329 13.8156681 4.38252376 11.87901514 3.51681519 9.940979 C2.73168386 8.19046778 1.93281627 6.44613689 1.13330078 4.70214844 C0 2 0 2 0 0 Z " fill="#EF3733" transform="translate(252,40)"/>
<path d="M0 0 C2.64428748 1.89846281 3.30070313 2.76631168 4.4375 5.75 C4.66455078 8.49902344 4.66455078 8.49902344 4.6328125 11.609375 C4.62636719 12.72441406 4.61992187 13.83945312 4.61328125 14.98828125 C4.59652344 16.14714844 4.57976562 17.30601563 4.5625 18.5 C4.55347656 19.67433594 4.54445312 20.84867188 4.53515625 22.05859375 C4.51160063 24.95593536 4.47870652 27.85286441 4.4375 30.75 C2.1275 30.75 -0.1825 30.75 -2.5625 30.75 C-2.5625 29.76 -2.5625 28.77 -2.5625 27.75 C-3.07039063 28.03875 -3.57828125 28.3275 -4.1015625 28.625 C-8.37988545 30.93241013 -11.58402209 32.5244299 -16.5625 31.75 C-19.33678577 30.48896101 -21.04567435 29.43910086 -22.875 27 C-23.88703615 23.68788168 -23.98564481 21.19560774 -23.5625 17.75 C-20.8514667 14.2859019 -18.86708647 12.49082557 -14.5625 11.75 C-12.81363019 11.68375493 -11.06247252 11.66447405 -9.3125 11.6875 C-8.42046875 11.69652344 -7.5284375 11.70554687 -6.609375 11.71484375 C-5.93390625 11.72644531 -5.2584375 11.73804688 -4.5625 11.75 C-4.8925 10.1 -5.2225 8.45 -5.5625 6.75 C-10.07867599 6.67345464 -14.15335217 6.64771304 -18.5625 7.75 C-19.2225 5.77 -19.8825 3.79 -20.5625 1.75 C-14.1577289 -2.40444612 -7.06935525 -2.48047553 0 0 Z " fill="#EF3633" transform="translate(246.5625,40.25)"/>
<path d="M0 0 C2.4375 1.6875 2.4375 1.6875 4.4375 4.6875 C4.66455078 7.41479492 4.66455078 7.41479492 4.6328125 10.66796875 C4.62636719 11.83134766 4.61992187 12.99472656 4.61328125 14.19335938 C4.59652344 15.40830078 4.57976562 16.62324219 4.5625 17.875 C4.55347656 19.10154297 4.54445313 20.32808594 4.53515625 21.59179688 C4.51156017 24.62389295 4.47863841 27.65559938 4.4375 30.6875 C2.1275 30.6875 -0.1825 30.6875 -2.5625 30.6875 C-2.5625 29.6975 -2.5625 28.7075 -2.5625 27.6875 C-3.160625 28.1825 -3.75875 28.6775 -4.375 29.1875 C-9.07164983 31.39768816 -13.45715049 31.3718843 -18.5625 30.6875 C-21.45179479 29.03647441 -22.13672229 27.94608819 -23.18359375 24.8515625 C-23.84356008 21.8028685 -24.09632084 19.66477043 -22.5703125 16.87109375 C-20.79162074 14.68719706 -19.09576742 12.95413371 -16.5625 11.6875 C-14.52194995 11.61684383 -12.47915743 11.60328024 -10.4375 11.625 C-9.34179688 11.63402344 -8.24609375 11.64304687 -7.1171875 11.65234375 C-6.27414062 11.66394531 -5.43109375 11.67554688 -4.5625 11.6875 C-5.2225 10.0375 -5.8825 8.3875 -6.5625 6.6875 C-10.72388263 6.60590426 -14.5097484 6.70501476 -18.5625 7.6875 C-19.2225 5.7075 -19.8825 3.7275 -20.5625 1.6875 C-14.16597285 -2.46159869 -7.03345724 -2.59127372 0 0 Z " fill="#EE3633" transform="translate(456.5625,40.3125)"/>
<path d="M0 0 C2.4375 1.6875 2.4375 1.6875 4.4375 4.6875 C4.66455078 7.41479492 4.66455078 7.41479492 4.6328125 10.66796875 C4.62636719 11.83134766 4.61992187 12.99472656 4.61328125 14.19335938 C4.59652344 15.40830078 4.57976562 16.62324219 4.5625 17.875 C4.55347656 19.10154297 4.54445312 20.32808594 4.53515625 21.59179688 C4.51156017 24.62389295 4.47863841 27.65559938 4.4375 30.6875 C2.1275 30.6875 -0.1825 30.6875 -2.5625 30.6875 C-2.5625 29.6975 -2.5625 28.7075 -2.5625 27.6875 C-3.160625 28.1825 -3.75875 28.6775 -4.375 29.1875 C-9.07164983 31.39768816 -13.45715049 31.3718843 -18.5625 30.6875 C-21.46055157 29.03147053 -22.16697061 27.9505572 -23.1484375 24.81640625 C-23.91513967 20.99012846 -23.89362403 19.25163724 -21.875 15.8125 C-17.91577533 12.17429354 -15.1772671 11.43476745 -9.8125 11.5625 C-8.82765625 11.58054687 -7.8428125 11.59859375 -6.828125 11.6171875 C-5.70664063 11.65199219 -5.70664063 11.65199219 -4.5625 11.6875 C-4.91036708 9.71213255 -4.91036708 9.71213255 -5.5625 7.6875 C-9.64511196 5.64619402 -14.26586653 6.67652742 -18.5625 7.6875 C-19.2225 5.7075 -19.8825 3.7275 -20.5625 1.6875 C-14.16597285 -2.46159869 -7.03345724 -2.59127372 0 0 Z " fill="#EE3532" transform="translate(181.5625,40.3125)"/>
<path d="M0 0 C15.18 0 30.36 0 46 0 C42.90491373 1.54754313 40.74906359 2.38064921 37.5 3.1875 C23.30845844 7.37379544 13.53464773 16.24038986 6.47265625 28.96484375 C3.6538125 34.77450315 2.22349245 40.69345256 1 47 C0.67 47 0.34 47 0 47 C0 31.49 0 15.98 0 0 Z " fill="#FEFBFB" transform="translate(0,0)"/>
<path d="M0 0 C1.64597847 3.29195693 2.70051092 6.13590912 3.75 9.625 C8.39419872 23.66004171 16.85015466 33.30589444 30 40 C35.22744813 42.41326145 40.228455 44.39246895 46 45 C46 45.33 46 45.66 46 46 C30.82 46 15.64 46 0 46 C0 30.82 0 15.64 0 0 Z " fill="#FEFCFC" transform="translate(0,60)"/>
<path d="M0 0 C3.3 0 6.6 0 10 0 C10 15.51 10 31.02 10 47 C6.7 47 3.4 47 0 47 C0 31.49 0 15.98 0 0 Z " fill="#EF3A38" transform="translate(466,24)"/>
<path d="M0 0 C2.97 0 5.94 0 9 0 C9 15.51 9 31.02 9 47 C6.03 47 3.06 47 0 47 C0 31.49 0 15.98 0 0 Z " fill="#EE322E" transform="translate(352,24)"/>
<path d="M0 0 C2.9375 0.5625 2.9375 0.5625 4.59375 2.25390625 C7.01566286 6.41480887 6.56599941 10.90171789 5.9375 15.5625 C4.3125 18.3125 4.3125 18.3125 1.9375 19.5625 C-1.125 19.625 -1.125 19.625 -4.0625 18.5625 C-7.11779131 15.20167956 -7.60151249 11.89287362 -7.41015625 7.5 C-6.59000797 2.929286 -4.46565781 0.82022286 0 0 Z " fill="#FEF6F6" transform="translate(381.0625,45.4375)"/>
<path d="M0 0 C3.125 0.4375 3.125 0.4375 5.5 2.4375 C7.59307825 6.30164446 7.81993154 9.13761108 7.125 13.4375 C6.0625 16.375 6.0625 16.375 4.125 18.4375 C-1.91029412 19.91985294 -1.91029412 19.91985294 -4.875 18.4375 C-4.92882106 15.81222811 -4.96858313 13.18805287 -5 10.5625 C-5.01675781 9.81613281 -5.03351563 9.06976563 -5.05078125 8.30078125 C-5.0683959 6.34555539 -4.97820189 4.39007979 -4.875 2.4375 C-2.875 0.4375 -2.875 0.4375 0 0 Z " fill="#FEF8F8" transform="translate(414.875,45.5625)"/>
<path d="M0 0 C3.4375 0.875 3.4375 0.875 4.875 2.4375 C5.98076942 7.22916749 6.03226122 11.23066016 4.375 15.8125 C1.62650424 18.73831807 -0.64242921 18.73245197 -4.5625 18.875 C-5.2225 18.545 -5.8825 18.215 -6.5625 17.875 C-6.64324203 15.24938891 -6.7028623 12.62624324 -6.75 10 C-6.77513672 9.25363281 -6.80027344 8.50726563 -6.82617188 7.73828125 C-6.85546875 5.5703125 -6.85546875 5.5703125 -6.5625 1.875 C-3.5625 -0.125 -3.5625 -0.125 0 0 Z " fill="#FEF7F7" transform="translate(141.5625,46.125)"/>
<path d="M0 0 C3.4375 0.875 3.4375 0.875 4.875 2.4375 C5.87699882 6.77949491 6.07774829 11.00350501 4.625 15.25 C3.4375 16.875 3.4375 16.875 0.4375 18.875 C-3.25 18.5 -3.25 18.5 -6.5625 17.875 C-6.64324203 15.24938891 -6.7028623 12.62624324 -6.75 10 C-6.77513672 9.25363281 -6.80027344 8.50726563 -6.82617188 7.73828125 C-6.85546875 5.5703125 -6.85546875 5.5703125 -6.5625 1.875 C-3.5625 -0.125 -3.5625 -0.125 0 0 Z " fill="#FEF8F8" transform="translate(206.5625,46.125)"/>
<path d="M0 0 C1.48693359 0.00386719 1.48693359 0.00386719 3.00390625 0.0078125 C3.99261719 0.00523438 4.98132813 0.00265625 6 0 C8.56640625 0.1328125 8.56640625 0.1328125 10.56640625 1.1328125 C10.25390625 3.5078125 10.25390625 3.5078125 9.56640625 6.1328125 C5.85627226 8.60623516 3.95580363 8.51784736 -0.43359375 8.1328125 C-2.87109375 6.6328125 -2.87109375 6.6328125 -4.43359375 5.1328125 C-3.31542861 0.18093832 -3.31542861 0.18093832 0 0 Z " fill="#FDECEC" transform="translate(327.43359375,71.8671875)"/>
<path d="M0 0 C2 0.6875 2 0.6875 4 2.6875 C3.625 5.8125 3.625 5.8125 3 8.6875 C0.125 9.3125 0.125 9.3125 -3 9.6875 C-3.66 9.0275 -4.32 8.3675 -5 7.6875 C-4.75 4.125 -4.75 4.125 -4 0.6875 C-2 -0.3125 -2 -0.3125 0 0 Z " fill="#FDEFEF" transform="translate(331,45.3125)"/>
<path d="M0 0 C0.1875 2.875 0.1875 2.875 0 6 C-3 8 -3 8 -5.6875 7.625 C-6.450625 7.41875 -7.21375 7.2125 -8 7 C-8.33 5.68 -8.66 4.36 -9 3 C-5.92807025 0.26939578 -4.09590633 -0.34132553 0 0 Z " fill="#FDEFEE" transform="translate(303,57)"/>
<path d="M0 0 C0.1875 2.875 0.1875 2.875 0 6 C-3 8 -3 8 -5.6875 7.625 C-6.450625 7.41875 -7.21375 7.2125 -8 7 C-8.33 5.68 -8.66 4.36 -9 3 C-5.92807025 0.26939578 -4.09590633 -0.34132553 0 0 Z " fill="#FDEEED" transform="translate(177,57)"/>
<path d="M0 0 C-0.33 2.31 -0.66 4.62 -1 7 C-3.875 7.625 -3.875 7.625 -7 8 C-7.66 7.34 -8.32 6.68 -9 6 C-8.8125 4 -8.8125 4 -8 2 C-4.77208445 -0.1519437 -3.71599191 -0.20086443 0 0 Z " fill="#FDEFEF" transform="translate(452,57)"/>
<path d="M0 0 C-0.33 2.31 -0.66 4.62 -1 7 C-3.875 7.625 -3.875 7.625 -7 8 C-7.66 7.34 -8.32 6.68 -9 6 C-8.8125 4 -8.8125 4 -8 2 C-4.77208445 -0.1519437 -3.71599191 -0.20086443 0 0 Z " fill="#FDEEED" transform="translate(242,57)"/>
</svg>
