<?xml version="1.0" encoding="UTF-8"?>
<svg version="1.1" xmlns="http://www.w3.org/2000/svg" width="275" height="183">
<path d="M0 0 C90.75 0 181.5 0 275 0 C275 60.39 275 120.78 275 183 C184.25 183 93.5 183 0 183 C0 122.61 0 62.22 0 0 Z " fill="#FEFEFE" transform="translate(0,0)"/>
<path d="M0 0 C3.33333333 0 6.66666667 0 10 0 C10.68835937 -0.03480469 11.37671875 -0.06960937 12.0859375 -0.10546875 C16.87553505 -0.27710962 20.23553871 -0.32158349 24 3 C27.10035244 7.34049342 27.36111202 10.71357425 26.5859375 15.8125 C25.67934756 19.19710245 24.22741128 21.30010755 22 24 C19.51245214 25.24377393 17.77344699 25.13306235 15 25.125 C14.113125 25.12757812 13.22625 25.13015625 12.3125 25.1328125 C10 25 10 25 8 24 C7.67 27.63 7.34 31.26 7 35 C4.69 35 2.38 35 0 35 C0 23.45 0 11.9 0 0 Z " fill="#21282F" transform="translate(30,53)"/>
<path d="M0 0 C3.33333333 0 6.66666667 0 10 0 C10.76054687 -0.05800781 11.52109375 -0.11601563 12.3046875 -0.17578125 C19.29394813 -0.54755043 19.29394813 -0.54755043 23.0625 2.375 C26.74827229 7.36862697 26.64269224 11.91584675 26 18 C24.71456923 21.15570209 23.12048487 23.43975756 20 25 C18.33555539 25.0955931 16.66718037 25.12984645 15 25.125 C14.113125 25.12757812 13.22625 25.13015625 12.3125 25.1328125 C10 25 10 25 8 24 C7.67 27.63 7.34 31.26 7 35 C4.69 35 2.38 35 0 35 C0 23.45 0 11.9 0 0 Z " fill="#2BBA3B" transform="translate(136,53)"/>
<path d="M0 0 C1.17369141 0.01353516 1.17369141 0.01353516 2.37109375 0.02734375 C3.09425781 0.03894531 3.81742188 0.05054688 4.5625 0.0625 C5.5525 0.0625 6.5425 0.0625 7.5625 0.0625 C9.8725 0.0625 12.1825 0.0625 14.5625 0.0625 C14.5625 8.3125 14.5625 16.5625 14.5625 25.0625 C12.5825 25.0625 10.6025 25.0625 8.5625 25.0625 C8.2325 24.4025 7.9025 23.7425 7.5625 23.0625 C6.9025 23.7225 6.2425 24.3825 5.5625 25.0625 C1.50881586 25.75512589 -2.68089167 25.97411311 -6.39453125 24.046875 C-9.75807344 21.32985308 -11.19414561 19.08234141 -11.7109375 14.79296875 C-11.89043545 10.29861625 -12.01636603 7.0793906 -9.0625 3.5 C-5.73468053 0.40988192 -4.39485911 -0.06494866 0 0 Z " fill="#1D242C" transform="translate(70.4375,52.9375)"/>
<path d="M0 0 C1.16015625 0.02707031 1.16015625 0.02707031 2.34375 0.0546875 C3.41109375 0.08949219 3.41109375 0.08949219 4.5 0.125 C5.49 0.125 6.48 0.125 7.5 0.125 C9.81 0.125 12.12 0.125 14.5 0.125 C14.5 8.375 14.5 16.625 14.5 25.125 C12.52 25.125 10.54 25.125 8.5 25.125 C8.17 24.465 7.84 23.805 7.5 23.125 C6.84 23.785 6.18 24.445 5.5 25.125 C1.44631586 25.81762589 -2.74339167 26.03661311 -6.45703125 24.109375 C-9.7233197 21.47091329 -11.25128617 19.26556982 -11.73828125 15.07421875 C-11.9194823 9.55235507 -11.22103642 6.48392838 -7.5 2.125 C-4.32988425 0.0115895 -3.60829256 -0.10824878 0 0 Z " fill="#26B936" transform="translate(176.5,52.875)"/>
<path d="M0 0 C3.53536291 2.02020738 5.76937948 4.08438925 7 8 C7 10.31 7 12.62 7 15 C-1.415 15.495 -1.415 15.495 -10 16 C-9.01 16.99 -8.02 17.98 -7 19 C-3.48254713 18.74751373 -3.48254713 18.74751373 0 18 C0.99 18 1.98 18 3 18 C3.66 19.32 4.32 20.64 5 22 C0.83641332 25.76420187 -2.74244265 25.49632005 -8.14453125 25.3515625 C-11.88413895 24.89114568 -13.62683681 23.92690126 -16 21 C-18.35384271 16.96484107 -18.74325743 12.57595838 -18 8 C-13.62151669 -0.15303789 -8.70992114 -1.04570063 0 0 Z " fill="#29B939" transform="translate(238,53)"/>
<path d="M0 0 C2.31 0 4.62 0 7 0 C9.18326108 4.27113698 11.31326082 8.50202887 13 13 C14.8272911 10.25906335 15.93698178 7.86174676 17.125 4.8125 C17.47820312 3.91144531 17.83140625 3.01039062 18.1953125 2.08203125 C18.46085937 1.39496094 18.72640625 0.70789062 19 0 C21.31 0 23.62 0 26 0 C23.54339947 7.63096841 20.71145927 15.08971911 17.8125 22.5625 C17.34908203 23.76197266 16.88566406 24.96144531 16.40820312 26.19726562 C15.27397475 29.1322277 14.13786515 32.0664464 13 35 C10.69 35 8.38 35 6 35 C6.22816406 34.34773438 6.45632812 33.69546875 6.69140625 33.0234375 C6.97886719 32.14945313 7.26632813 31.27546875 7.5625 30.375 C7.99755859 29.08722656 7.99755859 29.08722656 8.44140625 27.7734375 C9.79957185 21.03009782 6.57725203 15.17956079 3.9375 9.125 C3.56044922 8.24585938 3.18339844 7.36671875 2.79492188 6.4609375 C1.86913928 4.30468436 0.93738089 2.15123021 0 0 Z " fill="#1D242B" transform="translate(87,53)"/>
<path d="M0 0 C1.32 0 2.64 0 4 0 C4 7.59 4 15.18 4 23 C2.02 23 0.04 23 -2 23 C-2.66 23.33 -3.32 23.66 -4 24 C-7.93429172 24.52457223 -9.54458957 24.30690703 -12.875 22.0625 C-15.36004541 18.48111103 -15.74127589 16.4347017 -15.484375 12.16015625 C-14.6726873 8.54029093 -13.0140178 7.03118591 -10 5 C-6.02251415 4.43178774 -3.41540279 4.89821367 0 7 C0 4.69 0 2.38 0 0 Z " fill="#080808" transform="translate(188,103)"/>
<path d="M0 0 C3.1875 1.5 3.1875 1.5 5 3 C4.34 4.32 3.68 5.64 3 7 C0.97625711 7 -1.04919055 6.99749407 -3.0703125 6.89453125 C-5.04561402 6.8156694 -7.02543505 6.90445653 -9 7 C-11.38798682 9.90585687 -11.38798682 9.90585687 -10.6875 13.625 C-10.35886877 16.82504312 -10.35886877 16.82504312 -9 18 C-6.32459751 18.04385906 -3.6732148 18.04463624 -1 18 C0.32 18 1.64 18 3 18 C3.66 19.32 4.32 20.64 5 22 C0.84370915 25.43968898 -3.15278211 25.56466183 -8.3359375 25.41796875 C-12.61755235 24.74621979 -14.17286483 23.26207904 -17 20 C-19.07398081 16.32339766 -19.51233197 13.1840444 -19 9 C-14.25371491 0.35498073 -9.46192857 -1.09176099 0 0 Z " fill="#2BBA3B" transform="translate(213,53)"/>
<path d="M0 0 C2.3125 1.0234375 2.3125 1.0234375 4 2 C3.34 3.65 2.68 5.3 2 7 C-0.97 6.67 -3.94 6.34 -7 6 C-7.33 6.66 -7.66 7.32 -8 8 C-7.39671875 8.17015625 -6.7934375 8.3403125 -6.171875 8.515625 C2.67707875 11.19885614 2.67707875 11.19885614 5 15 C4.94038384 18.3981209 4.80102086 20.8617072 2.8125 23.6875 C0.21961791 25.56510427 -1.76650587 25.43358035 -4.9375 25.4375 C-5.97777344 25.45683594 -7.01804687 25.47617188 -8.08984375 25.49609375 C-11.61189042 24.89569116 -12.76919844 23.71458985 -15 21 C-14.01 19.515 -14.01 19.515 -13 18 C-9.37 18.66 -5.74 19.32 -2 20 C-2.65393656 16.89010706 -2.65393656 16.89010706 -4.99609375 15.9375 C-5.80175781 15.628125 -6.60742188 15.31875 -7.4375 15 C-10.97530152 13.63712301 -11.80724219 13.28913671 -14 10 C-14.44242648 6.53432593 -14.38665268 4.66785463 -12.625 1.625 C-8.62785688 -0.84942193 -4.58693094 -0.63217317 0 0 Z " fill="#28B938" transform="translate(128,53)"/>
<path d="M0 0 C2.8125 1.625 2.8125 1.625 5 4 C5.33 5.98 5.66 7.96 6 10 C1.38 10 -3.24 10 -8 10 C-7.01 11.65 -6.02 13.3 -5 15 C-0.52116304 14.55296014 -0.52116304 14.55296014 3 12 C3.99 12.99 4.98 13.98 6 15 C3.09648081 18.18004482 0.95857257 18.89349194 -3.375 19.375 C-7 19 -7 19 -9.9375 17.0625 C-12.36540184 13.45743363 -12.66744387 11.34875048 -12.43359375 7.08984375 C-11.80769719 4.07313512 -10.47809096 2.74924068 -8 1 C-5.14675563 -0.42662219 -3.16545451 -0.31033868 0 0 Z " fill="#0E0E0E" transform="translate(206,108)"/>
<path d="M0 0 C2.9375 2.1875 2.9375 2.1875 5 5 C5 6.65 5 8.3 5 10 C0.71 10 -3.58 10 -8 10 C-7.01 11.65 -6.02 13.3 -5 15 C-1.87364791 15.41746608 -1.87364791 15.41746608 1 15 C1.33 14.01 1.66 13.02 2 12 C3.32 12.99 4.64 13.98 6 15 C3.09043751 18.18666368 0.98204232 18.90907016 -3.375 19.3125 C-7 19 -7 19 -9.9375 17.625 C-12.65888453 14.16141969 -12.71666408 11.73970496 -12.48046875 7.41796875 C-12 5 -12 5 -9.9375 1.875 C-6.21389337 -0.50177019 -4.34189423 -0.77533825 0 0 Z " fill="#181818" transform="translate(226,108)"/>
<path d="M0 0 C2 1.5625 2 1.5625 3 4 C2.93375803 7.77579201 2.78061285 10.07482922 0.3125 13 C-2.86108915 14.37236288 -4.72882454 13.99557514 -8 13 C-10.46324069 9.30513897 -10.38991688 7.36706908 -10 3 C-7.7810369 -1.04634448 -4.19567567 -0.52445946 0 0 Z " fill="#F4FBF4" transform="translate(182,59)"/>
<path d="M0 0 C2.40346379 2.40346379 2.32083747 3.13900195 2.375 6.4375 C2.26642418 10.65159915 2.26642418 10.65159915 0.375 13.125 C-2.80131522 14.2952214 -4.77246897 13.91212834 -8 13 C-10 11 -10 11 -10.3125 7.0625 C-10.23081662 4.56208106 -10.12109418 3.22794199 -8.9375 1 C-5.91000701 -0.56257703 -3.33615038 -0.3032864 0 0 Z " fill="#F5F5F6" transform="translate(76,59)"/>
<path d="M0 0 C2 1.5625 2 1.5625 3 4 C2.67272727 10.32727273 2.67272727 10.32727273 0 13 C-6.00458716 13.54587156 -6.00458716 13.54587156 -8.9375 11.9375 C-10.6140629 8.88023824 -10.36528977 6.4093712 -10 3 C-7.7810369 -1.04634448 -4.19567567 -0.52445946 0 0 Z " fill="#FAFDFA" transform="translate(153,59)"/>
<path d="M0 0 C2 1.5625 2 1.5625 3 4 C2.67272727 10.32727273 2.67272727 10.32727273 0 13 C-6.00458716 13.54587156 -6.00458716 13.54587156 -8.9375 11.9375 C-10.6140629 8.88023824 -10.36528977 6.4093712 -10 3 C-7.7810369 -1.04634448 -4.19567567 -0.52445946 0 0 Z " fill="#FAFAFA" transform="translate(47,59)"/>
<path d="M0 0 C0.66 0 1.32 0 2 0 C2.33 1.65 2.66 3.3 3 5 C3.33 4.67 3.66 4.34 4 4 C6.4375 3.8125 6.4375 3.8125 9 4 C11 6 11 6 11.25 9.4375 C11 13 11 13 9 16 C6.625 16.1875 6.625 16.1875 4 16 C2.68 16 1.36 16 0 16 C0 10.72 0 5.44 0 0 Z " fill="#ECECEC" transform="translate(143,110)"/>
<path d="M0 0 C1.65 0 3.3 0 5 0 C5 7.92 5 15.84 5 24 C3.35 24 1.7 24 0 24 C0 16.08 0 8.16 0 0 Z " fill="#282828" transform="translate(233,103)"/>
<path d="M0 0 C2.4375 0.75 2.4375 0.75 4.4375 2.75 C4.98532609 8.77608696 4.98532609 8.77608696 3.3125 11.75 C0.41942987 13.29297074 -1.49890275 12.66256088 -4.5625 11.75 C-6.5625 8.75 -6.5625 8.75 -6.375 5.1875 C-5.4068221 1.09136272 -4.38870004 -0.42816586 0 0 Z " fill="#EBEBEB" transform="translate(183.5625,111.25)"/>
<path d="M0 0 C-0.350625 1.010625 -0.70125 2.02125 -1.0625 3.0625 C-2.17595205 6.93984012 -1.94745481 10.05227164 -1 14 C-0.34 14.33 0.32 14.66 1 15 C1 15.66 1 16.32 1 17 C1.99 17 2.98 17 4 17 C4 17.66 4 18.32 4 19 C0.10496422 19.45291114 -1.57683856 19.28517401 -4.875 17.0625 C-7.36118558 13.47946784 -7.72835816 11.43473565 -7.5 7.16015625 C-6.62997103 3.4013592 -4.06394721 0 0 0 Z " fill="#101010" transform="translate(180,108)"/>
<path d="M0 0 C0.33 0 0.66 0 1 0 C1 2.64 1 5.28 1 8 C-1 8 -3 8 -5 8 C-5.99 8.66 -6.98 9.32 -8 10 C-11.32240324 9.6758631 -12.60776303 9.39223697 -15 7 C-15 6.01 -15 5.02 -15 4 C-10.05 4 -5.1 4 0 4 C0 2.68 0 1.36 0 0 Z " fill="#F3F3F4" transform="translate(213,114)"/>
<path d="M0 0 C1.85776765 3.13498292 2.20140476 5.37471432 2 9 C-0.475 8.01 -0.475 8.01 -3 7 C-3.391875 7.515625 -3.78375 8.03125 -4.1875 8.5625 C-6 10 -6 10 -8.5625 9.8125 C-11 9 -11 9 -13 7 C-13 6.01 -13 5.02 -13 4 C-8.71 4 -4.42 4 0 4 C0 2.68 0 1.36 0 0 Z " fill="#E3E4E4" transform="translate(231,114)"/>
<path d="M0 0 C4.37381963 -0.42880585 6.34825296 -0.48534354 9.9375 2.1875 C12 5 12 5 12 10 C7.71 10 3.42 10 -1 10 C-0.67 9.34 -0.34 8.68 0 8 C2.64 8 5.28 8 8 8 C7.42055068 6.00136244 7.42055068 6.00136244 6 4 C2.95800528 2.70768358 2.95800528 2.70768358 0 2 C0 1.34 0 0.68 0 0 Z " fill="#070707" transform="translate(219,108)"/>
<path d="M0 0 C0.99 0 1.98 0 3 0 C3.99 2.31 4.98 4.62 6 7 C6.99 4.69 7.98 2.38 9 0 C9.66 0 10.32 0 11 0 C7.72689134 11.7460495 7.72689134 11.7460495 5 16 C2.8125 16.875 2.8125 16.875 1 17 C1 16.34 1 15.68 1 15 C1.66 14.67 2.32 14.34 3 14 C2.40380045 9.13103697 1.43023178 4.67209049 0 0 Z " fill="#1A1A1B" transform="translate(155,114)"/>
<path d="M0 0 C4.29 0 8.58 0 13 0 C12.34 1.32 11.68 2.64 11 4 C7.625 5 7.625 5 4 5 C1.5625 3.125 1.5625 3.125 0 1 C0 0.67 0 0.34 0 0 Z " fill="#EDF8EE" transform="translate(227,68)"/>
<path d="M0 0 C2.375 -0.125 2.375 -0.125 5 0 C7 2 7 2 7.25 5.4375 C7 9 7 9 5 12 C2.375 12.1875 2.375 12.1875 0 12 C-0.33 11.34 -0.66 10.68 -1 10 C0.65 10 2.3 10 4 10 C4 7.36 4 4.72 4 2 C2.35 2 0.7 2 -1 2 C-0.67 1.34 -0.34 0.68 0 0 Z " fill="#121212" transform="translate(147,114)"/>
<path d="M0 0 C0.66 1.32 1.32 2.64 2 4 C-1.63 4 -5.26 4 -9 4 C-6.45574662 -1.08850677 -5.30640699 -1.72458227 0 0 Z " fill="#EAF7EB" transform="translate(236,59)"/>
<path d="M0 0 C3.85055455 0.45300642 5.40551758 1.7566636 8.1875 4.375 C7.8575 5.695 7.5275 7.015 7.1875 8.375 C7.1875 7.385 7.1875 6.395 7.1875 5.375 C6.1975 5.705 5.2075 6.035 4.1875 6.375 C3.5275 5.715 2.8675 5.055 2.1875 4.375 C-0.13015729 3.65572705 -2.46345874 2.9840107 -4.8125 2.375 C-2.8125 0.375 -2.8125 0.375 0 0 Z " fill="#0B0B0B" transform="translate(202.8125,107.625)"/>
<path d="M0 0 C0.33 0 0.66 0 1 0 C1 2.64 1 5.28 1 8 C-2 8 -2 8 -4 7 C-4 6.34 -4 5.68 -4 5 C-7.3 5 -10.6 5 -14 5 C-14.33 5.66 -14.66 6.32 -15 7 C-15 6.01 -15 5.02 -15 4 C-10.05 4 -5.1 4 0 4 C0 2.68 0 1.36 0 0 Z " fill="#C6C6C6" transform="translate(213,114)"/>
<path d="M0 0 C0.66 0 1.32 0 2 0 C2.1958009 1.91583647 2.38132214 3.83272539 2.5625 5.75 C2.66691406 6.81734375 2.77132812 7.8846875 2.87890625 8.984375 C2.98560074 11.64141204 2.81930395 13.49960572 2 16 C1.34 16 0.68 16 0 16 C0 10.72 0 5.44 0 0 Z " fill="#040404" transform="translate(143,110)"/>
<path d="M0 0 C1.65 0.33 3.3 0.66 5 1 C5.33 1.99 5.66 2.98 6 4 C3.03 4 0.06 4 -3 4 C-2.01 2.68 -1.02 1.36 0 0 Z " fill="#F0F0F0" transform="translate(221,111)"/>
<path d="M0 0 C1.65 0.33 3.3 0.66 5 1 C5.33 1.99 5.66 2.98 6 4 C3.36 4 0.72 4 -2 4 C-1.34 2.68 -0.68 1.36 0 0 Z " fill="#F6F6F6" transform="translate(201,111)"/>
<path d="M0 0 C1.65 0 3.3 0 5 0 C5 1.65 5 3.3 5 5 C3.35 5 1.7 5 0 5 C0 3.35 0 1.7 0 0 Z " fill="#4A4A4B" transform="translate(240,122)"/>
<path d="M0 0 C2.0625 0.4375 2.0625 0.4375 4 1 C4 1.99 4 2.98 4 4 C-2.93 3.505 -2.93 3.505 -10 3 C-9.67 2.34 -9.34 1.68 -9 1 C-7.700625 1.020625 -6.40125 1.04125 -5.0625 1.0625 C-3.70834367 1.08399454 -2.35243917 1.07148199 -1 1 C-0.67 0.67 -0.34 0.34 0 0 Z " fill="#323232" transform="translate(208,113)"/>
<path d="M0 0 C1.32 0.99 2.64 1.98 4 3 C2.68 3.99 1.36 4.98 0 6 C-0.99 5.01 -1.98 4.02 -3 3 C-2.34 3 -1.68 3 -1 3 C-0.67 2.01 -0.34 1.02 0 0 Z " fill="#1D1D1D" transform="translate(228,120)"/>
<path d="M0 0 C1.32 0.66 2.64 1.32 4 2 C2.68 3.32 1.36 4.64 0 6 C-0.99 5.01 -1.98 4.02 -3 3 C-2.01 2.01 -1.02 1.02 0 0 Z " fill="#161616" transform="translate(208,120)"/>
<path d="M0 0 C1.32 0.66 2.64 1.32 4 2 C2.75 3.5625 2.75 3.5625 1 5 C-1.1875 4.6875 -1.1875 4.6875 -3 4 C-2.01 2.68 -1.02 1.36 0 0 Z " fill="#1F1F1F" transform="translate(217,109)"/>
<path d="M0 0 C1.65 0 3.3 0 5 0 C5.66 1.32 6.32 2.64 7 4 C6.01 4 5.02 4 4 4 C4 3.34 4 2.68 4 2 C2.35 2 0.7 2 -1 2 C-0.67 1.34 -0.34 0.68 0 0 Z " fill="#232324" transform="translate(147,114)"/>
<path d="M0 0 C2.31 0.33 4.62 0.66 7 1 C5 3 5 3 2.375 3.125 C1.59125 3.08375 0.8075 3.0425 0 3 C0 2.01 0 1.02 0 0 Z " fill="#060606" transform="translate(201,124)"/>
<path d="M0 0 C2.875 -0.125 2.875 -0.125 6 0 C6.66 0.66 7.32 1.32 8 2 C5.69 2.33 3.38 2.66 1 3 C0.67 2.01 0.34 1.02 0 0 Z " fill="#060606" transform="translate(220,124)"/>
</svg>
