<?xml version="1.0" encoding="UTF-8"?>
<svg version="1.1" xmlns="http://www.w3.org/2000/svg" width="430" height="117">
<path d="M0 0 C141.9 0 283.8 0 430 0 C430 38.61 430 77.22 430 117 C288.1 117 146.2 117 0 117 C0 78.39 0 39.78 0 0 Z " fill="#FCFCFC" transform="translate(0,0)"/>
<path d="M0 0 C2.3239566 2.1583294 4.20783432 4.3852902 6 7 C6.41378906 7.598125 6.82757813 8.19625 7.25390625 8.8125 C11.43627388 16.27372727 11.18610268 25.7310093 10 34 C7.23059349 43.49958687 1.2046649 50.58942298 -7.4375 55.33984375 C-15.87802432 59.24080976 -24.61934103 60.59906968 -33.6875 57.8125 C-43.37626245 54.0820674 -50.85110673 48.02495348 -55.4375 38.5625 C-58.70383495 29.30550707 -58.63065189 18.37836863 -54.5625 9.4375 C-49.33773324 0.4754883 -41.47649181 -5.63900259 -31.625 -8.75 C-19.44586965 -9.90991718 -9.63667556 -7.86101173 0 0 Z " fill="#2C9F1C" transform="translate(76,34)"/>
<path d="M0 0 C2.64 0 5.28 0 8 0 C8.33 5.94 8.66 11.88 9 18 C9.99 17.34 10.98 16.68 12 16 C16.94368632 15.26823232 20.93573801 15.47754412 25.4375 17.6875 C28.91513689 20.82585524 30.726664 22.79306489 31.31640625 27.5546875 C31.56810592 33.54676354 31.1654932 37.37167423 27 42 C23.68078196 44.91688858 21.06565909 45.90132786 16.625 46.3125 C12.44090135 45.95180184 10.96475648 44.87491538 8 42 C7.67 42.99 7.34 43.98 7 45 C4.69 45 2.38 45 0 45 C0 30.15 0 15.3 0 0 Z " fill="#040404" transform="translate(245,42)"/>
<path d="M0 0 C3.375 2 3.375 2 6 4 C6.33 3.01 6.66 2.02 7 1 C9.31 1 11.62 1 14 1 C14 15.19 14 29.38 14 44 C11.69 44 9.38 44 7 44 C7 38.39 7 32.78 7 27 C4.69 28.32 2.38 29.64 0 31 C-4.1934148 32.00229246 -7.46211634 31.2740162 -11.3125 29.3125 C-14.83184469 26.28422667 -16.7387489 23.74873485 -17.43359375 19.09765625 C-17.4471542 8.5611838 -17.4471542 8.5611838 -13 4 C-8.93523361 0.8702283 -5.18042555 -0.88177456 0 0 Z " fill="#040404" transform="translate(113,57)"/>
<path d="M0 0 C4.05438133 2.22362387 6.8135123 4.81503075 8.5625 9.1875 C9.21114564 14.70098793 9.30801812 18.88024632 6.203125 23.734375 C3.14761454 27.2018644 -0.7162379 28.84794104 -5.203125 29.69140625 C-10.49537731 30.01435865 -14.953915 28.47832241 -19.1875 25.3125 C-22.35337715 21.87983544 -23.43872265 18.36792957 -23.6875 13.75 C-23.46843708 9.30831048 -22.11848291 6.71877743 -19.1875 3.3125 C-13.3052563 -1.99586627 -7.3819373 -3.41552323 0 0 Z " fill="#070707" transform="translate(303.1875,58.6875)"/>
<path d="M0 0 C4.47915015 2.08512162 7.18908976 4.37211828 9 9 C9.7194304 14.96527706 9.50196737 19.92818519 6 25 C0.82316998 29.67177343 -2.39353498 30.3478341 -9.234375 30.28515625 C-14.0473343 29.7889048 -16.71534029 27.46185415 -19.8125 23.9375 C-22.665033 19.28336721 -22.59293362 14.28699141 -22 9 C-17.30258247 -0.56881348 -9.75471987 -1.10430791 0 0 Z " fill="#060606" transform="translate(338,58)"/>
<path d="M0 0 C2.64 0 5.28 0 8 0 C8.33 8.91 8.66 17.82 9 27 C10.27875 25.185 11.5575 23.37 12.875 21.5 C17.12160125 16.22719304 17.12160125 16.22719304 20.82421875 15.26953125 C23.30086109 15.3083944 25.57642426 15.49909395 28 16 C26.60669258 19.1857029 24.97103262 21.19822217 22.4375 23.5625 C20.00373705 25.8343494 19.07740206 26.76779382 18 30 C19.55287156 32.31749843 21.11294747 34.41544135 22.875 36.5625 C27.93535262 42.87070524 27.93535262 42.87070524 29 45 C25.10133034 45.78702116 21.87054124 46.0122954 18 45 C14.30441687 41.38888734 11.65797433 37.41026852 9 33 C8.67 36.96 8.34 40.92 8 45 C5.36 45 2.72 45 0 45 C0 30.15 0 15.3 0 0 Z " fill="#090909" transform="translate(353,42)"/>
<path d="M0 0 C2.31 0 4.62 0 7 0 C7 9.24 7 18.48 7 28 C7.66 28 8.32 28 9 28 C9.268125 27.42765625 9.53625 26.8553125 9.8125 26.265625 C11.92528627 22.2346512 14.35815614 18.77599714 18 16 C21.44134289 15.33878128 24.5445038 15.49940498 28 16 C22.53302961 23.50797267 22.53302961 23.50797267 19.5625 26.25 C19.046875 26.8275 18.53125 27.405 18 28 C18.27502085 32.1253128 20.96387354 34.60750261 23.5625 37.625 C28 42.78939158 28 42.78939158 28 45 C24.42141515 45.80686255 21.55467906 45.99314685 18 45 C14.31126467 41.40307799 11.55817683 37.46136152 9 33 C9 32.34 9 31.68 9 31 C8.34 31 7.68 31 7 31 C7 35.62 7 40.24 7 45 C4.69 45 2.38 45 0 45 C0 30.15 0 15.3 0 0 Z " fill="#020202" transform="translate(213,42)"/>
<path d="M0 0 C2.64 0 5.28 0 8 0 C8.02505615 0.59014893 8.0501123 1.18029785 8.07592773 1.78833008 C8.19200052 4.46326814 8.31467572 7.1378638 8.4375 9.8125 C8.47681641 10.74126953 8.51613281 11.67003906 8.55664062 12.62695312 C8.61948242 13.9659668 8.61948242 13.9659668 8.68359375 15.33203125 C8.72025146 16.15421143 8.75690918 16.9763916 8.79467773 17.82348633 C8.93427772 20.17905178 8.93427772 20.17905178 10 23 C13.96 22.505 13.96 22.505 18 22 C18.90833969 19.27498092 19.18359985 17.37766029 19.31640625 14.55078125 C19.35830078 13.70322266 19.40019531 12.85566406 19.44335938 11.98242188 C19.48267578 11.10134766 19.52199219 10.22027344 19.5625 9.3125 C19.60568359 8.41982422 19.64886719 7.52714844 19.69335938 6.60742188 C19.79935353 4.40509892 19.90142051 2.20266527 20 0 C22.64 0 25.28 0 28 0 C28 9.57 28 19.14 28 29 C25.36 29 22.72 29 20 29 C19.67 28.34 19.34 27.68 19 27 C18.319375 27.495 17.63875 27.99 16.9375 28.5 C13.27568094 30.36986505 11.06785405 30.50848176 7 30 C2.95097715 27.57058629 1.44635684 25.41610738 0 21 C-0.22705078 18.50463867 -0.22705078 18.50463867 -0.1953125 15.91796875 C-0.18886719 14.98662109 -0.18242187 14.05527344 -0.17578125 13.09570312 C-0.15902344 12.13599609 -0.14226562 11.17628906 -0.125 10.1875 C-0.11597656 9.20845703 -0.10695312 8.22941406 -0.09765625 7.22070312 C-0.07417182 4.81354939 -0.0413284 2.40690257 0 0 Z " fill="#090909" transform="translate(134,58)"/>
<path d="M0 0 C2.79827632 1.11833382 5.39726245 2.48567997 8 4 C6.68 5.65 5.36 7.3 4 9 C3.278125 8.67 2.55625 8.34 1.8125 8 C-1.01697427 6.99396471 -3.02895466 6.83022598 -6 7 C-6 8.32 -6 9.64 -6 11 C-5.32453125 11.15855469 -4.6490625 11.31710938 -3.953125 11.48046875 C0.22900421 12.57434937 3.33782608 13.44562184 6.6875 16.25 C8.47511651 19.99548221 8.14954086 22.04845331 7 26 C4.73466753 28.86942113 3.48277163 29.83907612 0 31 C-6.07583783 31.54379271 -10.70377384 31.34498494 -16 28 C-15.75 26.125 -15.75 26.125 -15 24 C-12.9375 22.75 -12.9375 22.75 -11 22 C-10.01 22.66 -9.02 23.32 -8 24 C-4.87478167 24.16699232 -4.87478167 24.16699232 -2 24 C-2 22.68 -2 21.36 -2 20 C-3.15628906 19.61908203 -3.15628906 19.61908203 -4.3359375 19.23046875 C-5.33882813 18.88628906 -6.34171875 18.54210937 -7.375 18.1875 C-8.37273437 17.85105469 -9.37046875 17.51460937 -10.3984375 17.16796875 C-13 16 -13 16 -15 13 C-15.5 9.625 -15.5 9.625 -15 6 C-10.75225694 0.89228442 -6.45822097 -0.52082427 0 0 Z " fill="#080808" transform="translate(399,57)"/>
<path d="M0 0 C1.010625 -0.00773437 2.02125 -0.01546875 3.0625 -0.0234375 C6.36244598 0.42416156 8.28725269 1.49003955 11 3.375 C9.5625 5.9375 9.5625 5.9375 7 8.375 C4.87109375 8.34375 4.87109375 8.34375 2.5 7.9375 C-1.18718595 7.24483836 -1.18718595 7.24483836 -4.5625 8.875 C-6.52085302 12.28083133 -6.48384107 14.50427143 -6 18.375 C-5.11670357 20.91458234 -5.11670357 20.91458234 -3 22.375 C0.75684104 22.71043224 3.41996227 22.56834591 7 21.375 C8.32 22.695 9.64 24.015 11 25.375 C10 28.375 10 28.375 8.2734375 29.5390625 C3.95356741 31.12746834 -0.47586278 30.91265109 -5 30.375 C-10.14853681 27.8007316 -13.182008 24.82897599 -15 19.375 C-15.52438572 14.38044092 -15.55003096 10.49543344 -13.3125 5.9375 C-9.29849704 1.48955077 -5.99000408 -0.04584187 0 0 Z " fill="#050505" transform="translate(197,57.625)"/>
<path d="M0 0 C0 11.55 0 23.1 0 35 C-4 34 -4 34 -5 33 C-5.08767112 30.92737924 -5.10695873 28.85179706 -5.09765625 26.77734375 C-5.09443359 25.51728516 -5.09121094 24.25722656 -5.08789062 22.95898438 C-5.07953403 21.61848891 -5.07106907 20.27799412 -5.0625 18.9375 C-5.0574866 17.59310058 -5.05292342 16.2486994 -5.04882812 14.90429688 C-5.03699488 11.60282059 -5.02050971 8.30143197 -5 5 C-6.62752231 5.25523874 -8.25203196 5.52974494 -9.875 5.8125 C-10.77992187 5.96332031 -11.68484375 6.11414062 -12.6171875 6.26953125 C-15.34412478 6.83051301 -15.34412478 6.83051301 -17 10 C-17.46356672 13.63127267 -17.49645069 15.31967869 -15.3125 18.3125 C-12.80401508 20.14301602 -11.05917167 20.66009204 -8 21 C-8 22.65 -8 24.3 -8 26 C-11.41791075 26.41851968 -13.98813876 26.62620097 -16.98828125 24.76953125 C-19.97429286 22.26573269 -21.74586344 20.76240969 -23 17 C-23.50171564 10.87906919 -23.08833623 7.8832905 -19 3 C-15 0 -15 0 0 0 Z " fill="#F3F9F2" transform="translate(51,46)"/>
<path d="M0 0 C4 1 4 1 5 2 C5.08767112 4.07262076 5.10695873 6.14820294 5.09765625 8.22265625 C5.09443359 9.48271484 5.09121094 10.74277344 5.08789062 12.04101562 C5.07953403 13.38151109 5.07106907 14.72200588 5.0625 16.0625 C5.0574866 17.40689942 5.05292342 18.7513006 5.04882812 20.09570312 C5.03699488 23.39717941 5.02050971 26.69856803 5 30 C6.62752231 29.74476126 8.25203196 29.47025506 9.875 29.1875 C10.77992187 29.03667969 11.68484375 28.88585937 12.6171875 28.73046875 C15.34412478 28.16948699 15.34412478 28.16948699 17 25 C17.46356672 21.36872733 17.49645069 19.68032131 15.3125 16.6875 C12.80401508 14.85698398 11.05917167 14.33990796 8 14 C8 12.35 8 10.7 8 9 C13.29877676 8.49535459 15.90716575 9.63478073 20 13 C22.96819017 16.5618282 23.47095651 19.57367107 23.29296875 24.07421875 C22.6624379 28.21890818 20.15625423 31.36978814 17 34 C11.61483519 35.79505494 5.67646212 35 0 35 C0 23.45 0 11.9 0 0 Z " fill="#F4F9F3" transform="translate(54,37)"/>
<path d="M0 0 C2.64 0 5.28 0 8 0 C8 9.57 8 19.14 8 29 C5.36 29 2.72 29 0 29 C0 19.43 0 9.86 0 0 Z " fill="#101010" transform="translate(168,58)"/>
<path d="M0 0 C3.27209157 2.65304722 4.84452542 4.60072879 5.3125 8.8125 C4.91378388 12.8794044 4.11416229 14.35296205 1 17 C-2.48971293 17.74428485 -5.70033427 17.67079522 -8.9375 16 C-10.63437595 12.80588056 -11.13222615 9.57010618 -11 6 C-8.49572834 0.39520153 -6.0376402 -0.60376402 0 0 Z " fill="#F3F3F3" transform="translate(299,64)"/>
<path d="M0 0 C3.4304075 0.78613505 5.06465826 2.05899336 7.1484375 4.90234375 C8.67797525 8.10876005 8.03339347 10.40495605 7 13.6875 C5.375 16.125 5.375 16.125 3 17.6875 C-0.5 18.25 -0.5 18.25 -4 17.6875 C-7.18533648 14.99221529 -7.90100875 13.30344555 -8.5625 9.1875 C-8 5.6875 -8 5.6875 -5.875 2.75 C-3 0.6875 -3 0.6875 0 0 Z " fill="#F6F6F6" transform="translate(112,63.3125)"/>
<path d="M0 0 C3.1875 0.4375 3.1875 0.4375 6.0625 2.5 C8.1875 5.4375 8.1875 5.4375 8.75 8.9375 C8.08850875 13.05344555 7.37283648 14.74221529 4.1875 17.4375 C0.21401567 18.0760957 -1.83519318 18.10618361 -5.1875 15.8125 C-7.19756043 12.87471938 -7.73983979 10.9978504 -7.8125 7.4375 C-5.96021293 3.55651757 -4.42566054 0.68843608 0 0 Z " fill="#F6F6F6" transform="translate(259.8125,63.5625)"/>
<path d="M0 0 C3.5 0.625 3.5 0.625 5.9375 2.625 C8.09775838 6.7726961 8.09107389 8.97029312 7.5 13.625 C5.9375 16.125 5.9375 16.125 3.5 17.625 C-0.40614682 18.18302097 -2.55111671 18.20892818 -5.9375 16.125 C-8.10991681 12.64913311 -8.25495317 9.55542627 -7.5 5.625 C-5.43080054 1.65213703 -4.43484353 0.79193634 0 0 Z " fill="#F9F9F9" transform="translate(331.5,63.375)"/>
<path d="M0 0 C2 2 2 2 2.1953125 5.0390625 C2.17210938 6.22242188 2.14890625 7.40578125 2.125 8.625 C2.10695313 9.81351563 2.08890625 11.00203125 2.0703125 12.2265625 C2.04710938 13.14179687 2.02390625 14.05703125 2 15 C0.68 15 -0.64 15 -2 15 C-2.33 11.04 -2.66 7.08 -3 3 C-4.32 3.33 -5.64 3.66 -7 4 C-7.33 7.63 -7.66 11.26 -8 15 C-9.32 15 -10.64 15 -12 15 C-12 10.05 -12 5.1 -12 0 C-3.75 -1.17857143 -3.75 -1.17857143 0 0 Z " fill="#202020" transform="translate(119,35)"/>
<path d="M0 0 C0.99 0 1.98 0 3 0 C3.33 3.3 3.66 6.6 4 10 C5.32 10.33 6.64 10.66 8 11 C9.66342837 9.33657163 9.36048097 7.2174291 9.5625 4.9375 C9.64628906 4.01839844 9.73007813 3.09929688 9.81640625 2.15234375 C9.87699219 1.44207031 9.93757812 0.73179688 10 0 C10.99 0 11.98 0 13 0 C13 4.62 13 9.24 13 14 C3.57425743 15.34653465 3.57425743 15.34653465 1.1875 13.90625 C-0.52235719 11.16147925 -0.2907604 9.01357229 -0.1875 5.8125 C-0.16042969 4.72582031 -0.13335937 3.63914063 -0.10546875 2.51953125 C-0.07066406 1.68808594 -0.03585938 0.85664062 0 0 Z " fill="#050505" transform="translate(138,35)"/>
<path d="M0 0 C3.96 0 7.92 0 12 0 C12 0.99 12 1.98 12 3 C10.68 3 9.36 3 8 3 C8 6.96 8 10.92 8 15 C6.68 15 5.36 15 4 15 C4 11.04 4 7.08 4 3 C2.68 3 1.36 3 0 3 C0 2.01 0 1.02 0 0 Z " fill="#0D0D0D" transform="translate(123,35)"/>
<path d="M0 0 C3.63 0 7.26 0 11 0 C11 0.99 11 1.98 11 3 C9.68 3 8.36 3 7 3 C7 6.63 7 10.26 7 14 C6.01 14 5.02 14 4 14 C4 10.37 4 6.74 4 3 C2.68 3 1.36 3 0 3 C0 2.01 0 1.02 0 0 Z " fill="#000000" transform="translate(162,35)"/>
<path d="M0 0 C1.32 0 2.64 0 4 0 C4 4.95 4 9.9 4 15 C2.68 15 1.36 15 0 15 C0 10.05 0 5.1 0 0 Z " fill="#1E1E1E" transform="translate(155,35)"/>
<path d="M0 0 C0.598125 0.226875 1.19625 0.45375 1.8125 0.6875 C2.5 2.5 2.5 2.5 2.8125 4.6875 C1.625 6.5 1.625 6.5 -0.1875 7.6875 C-2.375 7.375 -2.375 7.375 -4.1875 6.6875 C-4.875 4.875 -4.875 4.875 -5.1875 2.6875 C-3.58493056 0.24147296 -2.95482043 -0.4221172 0 0 Z " fill="#A6A6A6" transform="translate(415.1875,80.3125)"/>
<path d="M0 0 C0.99 0 1.98 0 3 0 C3 4.62 3 9.24 3 14 C2.01 14 1.02 14 0 14 C0 9.38 0 4.76 0 0 Z " fill="#000000" transform="translate(100,35)"/>
</svg>
