<?xml version="1.0" encoding="UTF-8"?>
<svg version="1.1" xmlns="http://www.w3.org/2000/svg" width="266" height="190">
<path d="M0 0 C87.78 0 175.56 0 266 0 C266 62.7 266 125.4 266 190 C178.22 190 90.44 190 0 190 C0 127.3 0 64.6 0 0 Z " fill="#FEFEFE" transform="translate(0,0)"/>
<path d="M0 0 C1.04929687 -0.02578125 2.09859375 -0.0515625 3.1796875 -0.078125 C6.43056586 0.28404182 7.74850767 1.06867854 10.125 3.25 C10.455 2.26 10.785 1.27 11.125 0.25 C14.095 0.25 17.065 0.25 20.125 0.25 C20.24919787 5.94246586 20.3396204 11.63413197 20.3996582 17.32763672 C20.42470241 19.26169587 20.45874811 21.19566131 20.50219727 23.12939453 C20.5632965 25.91983231 20.59131051 28.7090121 20.61328125 31.5 C20.63908768 32.35553467 20.6648941 33.21106934 20.69148254 34.0925293 C20.69431955 40.2543531 19.1949123 44.55198722 15.125 49.25 C10.06227761 53.12387138 5.0535671 53.86669305 -1.2421875 53.65625 C-5.18723865 53.04751807 -7.64148832 51.54938608 -10.875 49.25 C-9.72326645 46.78199953 -8.82716435 45.20216435 -6.875 43.25 C-5.1997643 43.53718326 -3.53419896 43.88128912 -1.875 44.25 C4.03372728 44.72010081 4.03372728 44.72010081 9.125 42.25 C9.94084568 39.19091587 9.94084568 39.19091587 10.125 36.25 C9.3 36.745 8.475 37.24 7.625 37.75 C2.96385757 39.74763247 -1.07761628 40.28648082 -5.8359375 38.5234375 C-9.90573363 36.41126483 -12.05060738 34.39489201 -13.875 30.25 C-14.38681975 26.6198083 -14.43024391 23.03690524 -14.4375 19.375 C-14.47423828 18.40691406 -14.51097656 17.43882813 -14.54882812 16.44140625 C-14.58648888 10.29014978 -13.71709299 6.91683868 -9.36303711 2.48779297 C-6.3214584 -0.04228153 -3.87638442 0.05686628 0 0 Z " fill="#62BB48" transform="translate(88.875,74.75)"/>
<path d="M0 0 C5.12023605 2.543312 6.84697833 6.23729346 8.66015625 11.38671875 C8.66015625 15.01671875 8.66015625 18.64671875 8.66015625 22.38671875 C-0.24984375 22.38671875 -9.15984375 22.38671875 -18.33984375 22.38671875 C-16.86345372 27.44680514 -16.86345372 27.44680514 -13.33984375 29.38671875 C-7.7276864 30.04356333 -2.57529744 29.5911203 2.66015625 27.38671875 C3.98015625 29.03671875 5.30015625 30.68671875 6.66015625 32.38671875 C5.58266183 33.20694624 4.49786117 34.01758044 3.41015625 34.82421875 C2.806875 35.27667969 2.20359375 35.72914062 1.58203125 36.1953125 C-3.20650675 39.16381675 -8.8880465 38.84536201 -14.33984375 38.38671875 C-19.71798624 36.62847986 -23.26175668 33.04896789 -26.33984375 28.38671875 C-28.6324672 21.72850095 -28.15690268 13.53699483 -25.3984375 7.109375 C-19.93826376 -1.77599998 -9.37336567 -2.456792 0 0 Z " fill="#63BC4A" transform="translate(137.33984375,75.61328125)"/>
<path d="M0 0 C1.2684375 -0.00773437 2.536875 -0.01546875 3.84375 -0.0234375 C8.44745188 0.47824796 11.75115239 1.92767784 15.3125 4.875 C18.00444483 8.27535136 17.6157217 11.87473089 17.59765625 16.01171875 C17.59443359 17.31044922 17.59121094 18.60917969 17.58789062 19.94726562 C17.57953531 21.31901108 17.57107037 22.69075587 17.5625 24.0625 C17.55748335 25.44596195 17.55292073 26.82942563 17.54882812 28.21289062 C17.53702529 31.60030395 17.52056019 34.98763033 17.5 38.375 C14.53 38.375 11.56 38.375 8.5 38.375 C8.17 37.715 7.84 37.055 7.5 36.375 C6.67822266 37.10589844 6.67822266 37.10589844 5.83984375 37.8515625 C1.74073481 40.52043143 -2.77506656 39.89453206 -7.5 39.375 C-11.32992945 37.77919606 -13.28552289 35.83819614 -15.5 32.375 C-16.16367922 28.97364398 -16.1069482 25.78494532 -15.5 22.375 C-13.30977082 19.55075712 -11.66982793 17.95991397 -8.5 16.375 C-5.61629667 16.30305131 -2.75760336 16.28208292 0.125 16.3125 C0.92679688 16.31701172 1.72859375 16.32152344 2.5546875 16.32617188 C4.53649006 16.33796832 6.51825433 16.35590395 8.5 16.375 C7.6395861 12.04270285 7.6395861 12.04270285 5.5 8.375 C3.7534241 8.24898865 2.0010766 8.19920506 0.25 8.1875 C-0.70390625 8.17332031 -1.6578125 8.15914063 -2.640625 8.14453125 C-5.62699459 8.3852359 -7.79370741 9.125562 -10.5 10.375 C-11.82 9.055 -13.14 7.735 -14.5 6.375 C-13.5 3.375 -13.5 3.375 -10.90625 1.7109375 C-7.04081704 0.1949076 -4.14186797 -0.02525529 0 0 Z " fill="#63BC49" transform="translate(56.5,74.625)"/>
<path d="M0 0 C1.010625 0.66 2.02125 1.32 3.0625 2 C1.296875 5.828125 1.296875 5.828125 -0.8125 7.375 C-1.51375 7.58125 -2.215 7.7875 -2.9375 8 C-3.51242188 7.68546875 -4.08734375 7.3709375 -4.6796875 7.046875 C-7.63102116 5.67843656 -9.95053445 5.80463118 -13.1875 5.875 C-14.80398437 5.90207031 -14.80398437 5.90207031 -16.453125 5.9296875 C-17.68289062 5.96449219 -17.68289062 5.96449219 -18.9375 6 C-19.5975 7.32 -20.2575 8.64 -20.9375 10 C-16.68623397 12.83417736 -12.49276343 12.78650361 -7.48046875 13.33984375 C-3.78044421 14.02926398 -1.14879337 15.0544719 2.0625 17 C4.55705917 20.74183875 4.43856522 22.56243036 4.0625 27 C2.80057177 31.02239623 1.25221897 33.23165632 -2.3125 35.375 C-8.85206301 38.22403756 -16.33399587 38.33002898 -22.99609375 35.87109375 C-25.39059905 34.67893579 -27.67736117 33.42853018 -29.9375 32 C-29.9375 28 -29.9375 28 -28.6875 26.1875 C-26.9375 25 -26.9375 25 -25 25.1875 C-22.9375 26 -22.9375 26 -21.16015625 27.0390625 C-18.40969769 28.2281887 -16.29917389 28.23177684 -13.3125 28.1875 C-11.87003906 28.17783203 -11.87003906 28.17783203 -10.3984375 28.16796875 C-7.93339549 28.1584765 -7.93339549 28.1584765 -5.9375 27 C-5.28194881 24.47266765 -5.28194881 24.47266765 -4.9375 22 C-6.54818359 21.85304688 -6.54818359 21.85304688 -8.19140625 21.703125 C-9.62769245 21.55292514 -11.06388583 21.40183586 -12.5 21.25 C-13.20447266 21.188125 -13.90894531 21.12625 -14.63476562 21.0625 C-19.9581956 20.47373355 -23.47070839 18.97406278 -27.9375 16 C-29.74671642 13.6401525 -29.92613837 12.07466216 -30.375 9.125 C-29.77220979 4.81935565 -28.01116204 3.00535844 -24.9375 0 C-17.76544651 -3.71229529 -7.18003409 -3.62861938 0 0 Z " fill="#64BC4A" transform="translate(35.9375,77)"/>
<path d="M0 0 C5.28040889 1.92014869 5.28040889 1.92014869 7.13427734 4.70214844 C8.26463453 7.70240841 8.32668495 10.31178155 8.4140625 13.515625 C8.45273438 14.76601562 8.49140625 16.01640625 8.53125 17.3046875 C8.5621875 18.60664062 8.593125 19.90859375 8.625 21.25 C8.66367188 22.56742188 8.70234375 23.88484375 8.7421875 25.2421875 C8.83646182 28.49465161 8.9220675 31.74710996 9 35 C10.32 35.33 11.64 35.66 13 36 C12.67 36.99 12.34 37.98 12 39 C10.35 39 8.7 39 7 39 C6.34 37.68 5.68 36.36 5 35 C3.88625 35.66 2.7725 36.32 1.625 37 C-3.22028219 39.40973182 -7.66794949 39.92532148 -13 39 C-16.55680172 36.89495409 -17.69468936 35.91593192 -19 32 C-19.66079295 26.16299559 -19.66079295 26.16299559 -18.0234375 23.28125 C-15.67847153 20.34644597 -13.51224936 18.27556354 -10 17 C-7.37573495 16.86041143 -4.86707253 16.81068631 -2.25 16.875 C-1.55261719 16.88402344 -0.85523438 16.89304687 -0.13671875 16.90234375 C1.57566958 16.92580112 3.28788004 16.96166896 5 17 C4.71788123 15.3733152 4.42397625 13.74867104 4.125 12.125 C3.96257812 11.22007813 3.80015625 10.31515625 3.6328125 9.3828125 C3.16955297 6.83494012 3.16955297 6.83494012 1 5 C-1.5637893 4.64223834 -1.5637893 4.64223834 -4.4375 4.6875 C-5.40558594 4.67074219 -6.37367188 4.65398437 -7.37109375 4.63671875 C-10.02542667 4.77938747 -10.02542667 4.77938747 -11.78515625 6.39453125 C-13.07481489 7.99706023 -13.07481489 7.99706023 -14 10 C-14.99 10 -15.98 10 -17 10 C-16.70179167 6.42150008 -16.25754642 5.23773516 -13.5625 2.75 C-8.97380916 -0.38374009 -5.47102067 -0.51491959 0 0 Z " fill="#70756D" transform="translate(219,75)"/>
<path d="M0 0 C20 0 20 0 28 3 C32.80673743 8.05323679 33.28473453 11.45897366 33.22265625 18.234375 C32.87474727 22.5557707 31.23468039 25.35375949 28.6875 28.75 C23.69678904 32.44682293 18.03146566 32.25412181 12.125 32.125 C9.44375 32.08375 6.7625 32.0425 4 32 C4 38.93 4 45.86 4 53 C2.68 53 1.36 53 0 53 C0 35.51 0 18.02 0 0 Z M4 3 C4 11.58 4 20.16 4 29 C8.0528125 29.0928125 8.0528125 29.0928125 12.1875 29.1875 C13.02949951 29.21481201 13.87149902 29.24212402 14.73901367 29.27026367 C19.32885959 29.3210013 22.30200238 29.00842585 26 26 C29.10296263 22.84271855 29.43199443 20.42841803 29.4375 16.0625 C29.33091481 12.2578723 29.14940158 10.28731073 27.375 6.875 C22.43199389 2.97262676 17.21318981 2.72282892 11.125 2.875 C7.598125 2.936875 7.598125 2.936875 4 3 Z " fill="#686D66" transform="translate(165,60)"/>
<path d="M0 0 C2.68359375 1.53125 2.68359375 1.53125 5 4 C5.48722793 6.90521003 5.65912572 9.11689757 5.5625 12 C5.57345703 12.7115625 5.58441406 13.423125 5.59570312 14.15625 C5.54753378 17.59875262 5.25067369 19.65463952 3.2109375 22.46484375 C0.54909017 24.31308756 -1.69508399 24.5205098 -4.90234375 24.62890625 C-8.33048834 23.60110126 -9.8277664 21.79234132 -12 19 C-12.6640625 15.37109375 -12.6640625 15.37109375 -12.625 11.4375 C-12.63789062 10.13683594 -12.65078125 8.83617188 -12.6640625 7.49609375 C-12 4 -12 4 -9.6796875 1.56640625 C-6.14404377 -0.50034759 -4.0363912 -0.57662731 0 0 Z " fill="#FDFEFC" transform="translate(95,82)"/>
<path d="M0 0 C1.32 0 2.64 0 4 0 C5.08492639 2.77021936 6.16836957 5.54099334 7.25 8.3125 C7.72880615 9.53924438 7.72880615 9.53924438 8.21728516 10.79077148 C10.323561 16.20713835 12.35307992 21.64336309 14.2734375 27.12890625 C14.84876695 28.98316686 14.84876695 28.98316686 16 30 C16.31227539 29.12674072 16.62455078 28.25348145 16.94628906 27.35375977 C18.11150864 24.1192189 19.29076505 20.89055122 20.47998047 17.66479492 C20.99190582 16.26714458 21.49813117 14.86739282 21.99853516 13.46557617 C22.71853048 11.45172787 23.45863714 9.44630809 24.203125 7.44140625 C24.86296387 5.62684937 24.86296387 5.62684937 25.53613281 3.77563477 C27 1 27 1 29.17480469 0.09741211 C29.77711914 0.06526611 30.37943359 0.03312012 31 0 C28.64371689 8.83362027 25.3236339 17.29802154 22.01196289 25.80566406 C21.06039804 28.25541138 20.12081084 30.70954101 19.18164062 33.1640625 C18.57103609 34.73986391 17.95973215 36.31539452 17.34765625 37.890625 C17.07147964 38.6157428 16.79530304 39.3408606 16.51075745 40.08795166 C14.56966549 45.02867633 12.48730768 50.2190877 8.046875 53.3984375 C5.56833784 54.12686254 3.79889015 53.99983679 1.25 53.625 C0.45078125 53.51414063 -0.3484375 53.40328125 -1.171875 53.2890625 C-2.07679688 53.14597656 -2.07679688 53.14597656 -3 53 C-3 52.01 -3 51.02 -3 50 C-2.38511719 50.01160156 -1.77023438 50.02320313 -1.13671875 50.03515625 C0.07564453 50.04869141 0.07564453 50.04869141 1.3125 50.0625 C2.11300781 50.07410156 2.91351563 50.08570313 3.73828125 50.09765625 C6.16861334 50.09657855 6.16861334 50.09657855 9 49 C9.98940061 47.00480364 9.98940061 47.00480364 10.625 44.625 C10.86476562 43.83351562 11.10453125 43.04203125 11.3515625 42.2265625 C11.56554687 41.49179688 11.77953125 40.75703125 12 40 C12.33 39.01 12.66 38.02 13 37 C12.17378813 34.22304644 11.27278285 31.57286245 10.25390625 28.8671875 C9.96394272 28.0747464 9.67397919 27.2823053 9.37522888 26.46585083 C8.44627 23.93229824 7.5047936 21.4036198 6.5625 18.875 C5.62641283 16.33833561 4.69287152 13.80075175 3.76048279 11.26272583 C3.17895319 9.68251541 2.59475106 8.10328559 2.00770569 6.52511597 C0 1.10777515 0 1.10777515 0 0 Z " fill="#6D726B" transform="translate(230,76)"/>
<path d="M0 0 C1.28132812 0.00902344 2.56265625 0.01804687 3.8828125 0.02734375 C4.87023437 0.03894531 5.85765625 0.05054687 6.875 0.0625 C7.16281486 3.77211376 7.31232172 7.36126497 6.875 11.0625 C3.9531035 14.37924738 1.14183845 15.81199792 -3.28125 16.30078125 C-9.54849779 16.4992441 -9.54849779 16.4992441 -12.1875 14.5 C-13.48954848 11.11467395 -13.5745791 8.65913278 -13.125 5.0625 C-9.1560344 0.03514358 -6.20276277 -0.05638875 0 0 Z " fill="#FAFAFA" transform="translate(217.125,94.9375)"/>
<path d="M0 0 C6.6 0 13.2 0 20 0 C20 0.33 20 0.66 20 1 C13.73 1 7.46 1 1 1 C1 10.24 1 19.48 1 29 C1.66 29 2.32 29 3 29 C3 20.42 3 11.84 3 3 C3.33 3 3.66 3 4 3 C4 11.58 4 20.16 4 29 C8.62 29 13.24 29 18 29 C18 29.66 18 30.32 18 31 C13.38 31 8.76 31 4 31 C4 38.26 4 45.52 4 53 C2.68 53 1.36 53 0 53 C0 35.51 0 18.02 0 0 Z " fill="#828680" transform="translate(165,60)"/>
<path d="M0 0 C2.52762483 1.79180516 3.37901021 3.24431735 5 6 C5 6.99 5 7.98 5 9 C-1.6 9 -8.2 9 -15 9 C-15 4 -15 4 -13.125 1.6875 C-8.73614943 -0.68247931 -4.8808839 -1.08019562 0 0 Z " fill="#FCFDFC" transform="translate(134,82)"/>
<path d="M0 0 C1.39456452 0.00667256 2.78911118 0.01863093 4.18359375 0.03515625 C4.89451172 0.03966797 5.60542969 0.04417969 6.33789062 0.04882812 C8.09899388 0.06064761 9.86005411 0.07858362 11.62109375 0.09765625 C11.74609375 2.97265625 11.74609375 2.97265625 11.62109375 6.09765625 C9.62109375 8.09765625 9.62109375 8.09765625 6.65234375 8.36328125 C5.48703125 8.358125 4.32171875 8.35296875 3.12109375 8.34765625 C1.95578125 8.3528125 0.79046875 8.35796875 -0.41015625 8.36328125 C-3.37890625 8.09765625 -3.37890625 8.09765625 -5.37890625 6.09765625 C-4.65168497 0.13444176 -4.65168497 0.13444176 0 0 Z " fill="#FCFDFC" transform="translate(53.37890625,97.90234375)"/>
<path d="M0 0 C0.33 0 0.66 0 1 0 C1.33 8.58 1.66 17.16 2 26 C3.32 26.33 4.64 26.66 6 27 C5.67 27.99 5.34 28.98 5 30 C3.35 30 1.7 30 0 30 C-0.66 28.68 -1.32 27.36 -2 26 C-2.4846875 26.28875 -2.969375 26.5775 -3.46875 26.875 C-8.62101647 29.72856297 -12.12964063 30.41931138 -18 30 C-14.56555214 27.71036809 -11.12406553 26.44605107 -7.27734375 25 C-4.86149699 24.10359222 -4.86149699 24.10359222 -3 22 C-2.53709779 19.33757179 -2.53709779 19.33757179 -2.375 16.375 C-2.30023438 15.37210938 -2.22546875 14.36921875 -2.1484375 13.3359375 C-2.09945312 12.56507812 -2.05046875 11.79421875 -2 11 C-1.67 11 -1.34 11 -1 11 C-0.67 7.37 -0.34 3.74 0 0 Z " fill="#666C64" transform="translate(226,84)"/>
<path d="M0 0 C3.5 1.3125 3.5 1.3125 6 3 C6.33 3.99 6.66 4.98 7 6 C6.34 6.66 5.68 7.32 5 8 C4.45472656 7.51273437 3.90945312 7.02546875 3.34765625 6.5234375 C0.49457126 4.67201796 -1.18844768 4.59745672 -4.5625 4.625 C-5.98755859 4.61339844 -5.98755859 4.61339844 -7.44140625 4.6015625 C-10.37943373 5.05908739 -11.2236145 5.67310526 -13 8 C-13.33 8.66 -13.66 9.32 -14 10 C-14.99 10 -15.98 10 -17 10 C-16.70179167 6.42150008 -16.25754642 5.23773516 -13.5625 2.75 C-8.9781576 -0.38077042 -5.46720113 -0.52286991 0 0 Z " fill="#7E837C" transform="translate(219,75)"/>
<path d="M0 0 C0.33 0 0.66 0 1 0 C1.12375 0.969375 1.2475 1.93875 1.375 2.9375 C1.58125 3.948125 1.7875 4.95875 2 6 C2.66 6.33 3.32 6.66 4 7 C2.88950361 11.81215101 2.02163181 14.98377614 -2 18 C-7.05655835 20.14636389 -11.49125631 20.24362486 -16.875 20.125 C-18.050625 20.11146484 -18.050625 20.11146484 -19.25 20.09765625 C-21.16680055 20.07428063 -23.08344191 20.03841653 -25 20 C-25 19.67 -25 19.34 -25 19 C-20.38 19 -15.76 19 -11 19 C-11 18.34 -11 17.68 -11 17 C-9.27473958 16.34895833 -7.54947917 15.69791667 -5.82421875 15.046875 C-3.44959466 13.68413569 -2.39314176 12.35507298 -1 10 C-0.43015552 7.42126391 -0.43015552 7.42126391 -0.3125 4.75 C-0.24675781 3.85796875 -0.18101562 2.9659375 -0.11328125 2.046875 C-0.07589844 1.37140625 -0.03851563 0.6959375 0 0 Z " fill="#787D76" transform="translate(194,72)"/>
<path d="M0 0 C0 0.66 0 1.32 0 2 C-4.62816733 4.35582065 -8.75534135 4.23521469 -13.8125 4.125 C-14.99489258 4.11146484 -14.99489258 4.11146484 -16.20117188 4.09765625 C-18.13424666 4.07422504 -20.0671638 4.03835838 -22 4 C-22 3.67 -22 3.34 -22 3 C-17.38 3 -12.76 3 -8 3 C-8 2.34 -8 1.68 -8 1 C-5.07175348 0.02391783 -3.04386724 -0.08226668 0 0 Z " fill="#60665E" transform="translate(191,88)"/>
<path d="M0 0 C1.32 0.66 2.64 1.32 4 2 C3.21625 2.4125 2.4325 2.825 1.625 3.25 C-1.05891656 5.0392777 -1.88098949 6.04988139 -3 9 C-3.99 9 -4.98 9 -6 9 C-5.69381595 5.32579134 -5.24228216 4.21864487 -2.4375 1.6875 C-1.633125 1.130625 -0.82875 0.57375 0 0 Z " fill="#6B7169" transform="translate(208,76)"/>
<path d="M0 0 C0.88492145 2.47778006 1.11637742 3.66056586 0.25 6.1875 C-1 8 -1 8 -4 9 C-4.25 6.75 -4.25 6.75 -4 4 C-2 1.6875 -2 1.6875 0 0 Z " fill="#686E66" transform="translate(205,94)"/>
<path d="M0 0 C-0.33 0.99 -0.66 1.98 -1 3 C-3.375 3.1875 -3.375 3.1875 -6 3 C-6.66 2.01 -7.32 1.02 -8 0 C-5.13822943 -1.43088528 -3.06624227 -0.59991697 0 0 Z " fill="#6F746D" transform="translate(232,111)"/>
<path d="M0 0 C3.82097239 0.53069061 6.06171403 1.49701566 9 4 C6.03 3.67 3.06 3.34 0 3 C0 2.01 0 1.02 0 0 Z " fill="#7B8079" transform="translate(227,126)"/>
<path d="M0 0 C0 0.66 0 1.32 0 2 C-3.21451269 3.60725635 -6.43612536 3.05748185 -10 3 C-6.1865669 0.45771127 -4.5252563 -0.11908569 0 0 Z " fill="#646A62" transform="translate(218,111)"/>
<path d="M0 0 C1.5625 1.25 1.5625 1.25 3 3 C2.6875 5.1875 2.6875 5.1875 2 7 C0.68 6.67 -0.64 6.34 -2 6 C-1.34 4.02 -0.68 2.04 0 0 Z " fill="#727770" transform="translate(250,95)"/>
<path d="M0 0 C0.99 0.33 1.98 0.66 3 1 C1.71034824 2.37562854 0.37310707 3.70766393 -1 5 C-1.66 5 -2.32 5 -3 5 C-2.625 3.0625 -2.625 3.0625 -2 1 C-1.34 0.67 -0.68 0.34 0 0 Z " fill="#71766F" transform="translate(209,92)"/>
<path d="M0 0 C1.65 0 3.3 0 5 0 C5 0.66 5 1.32 5 2 C2.69 2.66 0.38 3.32 -2 4 C-2 3.34 -2 2.68 -2 2 C-1.34 2 -0.68 2 0 2 C0 1.34 0 0.68 0 0 Z " fill="#6C716A" transform="translate(186,88)"/>
</svg>
