<?xml version="1.0" encoding="UTF-8"?>
<svg version="1.1" xmlns="http://www.w3.org/2000/svg" width="422" height="119">
<path d="M0 0 C139.26 0 278.52 0 422 0 C422 39.27 422 78.54 422 119 C282.74 119 143.48 119 0 119 C0 79.73 0 40.46 0 0 Z " fill="#FDFDFD" transform="translate(0,0)"/>
<path d="M0 0 C1 1 1 1 1.09765625 2.84765625 C1.06510417 4.8984375 1.03255208 6.94921875 1 9 C1.99 9.33 2.98 9.66 4 10 C3.34 10.33 2.68 10.66 2 11 C6.7089559 11.08527284 11.16247369 11.15102933 15.8125 10.3125 C19.6016994 9.94100986 21.01658828 10.73983961 24 13 C23.34 16.63 22.68 20.26 22 24 C16.375 26.125 16.375 26.125 13 25 C13 24.34 13 23.68 13 23 C7.56530069 23.79922049 3.41091578 25.43655278 -0.3125 29.5625 C-1.99116117 31.8644712 -1.99116117 31.8644712 -3 34 C-2.39414063 33.7834375 -1.78828125 33.566875 -1.1640625 33.34375 C4.83479924 31.3502821 10.69561794 29.60875519 17 31 C21.87891809 33.56965489 25.92712295 36.39068443 29 41 C29.375 43.5 29.375 43.5 29 46 C27.4375 47.875 27.4375 47.875 25 49 C21.25 48.6875 21.25 48.6875 18 48 C17.67 47.01 17.34 46.02 17 45 C15.68 45.33 14.36 45.66 13 46 C13.4752588 47.64696604 13.95531891 49.29254728 14.4375 50.9375 C14.70433594 51.85402344 14.97117187 52.77054688 15.24609375 53.71484375 C15.79026051 55.9402493 15.79026051 55.9402493 17 57 C17.15193163 59.12119924 17.22183514 61.24855315 17.25 63.375 C17.27578125 64.53773437 17.3015625 65.70046875 17.328125 66.8984375 C17 70 17 70 15.6640625 71.890625 C13.03703611 73.64197593 11.0805057 73.36966068 8 73 C4.79994962 71.4371847 2.38511757 69.63618257 0 67 C-0.61875 67.825 -1.2375 68.65 -1.875 69.5 C-2.57625 70.325 -3.2775 71.15 -4 72 C-4.66 72 -5.32 72 -6 72 C-7.34919532 73.65385233 -8.68133728 75.321702 -10 77 C-13 79 -13 79 -15.5625 78.8125 C-18 78 -18 78 -20 75 C-20.2475 73.453125 -20.2475 73.453125 -20.5 71.875 C-20.665 70.92625 -20.83 69.9775 -21 69 C-21.66 68.67 -22.32 68.34 -23 68 C-23 67.34 -23 66.68 -23 66 C-24.62808594 66.2165625 -24.62808594 66.2165625 -26.2890625 66.4375 C-27.7343491 66.62519956 -29.17966307 66.81268838 -30.625 67 C-31.33785156 67.09539062 -32.05070312 67.19078125 -32.78515625 67.2890625 C-36.88821609 67.81606101 -40.85245742 68.10466984 -45 68 C-46.08642103 64.7407369 -45.92167347 64.1336898 -45 61 C-44.814375 59.7934375 -44.814375 59.7934375 -44.625 58.5625 C-43.89947283 55.58783859 -42.77550467 53.48570653 -41 51 C-40.34 51 -39.68 51 -39 51 C-39.33 50.34 -39.66 49.68 -40 49 C-40.8971875 48.814375 -40.8971875 48.814375 -41.8125 48.625 C-44.7402315 47.78850529 -46.05427807 46.29317228 -48 44 C-48 43.34 -48 42.68 -48 42 C-48.66 42 -49.32 42 -50 42 C-51.18306728 39.63386544 -51.13354608 38.13219264 -51.125 35.5 C-51.12757812 34.7059375 -51.13015625 33.911875 -51.1328125 33.09375 C-51 31 -51 31 -50 29 C-48.00390625 28.4375 -48.00390625 28.4375 -45.5625 28 C-41.86159602 27.37748838 -41.86159602 27.37748838 -39 25 C-38.67 25.99 -38.34 26.98 -38 28 C-37.98018066 27.43490723 -37.96036133 26.86981445 -37.93994141 26.28759766 C-37.84481764 23.73292003 -37.73508942 21.17907459 -37.625 18.625 C-37.57859375 17.29082031 -37.57859375 17.29082031 -37.53125 15.9296875 C-37.49257813 15.07890625 -37.45390625 14.228125 -37.4140625 13.3515625 C-37.3826416 12.56604004 -37.3512207 11.78051758 -37.31884766 10.97119141 C-37 9 -37 9 -35 7 C-31.375 7.375 -31.375 7.375 -28 8 C-26.515 13.94 -26.515 13.94 -25 20 C-24.236875 18.123125 -23.47375 16.24625 -22.6875 14.3125 C-17.88408857 2.49870433 -13.2008367 -2.63117188 0 0 Z " fill="#FAFAF3" transform="translate(71,16)"/>
<path d="M0 0 C3.125 -0.375 3.125 -0.375 6 0 C7 1 7 1 7.0625 4.0625 C7.041875 5.031875 7.02125 6.00125 7 7 C7.99 7 8.98 7 10 7 C9.34 8.32 8.68 9.64 8 11 C7.34 11 6.68 11 6 11 C6 21.23 6 31.46 6 42 C3.69 42 1.38 42 -1 42 C-1 31.33333333 -1 20.66666667 -1 10 C-1.66 10.33 -2.32 10.66 -3 11 C-3.25713775 12.99281757 -3.50836152 14.98829861 -3.65625 16.9921875 C-4 19 -4 19 -6 22 C-5.9094729 24.55340122 -5.9094729 24.55340122 -5.4375 27.3125 C-4.91623411 32.12467409 -4.91598553 35.02062649 -8 39 C-14.46808491 42.91464645 -20.63641814 42.79493213 -28 42 C-31.07195927 40.96857182 -33.24958617 39.76026485 -36 38 C-35.34 36.35 -34.68 34.7 -34 33 C-33.443125 33.2165625 -32.88625 33.433125 -32.3125 33.65625 C-26.30937294 35.84658014 -20.70786413 37.48314565 -14.5 35 C-14.005 34.67 -13.51 34.34 -13 34 C-12.86559222 31.57080135 -12.86559222 31.57080135 -14 29 C-17.44146032 27.40217914 -20.75159075 26.35086012 -24.390625 25.328125 C-28.08623692 24.2267837 -30.59461156 23.3460633 -33.5625 20.8125 C-35.46404136 17.09209299 -35.96941379 14.09308044 -35 10 C-32.40717975 6.6869519 -29.87820273 4.57356161 -26 3 C-18.19252441 2.21113174 -10.61549643 3.32099291 -3 5 C-2.62875 4.175 -2.2575 3.35 -1.875 2.5 C-1.25625 1.675 -0.6375 0.85 0 0 Z " fill="#F6F5F5" transform="translate(150,29)"/>
<path d="M0 0 C1 1 1 1 1.09765625 2.84765625 C1.06510417 4.8984375 1.03255208 6.94921875 1 9 C1.99 9.33 2.98 9.66 4 10 C3.01 10.495 3.01 10.495 2 11 C6.7089559 11.08527284 11.16247369 11.15102933 15.8125 10.3125 C19.6016994 9.94100986 21.01658828 10.73983961 24 13 C23.34 16.63 22.68 20.26 22 24 C16.375 26.125 16.375 26.125 13 25 C13 24.34 13 23.68 13 23 C7.56530069 23.79922049 3.41091578 25.43655278 -0.3125 29.5625 C-1.99116117 31.8644712 -1.99116117 31.8644712 -3 34 C-2.39414063 33.7834375 -1.78828125 33.566875 -1.1640625 33.34375 C4.83479924 31.3502821 10.69561794 29.60875519 17 31 C21.87891809 33.56965489 25.92712295 36.39068443 29 41 C29.25 43.5625 29.25 43.5625 29 46 C27 48 27 48 24.25 48.6875 C21 48 21 48 19.484375 46.09375 C18.4817078 44.46837369 17.4870968 42.83800407 16.5 41.203125 C14.43380245 38.16839734 12.4768739 37.0865231 9 36 C4.53174105 35.53455636 1.17384208 36.40996492 -3 38 C-4.5 36.6875 -4.5 36.6875 -6 35 C-6 34.01 -6 33.02 -6 32 C-7.32 32 -8.64 32 -10 32 C-10.66 30.35 -11.32 28.7 -12 27 C-12.33 28.32 -12.66 29.64 -13 31 C-13.81721717 29.89932004 -14.62859451 28.79430269 -15.4375 27.6875 C-15.88996094 27.07261719 -16.34242187 26.45773438 -16.80859375 25.82421875 C-19.41041856 21.84044109 -19.58367867 17.60366272 -19 13 C-15.97631963 3.60067359 -10.0945268 -1.48761448 0 0 Z " fill="#F7FBF7" transform="translate(71,16)"/>
<path d="M0 0 C3.625 0.375 3.625 0.375 7 1 C8.125 6.75 8.125 6.75 7 9 C6.56988181 13.21019538 6.5300365 16.88692855 8.1875 20.8125 C10.22728091 23.27430455 12.42176233 25.11858332 15 27 C12.03 26.67 9.06 26.34 6 26 C5.67 27.98 5.34 29.96 5 32 C8.46941546 31.54177532 11.67395049 31.10868317 15 30 C18.74961378 33.50770321 19.87052847 35.47223593 20.3125 40.6875 C20.22462455 46.65204643 17.79544206 51.15603247 13.6875 55.375 C8.00493372 58.81097031 2.48693365 59.53171587 -4 59 C-6.5 57.8125 -6.5 57.8125 -8 56 C-8.375 53.4375 -8.375 53.4375 -8 51 C-6 49 -6 49 -3.3203125 48.91015625 C-1.1951749 49.01147699 0.92982959 49.11563024 3.0546875 49.22265625 C6.40257383 48.9695667 7.54316432 48.19793147 10 46 C10.99 45.505 10.99 45.505 12 45 C12.33 44.01 12.66 43.02 13 42 C13.99 41.505 13.99 41.505 15 41 C15 40.01 15 39.02 15 38 C14.071875 38.33 13.14375 38.66 12.1875 39 C7.15467489 40.43649462 2.18764689 40.23039692 -3 40 C-4.19496094 39.95552734 -4.19496094 39.95552734 -5.4140625 39.91015625 C-7.5625 39.75 -7.5625 39.75 -11 39 C-12.5 36.9375 -12.5 36.9375 -13 35 C-13.66 35 -14.32 35 -15 35 C-16.18306728 32.63386544 -16.13354608 31.13219264 -16.125 28.5 C-16.12757812 27.7059375 -16.13015625 26.911875 -16.1328125 26.09375 C-16 24 -16 24 -15 22 C-13.00390625 21.4375 -13.00390625 21.4375 -10.5625 21 C-6.86159602 20.37748838 -6.86159602 20.37748838 -4 18 C-3.67 18.99 -3.34 19.98 -3 21 C-2.98018066 20.43490723 -2.96036133 19.86981445 -2.93994141 19.28759766 C-2.84481764 16.73292003 -2.73508942 14.17907459 -2.625 11.625 C-2.5940625 10.73554687 -2.563125 9.84609375 -2.53125 8.9296875 C-2.49257813 8.07890625 -2.45390625 7.228125 -2.4140625 6.3515625 C-2.3826416 5.56604004 -2.3512207 4.78051758 -2.31884766 3.97119141 C-2 2 -2 2 0 0 Z " fill="#FAF9F0" transform="translate(36,23)"/>
<path d="M0 0 C4.31142745 2.23862579 7.67676187 4.71094499 10 9 C10.77719311 14.6386153 10.76717724 19.3804036 8.3125 24.5625 C5.09585923 27.95301325 3.13020444 29.80293263 -1.66015625 30.24609375 C-9.37177342 30.41881772 -9.37177342 30.41881772 -13 28 C-13.33 32.29 -13.66 36.58 -14 41 C-16.31 41 -18.62 41 -21 41 C-21 27.8 -21 14.6 -21 1 C-19.02 1 -17.04 1 -15 1 C-15 1.99 -15 2.98 -15 4 C-14.01 3.34 -13.02 2.68 -12 2 C-7.7113997 -0.42587492 -4.89397387 -0.621457 0 0 Z " fill="#1F1A39" transform="translate(240,41)"/>
<path d="M0 0 C5.54630965 -0.8757331 9.14164174 1.25129727 13.65234375 4.18359375 C17.29607817 7.00278927 19.58632558 9.57334272 21 14 C22.34671449 25.14340227 22.34671449 25.14340227 19.6484375 28.86328125 C17.04072346 30.66149164 15.08599223 30.37031907 12 30 C8.79994962 28.4371847 6.38511757 26.63618257 4 24 C3.38125 24.825 2.7625 25.65 2.125 26.5 C1.42375 27.325 0.7225 28.15 0 29 C-0.66 29 -1.32 29 -2 29 C-3.34919532 30.65385233 -4.68133728 32.321702 -6 34 C-9 36 -9 36 -11.5625 35.8125 C-14 35 -14 35 -16 32 C-15.9375 29.5 -15.9375 29.5 -15 27 C-12.6875 25.4375 -12.6875 25.4375 -10 24 C-8.63015802 22.70420353 -7.2848951 21.38007251 -6 20 C-6.66 20 -7.32 20 -8 20 C-8 14.39 -8 8.78 -8 3 C-6.35 3.33 -4.7 3.66 -3 4 C-3 3.34 -3 2.68 -3 2 C-2.01 2 -1.02 2 0 2 C0 1.34 0 0.68 0 0 Z " fill="#FCFCF6" transform="translate(67,59)"/>
<path d="M0 0 C21.79069767 0 21.79069767 0 27.875 5.6875 C30.49761736 9.77569765 30.81896906 12.29328125 30 17 C29.03785746 20.33542749 28.10732892 22.18593627 25.2890625 24.2578125 C18.50455376 27.86444726 11.49524543 27.3838248 4 27 C4 30.96 4 34.92 4 39 C2.68 39 1.36 39 0 39 C0 26.13 0 13.26 0 0 Z " fill="#2B2643" transform="translate(303,32)"/>
<path d="M0 0 C3.0625 1.5625 3.0625 1.5625 5 3 C5.845625 2.34 6.69125 1.68 7.5625 1 C11.54663009 -1.31803932 13.46544483 -1.5668194 18 -1 C22.20637575 0.61783683 24.67122515 2.14390355 27 6 C27.34057617 8.56542969 27.34057617 8.56542969 27.29296875 11.421875 C27.2784668 12.95908203 27.2784668 12.95908203 27.26367188 14.52734375 C27.23853516 15.59082031 27.21339844 16.65429688 27.1875 17.75 C27.16719727 19.36841797 27.16719727 19.36841797 27.14648438 21.01953125 C27.11116584 23.6801942 27.06184199 26.33984296 27 29 C25.02 29 23.04 29 21 29 C20.98598145 28.16807129 20.98598145 28.16807129 20.97167969 27.31933594 C20.91784278 24.79533519 20.83422746 22.27316186 20.75 19.75 C20.73582031 18.87730469 20.72164062 18.00460938 20.70703125 17.10546875 C20.52638433 11.91775641 20.52638433 11.91775641 18.1796875 7.38671875 C15.92067945 5.66822614 15.92067945 5.66822614 12.375 6.0625 C8.74483076 6.6750845 8.74483076 6.6750845 7 10 C6.63566627 12.12337771 6.63566627 12.12337771 6.5859375 14.44921875 C6.54726562 15.29677734 6.50859375 16.14433594 6.46875 17.01757812 C6.42234375 18.33918945 6.42234375 18.33918945 6.375 19.6875 C6.33632812 20.58017578 6.29765625 21.47285156 6.2578125 22.39257812 C6.16359782 24.5948462 6.07798412 26.79710722 6 29 C3.69 29 1.38 29 -1 29 C-1.01458252 28.40985107 -1.02916504 27.81970215 -1.04418945 27.21166992 C-1.11868844 24.53628771 -1.21533995 21.86215108 -1.3125 19.1875 C-1.33505859 18.25873047 -1.35761719 17.32996094 -1.38085938 16.37304688 C-1.4340332 15.0340332 -1.4340332 15.0340332 -1.48828125 13.66796875 C-1.51446533 12.84578857 -1.54064941 12.0236084 -1.56762695 11.17651367 C-2.0975241 8.50907547 -2.79320098 7.56690697 -5 6 C-8.57756686 5.99917465 -8.57756686 5.99917465 -12 7 C-14.05127844 10.07691766 -14.27260872 10.93644999 -14.4140625 14.44921875 C-14.45273438 15.29677734 -14.49140625 16.14433594 -14.53125 17.01757812 C-14.57765625 18.33918945 -14.57765625 18.33918945 -14.625 19.6875 C-14.66367188 20.58017578 -14.70234375 21.47285156 -14.7421875 22.39257812 C-14.83640218 24.5948462 -14.92201588 26.79710722 -15 29 C-17.31 29 -19.62 29 -22 29 C-22 19.43 -22 9.86 -22 0 C-19.69 0 -17.38 0 -15 0 C-15 0.66 -15 1.32 -15 2 C-14.195625 1.484375 -13.39125 0.96875 -12.5625 0.4375 C-8.00840699 -1.40011648 -4.71431558 -1.16991287 0 0 Z " fill="#251F41" transform="translate(185,42)"/>
<path d="M0 0 C2.85904414 2.35076963 4.92670954 4.12116231 6.8125 7.3125 C6.8125 9.9525 6.8125 12.5925 6.8125 15.3125 C-0.7775 15.3125 -8.3675 15.3125 -16.1875 15.3125 C-13.58323476 20.35540766 -13.58323476 20.35540766 -9.1875 22.3125 C-5.62682364 22.17300959 -2.23283747 21.61509769 1.1875 20.625 C1.72375 20.521875 2.26 20.41875 2.8125 20.3125 C3.4725 20.9725 4.1325 21.6325 4.8125 22.3125 C4.75 24.3125 4.75 24.3125 3.8125 26.3125 C-1.84104964 29.11443497 -8.253897 29.45288399 -14.31640625 27.6953125 C-18.53081402 25.63817177 -20.79550322 22.71149681 -22.5859375 18.5234375 C-23.66630883 14.55272209 -23.50589008 11.20488977 -22.1875 7.3125 C-19.86887997 3.36559341 -17.36245093 0.88747599 -13.25 -1.125 C-8.14989099 -2.06175472 -4.6871474 -2.48143097 0 0 Z " fill="#1C163A" transform="translate(289.1875,42.6875)"/>
<path d="M0 0 C1.91015625 0.82421875 1.91015625 0.82421875 4.66015625 2.32421875 C4.00015625 3.97421875 3.34015625 5.62421875 2.66015625 7.32421875 C1.97566406 7.16050781 1.29117188 6.99679688 0.5859375 6.828125 C-2.71417155 6.25974841 -5.80538444 6.22791108 -9.15234375 6.26171875 C-10.89451172 6.27525391 -10.89451172 6.27525391 -12.671875 6.2890625 C-13.55230469 6.30066406 -14.43273437 6.31226563 -15.33984375 6.32421875 C-15.33984375 8.30421875 -15.33984375 10.28421875 -15.33984375 12.32421875 C-10.23841767 14.59151923 -5.08698125 16.48718942 0.20703125 18.26171875 C2.70110785 19.34195575 4.00562339 20.19018751 5.66015625 22.32421875 C6.70978432 26.29781073 6.88052893 28.65013762 5.59765625 32.57421875 C3.2340358 35.92903488 1.4387474 36.77620089 -2.33984375 38.32421875 C-10.60134835 39.38805519 -17.29955389 38.83000426 -24.33984375 34.32421875 C-23.67984375 32.67421875 -23.01984375 31.02421875 -22.33984375 29.32421875 C-21.78296875 29.54078125 -21.22609375 29.75734375 -20.65234375 29.98046875 C-14.64921669 32.17079889 -9.04770788 33.8073644 -2.83984375 31.32421875 C-2.34484375 30.99421875 -1.84984375 30.66421875 -1.33984375 30.32421875 C-1.20543597 27.8950201 -1.20543597 27.8950201 -2.33984375 25.32421875 C-5.78130407 23.72639789 -9.0914345 22.67507887 -12.73046875 21.65234375 C-16.42608067 20.55100245 -18.93445531 19.67028205 -21.90234375 17.13671875 C-23.80388511 13.41631174 -24.30925754 10.41729919 -23.33984375 6.32421875 C-17.41876902 -1.24159896 -9.10528643 -2.62974049 0 0 Z " fill="#211D3E" transform="translate(138.33984375,32.67578125)"/>
<path d="M0 0 C3.17052662 1.66545172 5.37546311 3.75092622 7 7 C7.08426094 8.6674606 7.10725143 10.33825187 7.09765625 12.0078125 C7.09443359 12.99394531 7.09121094 13.98007812 7.08789062 14.99609375 C7.07951172 16.02863281 7.07113281 17.06117187 7.0625 18.125 C7.05798828 19.16527344 7.05347656 20.20554687 7.04882812 21.27734375 C7.03701952 23.85161962 7.02055075 26.42578146 7 29 C5.68 29 4.36 29 3 29 C2.67 28.01 2.34 27.02 2 26 C1.360625 26.495 0.72125 26.99 0.0625 27.5 C-4.06528273 29.52177114 -7.48335283 29.83993789 -12 29 C-14.84145628 27.64305965 -15.87895252 26.50174831 -18 24 C-18.6875 21 -18.6875 21 -18 18 C-14.43659407 13.30153234 -14.43659407 13.30153234 -11.09008789 12.59912109 C-8.93529421 12.50850484 -6.84034841 12.56244625 -4.6875 12.6875 C-3.94693359 12.71005859 -3.20636719 12.73261719 -2.44335938 12.75585938 C-0.62802643 12.8144185 1.18625681 12.90409114 3 13 C1.90213575 7.59212615 1.90213575 7.59212615 -2 4 C-7.24801962 3.65586757 -11.05601526 4.0224061 -16 6 C-16.33 5.01 -16.66 4.02 -17 3 C-11.59293653 -0.50728442 -6.26130075 -1.02187401 0 0 Z " fill="#131023" transform="translate(354,42)"/>
<path d="M0 0 C3.8053125 -0.12375 3.8053125 -0.12375 7.6875 -0.25 C8.87218872 -0.30462402 8.87218872 -0.30462402 10.08081055 -0.36035156 C13.90260839 -0.42027101 15.63709783 -0.23202728 18.95703125 1.890625 C21.59553593 4.61489369 21.95178579 5.48892942 22.3125 9.3125 C21.95124058 13.57536111 20.98007946 15.01992054 18 18 C14.81453711 19.59273144 11.36800652 19.10141833 7.875 19.0625 C5.27625 19.041875 2.6775 19.02125 0 19 C0 12.73 0 6.46 0 0 Z " fill="#F9F9F9" transform="translate(307,36)"/>
<path d="M0 0 C1.98 0 3.96 0 6 0 C6 0.99 6 1.98 6 3 C6.680625 2.835 7.36125 2.67 8.0625 2.5 C11.4164822 1.92910941 14.60389805 1.93340977 18 2 C18 2.99 18 3.98 18 5 C17.36191406 5.10957031 16.72382813 5.21914063 16.06640625 5.33203125 C15.24011719 5.49058594 14.41382813 5.64914063 13.5625 5.8125 C12.73878906 5.96332031 11.91507813 6.11414062 11.06640625 6.26953125 C10.38449219 6.51058594 9.70257813 6.75164063 9 7 C7.77003445 10.68989666 7.64910101 14.15570657 8 18 C8.37125 18.7425 8.7425 19.485 9.125 20.25 C9.41375 20.8275 9.7025 21.405 10 22 C9.7009375 22.5465625 9.401875 23.093125 9.09375 23.65625 C7.60074828 26.8555394 7.57012894 29.73767916 7.375 33.25 C7.30023438 34.51328125 7.22546875 35.7765625 7.1484375 37.078125 C7.09945312 38.04234375 7.05046875 39.0065625 7 40 C4.69 40 2.38 40 0 40 C0 26.8 0 13.6 0 0 Z " fill="#1E193B" transform="translate(219,42)"/>
<path d="M0 0 C4.20637575 1.61783683 6.67122515 3.14390355 9 7 C9.34057617 9.56542969 9.34057617 9.56542969 9.29296875 12.421875 C9.28330078 13.44667969 9.27363281 14.47148438 9.26367188 15.52734375 C9.23853516 16.59082031 9.21339844 17.65429688 9.1875 18.75 C9.16719727 20.36841797 9.16719727 20.36841797 9.14648438 22.01953125 C9.11116584 24.6801942 9.06184199 27.33984296 9 30 C7.02 30 5.04 30 3 30 C2.98598145 29.16807129 2.98598145 29.16807129 2.97167969 28.31933594 C2.91784278 25.79533519 2.83422746 23.27316186 2.75 20.75 C2.73582031 19.87730469 2.72164062 19.00460938 2.70703125 18.10546875 C2.52638433 12.91775641 2.52638433 12.91775641 0.1796875 8.38671875 C-2.07932055 6.66822614 -2.07932055 6.66822614 -5.625 7.0625 C-9.25516924 7.6750845 -9.25516924 7.6750845 -11 11 C-11.36433373 13.12337771 -11.36433373 13.12337771 -11.4140625 15.44921875 C-11.45273438 16.29677734 -11.49140625 17.14433594 -11.53125 18.01757812 C-11.57765625 19.33918945 -11.57765625 19.33918945 -11.625 20.6875 C-11.66367188 21.58017578 -11.70234375 22.47285156 -11.7421875 23.39257812 C-11.83640218 25.5948462 -11.92201588 27.79710722 -12 30 C-13.98 30 -15.96 30 -18 30 C-18 28.35 -18 26.7 -18 25 C-16.68 24.67 -15.36 24.34 -14 24 C-13.505 19.545 -13.505 19.545 -13 15 C-13.66 15 -14.32 15 -15 15 C-14.649375 14.0925 -14.29875 13.185 -13.9375 12.25 C-13.03531221 9.12241564 -12.86618493 7.94791919 -14 5 C-8.93059372 0.86443172 -6.67147725 -0.44476515 0 0 Z " fill="#191339" transform="translate(203,41)"/>
<path d="M0 0 C2.31 0 4.62 0 7 0 C7 13.53 7 27.06 7 41 C4.69 41 2.38 41 0 41 C0 27.47 0 13.94 0 0 Z " fill="#1F1B33" transform="translate(255,30)"/>
<path d="M0 0 C1.32 0 2.64 0 4 0 C7.3 7.59 10.6 15.18 14 23 C17.84062209 15.39261393 21.6261073 7.82743106 25 0 C26.32 0.33 27.64 0.66 29 1 C26.9463224 5.61237665 24.88307423 10.22030554 22.81103516 14.82446289 C22.10822407 16.38969725 21.40799271 17.9560927 20.71044922 19.52368164 C19.70444113 21.7832533 18.6890751 24.03841726 17.671875 26.29296875 C17.36441345 26.98899704 17.0569519 27.68502533 16.74017334 28.40214539 C12.33791895 38.09131666 12.33791895 38.09131666 8 39.77734375 C1.27002477 40.31626755 1.27002477 40.31626755 -2 38 C-1.67 37.01 -1.34 36.02 -1 35 C0.98567708 35.29296875 2.97135417 35.5859375 4.95703125 35.87890625 C7.2025342 36.13904799 7.2025342 36.13904799 10 35 C12.08077136 26.99628878 9.15254812 21.8545731 5.5625 14.6875 C4.51748868 12.54783614 3.47690042 10.40600462 2.44140625 8.26171875 C1.97420166 7.32287842 1.50699707 6.38403809 1.02563477 5.41674805 C0 3 0 3 0 0 Z " fill="#1F1C31" transform="translate(364,42)"/>
<path d="M0 0 C2.02734375 0.62890625 2.02734375 0.62890625 4.08984375 2.12890625 C5.5392478 5.99398371 5.66923139 9.56112991 5.02734375 13.62890625 C3.58984375 16.19140625 3.58984375 16.19140625 1.02734375 17.62890625 C-2.1056438 18.22676076 -4.8449169 18.27741 -7.97265625 17.62890625 C-10.68460687 15.51226187 -11.67274671 14.05924406 -12.37890625 10.69140625 C-12.6751572 6.78089369 -12.16985584 4.94060883 -10.03515625 1.56640625 C-6.28091801 -0.80872406 -4.27730777 -0.78998529 0 0 Z " fill="#F6F5F7" transform="translate(237.97265625,47.37109375)"/>
<path d="M0 0 C0 0.66 0 1.32 0 2 C-0.7425 2.53625 -1.485 3.0725 -2.25 3.625 C-6.20193082 7.03803116 -8.39735254 10.85892838 -9.38671875 16.015625 C-9.66011511 20.804775 -8.269829 24.13879966 -5.875 28.23828125 C-5 30 -5 30 -5 33 C-6.125 34.6875 -6.125 34.6875 -8 36 C-11.1875 36.1875 -11.1875 36.1875 -14 36 C-14 35.01 -14 34.02 -14 33 C-15.65002828 31.64613064 -17.3174387 30.31321858 -19 29 C-19.93385816 26.19842552 -20.16354595 24.34552197 -20.1875 21.4375 C-20.20167969 20.65246094 -20.21585938 19.86742188 -20.23046875 19.05859375 C-20 17 -20 17 -18 15 C-17.34 16.98 -16.68 18.96 -16 21 C-15.67386719 20.19175781 -15.34773438 19.38351563 -15.01171875 18.55078125 C-14.35623047 16.94783203 -14.35623047 16.94783203 -13.6875 15.3125 C-13.25824219 14.25675781 -12.82898437 13.20101563 -12.38671875 12.11328125 C-10.01573883 6.79026436 -6.77028667 0 0 0 Z " fill="#FAFBF2" transform="translate(62,15)"/>
<path d="M0 0 C1.98 0.66 3.96 1.32 6 2 C6.33 1.34 6.66 0.68 7 0 C8.50884213 3.43368594 10.00553401 6.87253549 11.5 10.3125 C11.92925781 11.28896484 12.35851562 12.26542969 12.80078125 13.27148438 C13.20683594 14.20927734 13.61289062 15.14707031 14.03125 16.11328125 C14.40830078 16.97735596 14.78535156 17.84143066 15.17382812 18.73168945 C16 21 16 21 16 24 C15.34 23.67 14.68 23.34 14 23 C14 22.34 14 21.68 14 21 C13.34 21 12.68 21 12 21 C11.9175 21.5775 11.835 22.155 11.75 22.75 C10.7973369 25.60798931 9.13946926 26.92954588 7 29 C7 29.66 7 30.32 7 31 C3.89448334 31 2.64738916 30.4606285 0 29 C1.32 29 2.64 29 4 29 C3.94785974 25.45715903 3.8527229 21.91670685 3.75 18.375 C3.73582031 17.37597656 3.72164063 16.37695312 3.70703125 15.34765625 C3.50666061 9.29646282 2.9711601 5.65419964 -1 1 C-0.67 0.67 -0.34 0.34 0 0 Z " fill="#F7F6F8" transform="translate(357,42)"/>
<path d="M0 0 C3.56483579 3.46319078 5.94704938 5.87591353 6.03515625 11.07421875 C5.54735828 18.08185305 3.25133294 23.1321258 -1.9375 28 C-5 30 -5 30 -7.75 30 C-10 29 -10 29 -12 26 C-11.9375 23.5 -11.9375 23.5 -11 21 C-8.75 19.4375 -8.75 19.4375 -6 18 C-2.44768577 15.47024016 -2.44768577 15.47024016 0 12 C0.07065617 9.95944995 0.08421976 7.91665743 0.0625 5.875 C0.05347656 4.77929688 0.04445313 3.68359375 0.03515625 2.5546875 C0.02355469 1.71164063 0.01195312 0.86859375 0 0 Z " fill="#D0733D" transform="translate(63,65)"/>
<path d="M0 0 C1.22203125 -0.00773437 2.4440625 -0.01546875 3.703125 -0.0234375 C4.70859375 0.10804687 5.7140625 0.23953125 6.75 0.375 C8.75 3.375 8.75 3.375 8.5 5.9375 C7.75 8.375 7.75 8.375 5.75 10.375 C3.74598989 10.06669075 1.74708656 9.72536606 -0.25 9.375 C-7.06766418 8.41006758 -7.06766418 8.41006758 -13.22265625 10.796875 C-15.79001752 13.74902506 -17.56095744 16.85680996 -19.25 20.375 C-19.94838332 13.97315294 -18.70664067 10.67394704 -15.1484375 5.35546875 C-10.74354083 0.76023704 -6.18193615 -0.03945917 0 0 Z " fill="#C47948" transform="translate(84.25,28.625)"/>
<path d="M0 0 C0.33 0 0.66 0 1 0 C0.97141421 6.17453151 -0.13886459 10.53937805 -4.1328125 15.3359375 C-8.42541154 19.16155924 -13.702826 20.10339567 -19.3125 20.375 C-24.65666879 19.83152521 -24.65666879 19.83152521 -27 17 C-27.375 14.4375 -27.375 14.4375 -27 12 C-25 10 -25 10 -22 9.8125 C-19 10 -19 10 -17 11 C-12.00470984 11.37700303 -8.88794827 11.2740617 -5 8 C-3.55711217 5.93349116 -2.26258787 3.83460844 -1.015625 1.64453125 C-0.51289062 0.83048828 -0.51289062 0.83048828 0 0 Z " fill="#CC723F" transform="translate(55,62)"/>
<path d="M0 0 C2.67697833 0.96942046 5.35296656 1.94138973 8.02734375 2.91796875 C9.82932784 3.57388149 11.63345826 4.22399084 13.44140625 4.86328125 C18.78071121 6.78071121 18.78071121 6.78071121 21 9 C20.875 11.5 20.875 11.5 20 14 C17.17133195 16.37608117 13.8439944 16.41242374 10.234375 16.32421875 C6.20473232 15.73949787 2.40569822 14.22823582 -1 12 C-1.33 11.01 -1.66 10.02 -2 9 C-0.02 7.68 1.96 6.36 4 5 C2.68 5 1.36 5 0 5 C0 3.35 0 1.7 0 0 Z " fill="#F0EFF2" transform="translate(117,50)"/>
<path d="M0 0 C6.04826484 0.26881177 10.2379446 0.91823823 15 5 C18.44846938 9.75650949 19.14848058 13.83451851 19.1875 19.625 C19.20876953 21.06746094 19.20876953 21.06746094 19.23046875 22.5390625 C19 25 19 25 17 27 C14 27.25 14 27.25 11 27 C10.34 26.34 9.68 25.68 9 25 C9.1228154 21.85518142 9.42614969 18.79440682 9.81054688 15.67382812 C10.25645668 11.12014314 9.86030828 8.60186968 7 5 C4.50240018 3.30117552 4.50240018 3.30117552 2 2 C1.34 1.34 0.68 0.68 0 0 Z " fill="#C07640" transform="translate(68,60)"/>
<path d="M0 0 C5.73236598 -0.45858928 8.55296547 0.34354939 13 4 C15.5 6.375 15.5 6.375 17 9 C16.25 12.3125 16.25 12.3125 15 15 C14.28070313 14.50886719 14.28070313 14.50886719 13.546875 14.0078125 C9.79520582 12.52325629 6.24319259 12.78891127 2.25 12.875 C1.06083984 12.88853516 1.06083984 12.88853516 -0.15234375 12.90234375 C-2.10169281 12.92582988 -4.05088575 12.96169863 -6 13 C-4.46254701 8.61035619 -3.20786093 7.10393047 1 5 C0.67 3.35 0.34 1.7 0 0 Z " fill="#1A1536" transform="translate(279,41)"/>
<path d="M0 0 C2 2 2 2 2.6875 4.75 C2 8 2 8 0.09375 9.55078125 C-1.52819331 10.56976187 -3.15732526 11.57737775 -4.79296875 12.57421875 C-7.63435918 14.40980726 -8.92417796 15.77253387 -10 19 C-9.95092372 23.0815105 -9.14125227 27.08713508 -8 31 C-12.84233815 26.5399517 -14.73028772 23.74207488 -15.375 17.1875 C-15.21168976 11.77784839 -13.13774346 7.41887137 -9.57421875 3.38671875 C-6.48793884 0.55563511 -4.18153918 -0.81307706 0 0 Z " fill="#C87642" transform="translate(67,16)"/>
<path d="M0 0 C4.88523462 2.53434286 8.93536013 5.4030402 12 10 C12.25 12.5625 12.25 12.5625 12 15 C10 17 10 17 7.25 17.6875 C4 17 4 17 2.484375 15.09375 C1.4817078 13.46837369 0.4870968 11.83800407 -0.5 10.203125 C-2.56619755 7.16839734 -4.5231261 6.0865231 -8 5 C-11.56365653 4.71490748 -14.58528657 4.94931894 -18 6 C-12.52771194 0.23191259 -7.87685588 -1.38481995 0 0 Z " fill="#DD6A28" transform="translate(88,47)"/>
<path d="M0 0 C3.3450637 1.25439889 3.8109406 2.84089109 5.5 5.9375 C8.64703394 9.39952953 8.64703394 9.39952953 12.5 11.9375 C17.03113746 12.08606188 21.07882704 12.04279324 25.5 10.9375 C22.25157434 14.41795607 19.75676784 16.64028402 14.94921875 17.2734375 C6.69925524 17.39012722 2.99241344 15.76115342 -3.4375 10.5625 C-5.5 7.9375 -5.5 7.9375 -6 4.75 C-5.835 3.821875 -5.67 2.89375 -5.5 1.9375 C-2.5 -0.0625 -2.5 -0.0625 0 0 Z " fill="#E06822" transform="translate(26.5,46.0625)"/>
<path d="M0 0 C3.625 0.375 3.625 0.375 7 1 C8.125 6.75 8.125 6.75 7 9 C6.56988181 13.21019538 6.5300365 16.88692855 8.1875 20.8125 C10.22728091 23.27430455 12.42176233 25.11858332 15 27 C10.1216948 26.97831864 6.22111125 26.78954245 2.5625 23.3125 C-2.28967332 17.60010759 -2.22968581 11.83315255 -2.265625 4.609375 C-2 2 -2 2 0 0 Z " fill="#E06D29" transform="translate(36,23)"/>
<path d="M0 0 C2.31 0 4.62 0 7 0 C7 9.57 7 19.14 7 29 C4.69 29 2.38 29 0 29 C0 19.43 0 9.86 0 0 Z " fill="#231E40" transform="translate(149,42)"/>
<path d="M0 0 C1.98 0 3.96 0 6 0 C5.67 0.99 5.34 1.98 5 3 C4.67 2.67 4.34 2.34 4 2 C3.01 2.66 2.02 3.32 1 4 C1.66 4 2.32 4 3 4 C3 4.66 3 5.32 3 6 C3.66 6 4.32 6 5 6 C5.33 6.66 5.66 7.32 6 8 C6.66 7.01 7.32 6.02 8 5 C8.99 5.33 9.98 5.66 11 6 C10.51917969 6.45890625 10.03835937 6.9178125 9.54296875 7.390625 C7.20598469 11.34279045 7.42921637 15.23474371 7.3125 19.75 C7.27833984 20.63816406 7.24417969 21.52632812 7.20898438 22.44140625 C7.12671286 24.62747803 7.05749828 26.81315951 7 29 C4.69 29 2.38 29 0 29 C0 19.43 0 9.86 0 0 Z " fill="#191536" transform="translate(163,42)"/>
<path d="M0 0 C2.53736271 -0.3062852 4.77916926 -0.41846993 7.3125 -0.375 C8.62863281 -0.38273437 9.94476563 -0.39046875 11.30078125 -0.3984375 C16.26976176 0.1367642 18.74711114 1.81483486 22.3125 5.1875 C24.50559625 8.84266041 24.6524289 11.89211435 24 16 C22.71419411 19.785984 21.80450831 21.48001292 18.4375 23.65625 C14.15112116 25.33183446 10.66943759 25.33769751 6.125 25.1875 C4.949375 25.16719727 4.949375 25.16719727 3.75 25.14648438 C1.83303218 25.11141789 -0.08357751 25.05762072 -2 25 C-2 24.34 -2 23.68 -2 23 C-1.13117188 22.96261719 -0.26234375 22.92523438 0.6328125 22.88671875 C9.27690283 22.55070973 9.27690283 22.55070973 17 19 C19.50031654 15.24952518 19.53603554 13.44143734 19 9 C17.00481924 6.34105288 15.40457521 4.36177637 12.08911133 3.5078125 C9.9437739 3.2859419 7.84398368 3.20484437 5.6875 3.1875 C4.94693359 3.16236328 4.20636719 3.13722656 3.44335938 3.11132812 C1.62947031 3.05281557 -0.18531903 3.02345651 -2 3 C-1.34 2.01 -0.68 1.02 0 0 Z " fill="#1B1730" transform="translate(309,33)"/>
<path d="M0 0 C1.29388401 2.45156969 1.07612266 3.67847491 0.44140625 6.359375 C0.15136719 7.14828125 -0.13867188 7.9371875 -0.4375 8.75 C-0.86869141 9.94882812 -0.86869141 9.94882812 -1.30859375 11.171875 C-1.53675781 11.77515625 -1.76492187 12.3784375 -2 13 C-5.28696233 13.79953138 -6.71023192 14.09658936 -10 13 C-10 12.34 -10 11.68 -10 11 C-15.43469931 11.79922049 -19.58908422 13.43655278 -23.3125 17.5625 C-24.99116117 19.8644712 -24.99116117 19.8644712 -26 22 C-24.68 22.33 -23.36 22.66 -22 23 C-22.66 23.99 -23.32 24.98 -24 26 C-26.475 25.01 -26.475 25.01 -29 24 C-28.8797134 18.22624338 -27.19048777 14.76852612 -23.23046875 10.5390625 C-18.16773517 7.04568766 -12.05665271 8.72113184 -6.3125 9.5 C-5.549375 9.665 -4.78625 9.83 -4 10 C-1.66608797 7.21885944 -1.66608797 7.21885944 -2.375 4.3125 C-2.58125 3.549375 -2.7875 2.78625 -3 2 C-11.44333791 1.57308966 -17.75903687 1.36578359 -25 6 C-23.84826645 3.53199953 -22.95216435 1.95216435 -21 0 C-18.56028668 -0.52529713 -16.21632662 -0.9280994 -13.75 -1.25 C-12.44546875 -1.44078125 -11.1409375 -1.6315625 -9.796875 -1.828125 C-5.88898672 -2.00502529 -3.48864742 -1.75489537 0 0 Z " fill="#FAECD5" transform="translate(94,28)"/>
<path d="M0 0 C0 0.66 0 1.32 0 2 C-0.99 2.66 -1.98 3.32 -3 4 C-2.67 4.66 -2.34 5.32 -2 6 C-0.02 5.67 1.96 5.34 4 5 C4 5.66 4 6.32 4 7 C7.3 7 10.6 7 14 7 C14.33 8.32 14.66 9.64 15 11 C15.680625 11.721875 16.36125 12.44375 17.0625 13.1875 C19.76318106 17.10784347 19.36233975 20.38016819 19 25 C18.01 25 17.02 25 16 25 C16.33 24.67 16.66 24.34 17 24 C17.17970247 21.0049589 17.18811154 19.67587953 16 17 C11.66131519 12.49578304 7.02885653 9.57080179 0.6875 9.4375 C-2.89180445 9.70035517 -5.72605292 10.50333848 -9 12 C-11.8125 12.125 -11.8125 12.125 -14 12 C-12.39435332 6.38023661 -8.68061888 3.56369435 -3.75 0.6875 C-2 0 -2 0 0 0 Z " fill="#FAF7F0" transform="translate(82,38)"/>
<path d="M0 0 C1.75570313 0.04060547 1.75570313 0.04060547 3.546875 0.08203125 C4.43890625 0.11683594 5.3309375 0.15164062 6.25 0.1875 C6.4921875 5.828125 6.4921875 5.828125 4.3125 9.0625 C0.68421899 11.58008275 -1.36794563 11.71490006 -5.6640625 11.65625 C-8.22700179 11.08030859 -9.15887489 10.24951883 -10.75 8.1875 C-11.1875 5.6875 -11.1875 5.6875 -10.75 3.1875 C-7.42321911 -0.22022447 -4.61352351 -0.13840571 0 0 Z " fill="#E9E8ED" transform="translate(350.75,56.8125)"/>
<path d="M0 0 C1.98 0 3.96 0 6 0 C5.01 0.66 4.02 1.32 3 2 C3.763125 2.433125 4.52625 2.86625 5.3125 3.3125 C8.94021468 5.59036736 10.63566401 6.90699202 12 11 C12.15163158 14.8666053 11.96607377 18.55142091 11.4375 22.375 C11.2209375 24.169375 11.2209375 24.169375 11 26 C12.11836224 27.34404775 12.11836224 27.34404775 15 27.125 C17.88163776 27.34404775 17.88163776 27.34404775 19 26 C19.07258946 23.81360547 19.08373783 21.62499611 19.0625 19.4375 C19.05347656 18.23996094 19.04445313 17.04242188 19.03515625 15.80859375 C19.02355469 14.88175781 19.01195313 13.95492187 19 13 C19.66 13.33 20.32 13.66 21 14 C21.0810206 16.10353495 21.13919907 18.20795952 21.1875 20.3125 C21.23970703 22.07013672 21.23970703 22.07013672 21.29296875 23.86328125 C21 27 21 27 19.671875 28.89453125 C17.0481249 30.62939405 15.06322988 30.37508937 12 30 C8.80136342 28.22297968 7.26765167 26.41290833 6 23 C4.76608013 18.26997384 5.28935316 15.52818281 7 11 C7 10.01 7 9.02 7 8 C6.46375 7.731875 5.9275 7.46375 5.375 7.1875 C2.58333333 5.79166667 -0.20833333 4.39583333 -3 3 C-2.01 2.67 -1.02 2.34 0 2 C0 1.34 0 0.68 0 0 Z " fill="#FBECD7" transform="translate(67,59)"/>
<path d="M0 0 C4.36028623 2.26399477 7.23006531 4.95163391 10 9 C10 9.66 10 10.32 10 11 C9.34 11.66 8.68 12.32 8 13 C7.835 14.155 7.67 15.31 7.5 16.5 C7 20 7 20 5 22 C2.61093097 19.61093097 2.71466319 18.83074704 2.5 15.5625 C2.26931817 12.06190316 2.03849437 11.05774155 0 8 C-0.99 7.67 -1.98 7.34 -3 7 C-3 5.68 -3 4.36 -3 3 C-4.670625 3.309375 -4.670625 3.309375 -6.375 3.625 C-7.57125 3.74875 -8.7675 3.8725 -10 4 C-10.66 3.34 -11.32 2.68 -12 2 C-8.28037149 -0.47975234 -4.31579369 -0.67486349 0 0 Z " fill="#28243E" transform="translate(240,41)"/>
<path d="M0 0 C3 2.1875 3 2.1875 5 5 C5 6.65 5 8.3 5 10 C0.05 10 -4.9 10 -10 10 C-10.33 9.01 -10.66 8.02 -11 7 C-11.66 6.67 -12.32 6.34 -13 6 C-12.67 5.67 -12.34 5.34 -12 5 C-12.66 4.34 -13.32 3.68 -14 3 C-8.98247224 -0.01051666 -5.7122265 -0.7253621 0 0 Z " fill="#EDECF1" transform="translate(352,45)"/>
<path d="M0 0 C3.25511789 0.56122722 4.99840071 1.33120095 7 4 C8 6.1875 8 6.1875 8 9 C6.01978862 13.14708203 3.47920177 16.96914898 0 20 C-3.47325181 21.1577506 -6.36067448 21.06866652 -10 21 C-7.66330145 19.11266655 -5.54966678 17.78807848 -2.8125 16.5 C0.29704483 15.25596622 0.29704483 15.25596622 1 12 C1.66 11.67 2.32 11.34 3 11 C3 10.01 3 9.02 3 8 C1.35 8.33 -0.3 8.66 -2 9 C-0.35 7.68 1.3 6.36 3 5 C2.505 5.165 2.01 5.33 1.5 5.5 C-3.47674372 6.49534874 -7.47533323 6.76233339 -12 4.5 C-12.66 4.005 -13.32 3.51 -14 3 C-12 1 -12 1 -9.1796875 0.8046875 C-8.08914062 0.82789063 -6.99859375 0.85109375 -5.875 0.875 C-4.77929688 0.89304688 -3.68359375 0.91109375 -2.5546875 0.9296875 C-1.71164063 0.95289063 -0.86859375 0.97609375 0 1 C0 0.67 0 0.34 0 0 Z " fill="#F4E9D8" transform="translate(48,53)"/>
<path d="M0 0 C0.99 0 1.98 0 3 0 C4.46098845 2.9219769 4.11134901 5.49893475 4.09765625 8.7578125 C4.0962413 9.42086395 4.09482635 10.08391541 4.09336853 10.76705933 C4.08776754 12.88641863 4.075215 15.00567259 4.0625 17.125 C4.05748512 18.56119639 4.05292219 19.99739444 4.04882812 21.43359375 C4.03779782 24.95576345 4.02053259 28.47787145 4 32 C3.01 32 2.02 32 1 32 C1.33 33.65 1.66 35.3 2 37 C1.34 37 0.68 37 0 37 C0 24.79 0 12.58 0 0 Z " fill="#1E173F" transform="translate(256,32)"/>
<path d="M0 0 C0.8971875 0.5259375 0.8971875 0.5259375 1.8125 1.0625 C0.74 1.454375 -0.3325 1.84625 -1.4375 2.25 C-5.15043224 3.8809844 -7.14435398 5.44770319 -9.1875 9.0625 C-10.64303913 14.0056621 -10.64009428 17.83407546 -8.375 22.5 C-7.11707523 24.74791611 -6.02733272 26.22266728 -4.1875 28.0625 C-5.875 28.75 -5.875 28.75 -8.1875 29.0625 C-10.9375 27.625 -10.9375 27.625 -13.1875 26.0625 C-13.8475 27.3825 -14.5075 28.7025 -15.1875 30.0625 C-14.8575 22.8025 -14.5275 15.5425 -14.1875 8.0625 C-13.5275 8.0625 -12.8675 8.0625 -12.1875 8.0625 C-12.1875 7.4025 -12.1875 6.7425 -12.1875 6.0625 C-11.5275 5.4025 -10.8675 4.7425 -10.1875 4.0625 C-10.1875 3.4025 -10.1875 2.7425 -10.1875 2.0625 C-8.8675 2.0625 -7.5475 2.0625 -6.1875 2.0625 C-5.8575 1.4025 -5.5275 0.7425 -5.1875 0.0625 C-2.1875 -0.9375 -2.1875 -0.9375 0 0 Z " fill="#FAFAF7" transform="translate(277.1875,40.9375)"/>
<path d="M0 0 C4.6002998 0.11245177 8.65521909 0.25676352 12.375 3.1875 C15.00659173 6.00706257 16.32142859 8.56655847 18 12 C20.05093145 13.40466953 20.05093145 13.40466953 22 14 C19.69 13.67 17.38 13.34 15 13 C14.67 12.01 14.34 11.02 14 10 C12.68 10.33 11.36 10.66 10 11 C10.33 12.98 10.66 14.96 11 17 C10.45730469 16.59007813 9.91460937 16.18015625 9.35546875 15.7578125 C8.64003906 15.21898438 7.92460938 14.68015625 7.1875 14.125 C6.47980469 13.59132813 5.77210937 13.05765625 5.04296875 12.5078125 C3.39543703 11.29185219 1.70375789 10.13583859 0 9 C1.98 9 3.96 9 6 9 C6.33 7.68 6.66 6.36 7 5 C3.37 5 -0.26 5 -4 5 C-3.34 4.34 -2.68 3.68 -2 3 C-0.68 3 0.64 3 2 3 C2 2.34 2 1.68 2 1 C1.34 0.67 0.68 0.34 0 0 Z " fill="#F7FCF1" transform="translate(74,51)"/>
<path d="M0 0 C3.125 -0.375 3.125 -0.375 6 0 C7 1 7 1 7.0625 4.0625 C7.041875 5.031875 7.02125 6.00125 7 7 C7.99 7 8.98 7 10 7 C9.34 8.32 8.68 9.64 8 11 C7.34 11 6.68 11 6 11 C6 11.66 6 12.32 6 13 C3.69 13 1.38 13 -1 13 C-0.67 11.35 -0.34 9.7 0 8 C-2.37374861 7.66574265 -2.37374861 7.66574265 -5 8 C-6.84315671 9.9004467 -6.84315671 9.9004467 -8 12 C-8.66 11.67 -9.32 11.34 -10 11 C-9.67 10.195625 -9.34 9.39125 -9 8.5625 C-7.93940959 6.30318875 -7.93940959 6.30318875 -8 5 C-7.236875 5.103125 -6.47375 5.20625 -5.6875 5.3125 C-4.800625 5.209375 -3.91375 5.10625 -3 5 C-2.525625 4.175 -2.05125 3.35 -1.5625 2.5 C-1.046875 1.675 -0.53125 0.85 0 0 Z " fill="#E1E0E2" transform="translate(150,29)"/>
<path d="M0 0 C0 0.66 0 1.32 0 2 C0.99 2.33 1.98 2.66 3 3 C3.33 5.64 3.66 8.28 4 11 C2.0625 10.1875 2.0625 10.1875 0 9 C-0.33 8.01 -0.66 7.02 -1 6 C-2.37285156 6.01740234 -2.37285156 6.01740234 -3.7734375 6.03515625 C-5.55621094 6.04869141 -5.55621094 6.04869141 -7.375 6.0625 C-8.55835938 6.07410156 -9.74171875 6.08570312 -10.9609375 6.09765625 C-14 6 -14 6 -16 5 C-16 3.68 -16 2.36 -16 1 C-10.62915894 0.31798844 -5.41499441 -0.11521265 0 0 Z " fill="#F7FAF2" transform="translate(48,82)"/>
<path d="M0 0 C1.21816406 0.03480469 1.21816406 0.03480469 2.4609375 0.0703125 C3.68683594 0.09738281 3.68683594 0.09738281 4.9375 0.125 C5.87722656 0.15980469 5.87722656 0.15980469 6.8359375 0.1953125 C6.8359375 0.8553125 6.8359375 1.5153125 6.8359375 2.1953125 C7.4959375 2.5253125 8.1559375 2.8553125 8.8359375 3.1953125 C6.81770833 3.61848958 4.79947917 4.04166667 2.78125 4.46484375 C0.46547201 5.11840088 0.46547201 5.11840088 -1.1640625 8.1953125 C-1.52839623 10.31869021 -1.52839623 10.31869021 -1.578125 12.64453125 C-1.61679688 13.49208984 -1.65546875 14.33964844 -1.6953125 15.21289062 C-1.72625 16.09396484 -1.7571875 16.97503906 -1.7890625 17.8828125 C-1.82773438 18.77548828 -1.86640625 19.66816406 -1.90625 20.58789062 C-2.00046468 22.7901587 -2.08607838 24.99241972 -2.1640625 27.1953125 C-4.1440625 27.1953125 -6.1240625 27.1953125 -8.1640625 27.1953125 C-8.1640625 25.5453125 -8.1640625 23.8953125 -8.1640625 22.1953125 C-6.8440625 21.8653125 -5.5240625 21.5353125 -4.1640625 21.1953125 C-3.6690625 16.7403125 -3.6690625 16.7403125 -3.1640625 12.1953125 C-3.8240625 12.1953125 -4.4840625 12.1953125 -5.1640625 12.1953125 C-4.8134375 11.2878125 -4.4628125 10.3803125 -4.1015625 9.4453125 C-3.1584526 6.17586486 -3.2809007 5.28637882 -4.1640625 2.1953125 C-2.1640625 0.1953125 -2.1640625 0.1953125 0 0 Z " fill="#151030" transform="translate(193.1640625,43.8046875)"/>
<path d="M0 0 C0.8353125 0.30744141 0.8353125 0.30744141 1.6875 0.62109375 C6.83617554 2.43878495 11.56276016 3.50570547 17 4 C15.02 4.99 15.02 4.99 13 6 C13 6.66 13 7.32 13 8 C13.61875 7.79375 14.2375 7.5875 14.875 7.375 C15.57625 7.25125 16.2775 7.1275 17 7 C17.66 7.66 18.32 8.32 19 9 C10.82632933 9.4485551 5.02436254 9.40744316 -2 5 C-1.34 3.35 -0.68 1.7 0 0 Z " fill="#1A1533" transform="translate(116,62)"/>
<path d="M0 0 C2.9375 2.375 2.9375 2.375 5 5 C5 5.66 5 6.32 5 7 C-0.61 7 -6.22 7 -12 7 C-9.29735184 0.2433796 -7.07111224 -0.8534101 0 0 Z " fill="#F3F1F7" transform="translate(285,47)"/>
<path d="M0 0 C3.625 0.375 3.625 0.375 7 1 C7 1.33 7 1.66 7 2 C4.69 2.66 2.38 3.32 0 4 C-0.25030977 6.41619823 -0.25030977 6.41619823 0 9 C4.37819011 11.91879341 8.51788475 11.44570491 13.5234375 10.546875 C15.69351044 10.06767908 17.84888745 9.55769585 20 9 C20 9.66 20 10.32 20 11 C20.66 11 21.32 11 22 11 C23.625 13 23.625 13 25 15 C24.01 15.99 23.02 16.98 22 18 C21.67 17.01 21.34 16.02 21 15 C20.34 14.67 19.68 14.34 19 14 C19 13.34 19 12.68 19 12 C17.91460937 12.144375 16.82921875 12.28875 15.7109375 12.4375 C14.2656509 12.62519956 12.82033693 12.81268838 11.375 13 C10.66214844 13.09539062 9.94929688 13.19078125 9.21484375 13.2890625 C5.11178391 13.81606101 1.14754258 14.10466984 -3 14 C-4.08642103 10.7407369 -3.92167347 10.1336898 -3 7 C-2.855625 6.13375 -2.71125 5.2675 -2.5625 4.375 C-2 2 -2 2 0 0 Z " fill="#FCEEDE" transform="translate(29,70)"/>
<path d="M0 0 C1.32 0 2.64 0 4 0 C4.33 3.96 4.66 7.92 5 12 C5.0825 11.071875 5.165 10.14375 5.25 9.1875 C6 6 6 6 8.0625 4.125 C8.701875 3.75375 9.34125 3.3825 10 3 C10 6 10 6 9.0625 7.75 C7.63860793 10.76530084 7.37988357 13.70767573 7 17 C5.68 17 4.36 17 3 17 C2.34 15.35 1.68 13.7 1 12 C0.34 12 -0.32 12 -1 12 C-2.42857143 3.42857143 -2.42857143 3.42857143 0 0 Z " fill="#F9F1DE" transform="translate(58,31)"/>
<path d="M0 0 C4.17910132 1.60734666 6.62941515 3.18072441 9 7 C8.34 8.32 7.68 9.64 7 11 C6.34 9.68 5.68 8.36 5 7 C4.236875 7.226875 3.47375 7.45375 2.6875 7.6875 C0 8 0 8 -1.8125 6.6875 C-3 5 -3 5 -3 3 C-5.64 3 -8.28 3 -11 3 C-7.47227003 -0.38662077 -4.77824435 -0.49430114 0 0 Z " fill="#26213E" transform="translate(203,41)"/>
<path d="M0 0 C2.44728507 2.44728507 2.2419134 3.39147373 2.5625 6.75 C3.14877689 10.14942061 3.5823274 11.60915041 6.12890625 13.9921875 C8.37189486 15.459432 10.60942753 16.78995714 13 18 C12.34 18.99 11.68 19.98 11 21 C7.875 21.1875 7.875 21.1875 5 21 C5 20.01 5 19.02 5 18 C3.34997172 16.64613064 1.6825613 15.31321858 0 14 C-0.94238698 11.17283905 -1.13465647 9.36823877 -1.125 6.4375 C-1.12757812 5.65246094 -1.13015625 4.86742187 -1.1328125 4.05859375 C-1 2 -1 2 0 0 Z " fill="#F4E4CC" transform="translate(43,30)"/>
<path d="M0 0 C1.15242188 0.00902344 2.30484375 0.01804688 3.4921875 0.02734375 C4.36101562 0.03894531 5.22984375 0.05054688 6.125 0.0625 C6.24746094 0.67738281 6.36992188 1.29226562 6.49609375 1.92578125 C7.01181897 4.27309517 7.01181897 4.27309517 9.1875 6.25 C11.88818106 10.17034347 11.48733975 13.44266819 11.125 18.0625 C10.135 18.0625 9.145 18.0625 8.125 18.0625 C8.455 17.7325 8.785 17.4025 9.125 17.0625 C9.30463156 14.0686406 9.30810248 12.73894073 8.125 10.0625 C4.40087862 6.12513649 0.43932935 3.38813428 -4.984375 2.625 C-7.65276003 2.625 -10.22687725 2.74532941 -12.875 3.0625 C-12.875 2.4025 -12.875 1.7425 -12.875 1.0625 C-8.52167264 0.22226812 -4.43057481 -0.04520995 0 0 Z " fill="#FBF2E0" transform="translate(89.875,44.9375)"/>
<path d="M0 0 C0.66 0.99 1.32 1.98 2 3 C2.66 3 3.32 3 4 3 C4.66 2.01 5.32 1.02 6 0 C6 1.98 6 3.96 6 6 C-1.59 6 -9.18 6 -17 6 C-16.67 5.01 -16.34 4.02 -16 3 C-16 3.66 -16 4.32 -16 5 C-14.35 4.67 -12.7 4.34 -11 4 C-12.32 3.34 -13.64 2.68 -15 2 C-10.05 2 -5.1 2 0 2 C0 1.34 0 0.68 0 0 Z " fill="#140E33" transform="translate(290,52)"/>
<path d="M0 0 C1.9375 0.375 1.9375 0.375 4 1 C5.44207941 3.88415883 5.09394887 6.41721528 5.0625 9.625 C5.05347656 10.81351563 5.04445313 12.00203125 5.03515625 13.2265625 C5.02355469 14.14179687 5.01195313 15.05703125 5 16 C0.25 15.125 0.25 15.125 -2 14 C-1.67 13.01 -1.34 12.02 -1 11 C-0.77820215 9.10787263 -0.59385985 7.21115528 -0.4375 5.3125 C-0.35371094 4.31863281 -0.26992187 3.32476562 -0.18359375 2.30078125 C-0.12300781 1.54152344 -0.06242187 0.78226562 0 0 Z " fill="#DC6C26" transform="translate(80,69)"/>
<path d="M0 0 C0 0.99 0 1.98 0 3 C-0.99 3.66 -1.98 4.32 -3 5 C-3.41666667 7.5 -3.41666667 7.5 -3 10 C-0.4345406 12.5654594 1.47686668 12.54046087 5 13 C5 13.66 5 14.32 5 15 C-0.86772899 16.52560954 -0.86772899 16.52560954 -3.80078125 15.1640625 C-6.61728363 13.0533662 -7.90167962 11.42903441 -8.6875 8 C-7.59671872 3.24022713 -5.05286126 0 0 0 Z " fill="#282537" transform="translate(344,55)"/>
<path d="M0 0 C0.33 0 0.66 0 1 0 C1 13.53 1 27.06 1 41 C0.34 40.01 -0.32 39.02 -1 38 C-1.66 37.67 -2.32 37.34 -3 37 C-2.67 36.46375 -2.34 35.9275 -2 35.375 C-0.77300796 32.4608939 -0.85766714 30.13132292 -1 27 C-1.99 29.31 -2.98 31.62 -4 34 C-5.31157516 31.37684968 -4.89649988 29.76966564 -4.5625 26.875 C-4.40974609 25.50988281 -4.40974609 25.50988281 -4.25390625 24.1171875 C-4.17011719 23.41851562 -4.08632812 22.71984375 -4 22 C-3.34 22 -2.68 22 -2 22 C-0.82530556 19.65061112 -0.79965111 18.04926795 -0.68359375 15.4296875 C-0.64169922 14.53378906 -0.59980469 13.63789062 -0.55664062 12.71484375 C-0.49766602 11.30912109 -0.49766602 11.30912109 -0.4375 9.875 C-0.37272461 8.45767578 -0.37272461 8.45767578 -0.30664062 7.01171875 C-0.20040928 4.67462908 -0.09836824 2.3374317 0 0 Z " fill="#E5E3ED" transform="translate(254,30)"/>
<path d="M0 0 C1.98 0 3.96 0 6 0 C6 9.57 6 19.14 6 29 C4.02 29 2.04 29 0 29 C0 21.41 0 13.82 0 6 C0.33 6 0.66 6 1 6 C1.16789126 8.43742131 1.33436133 10.87492546 1.5 13.3125 C1.54769531 14.00279297 1.59539062 14.69308594 1.64453125 15.40429688 C2.19896941 23.60206117 2.19896941 23.60206117 1 26 C2.32 26.33 3.64 26.66 5 27 C5 18.42 5 9.84 5 1 C3.35 1 1.7 1 0 1 C0 0.67 0 0.34 0 0 Z " fill="#0F0B26" transform="translate(150,42)"/>
<path d="M0 0 C0.33 0 0.66 0 1 0 C0.7242265 6.2049038 -0.10640794 10.10160999 -4 15 C-4.99 14.34 -5.98 13.68 -7 13 C-9.80610004 12.79512179 -9.80610004 12.79512179 -12.875 12.9375 C-17.53937864 13.07193698 -21.75367812 13.12316094 -26 11 C-25 10 -25 10 -22.0625 9.875 C-19 10 -19 10 -17 11 C-12.00470984 11.37700303 -8.88794827 11.2740617 -5 8 C-3.55711217 5.93349116 -2.26258787 3.83460844 -1.015625 1.64453125 C-0.51289062 0.83048828 -0.51289062 0.83048828 0 0 Z " fill="#C57842" transform="translate(55,62)"/>
<path d="M0 0 C0.33 0 0.66 0 1 0 C1.06316406 0.80824219 1.12632813 1.61648437 1.19140625 2.44921875 C1.71194216 8.64955308 1.71194216 8.64955308 4.69140625 13.875 C6.8101328 15.36180676 6.8101328 15.36180676 10 17 C10 17.33 10 17.66 10 18 C2.33183857 17.96591928 2.33183857 17.96591928 -0.93359375 15.59765625 C-2.3665059 14.13725418 -3.69349705 12.57450356 -5 11 C-4.67 10.01 -4.34 9.02 -4 8 C-4 8.66 -4 9.32 -4 10 C-3.01 10 -2.02 10 -1 10 C-1.01160156 9.36191406 -1.02320313 8.72382812 -1.03515625 8.06640625 C-1.04869141 6.82697266 -1.04869141 6.82697266 -1.0625 5.5625 C-1.07410156 4.73878906 -1.08570313 3.91507813 -1.09765625 3.06640625 C-1 1 -1 1 0 0 Z " fill="#C4784A" transform="translate(41,32)"/>
<path d="M0 0 C0.33 1.98 0.66 3.96 1 6 C-0.57201172 5.89171875 -0.57201172 5.89171875 -2.17578125 5.78125 C-3.5546839 5.6874471 -4.93359035 5.59370001 -6.3125 5.5 C-7.00279297 5.45230469 -7.69308594 5.40460937 -8.40429688 5.35546875 C-11.27662359 5.16120511 -14.12013788 5 -17 5 C-16.67 3.68 -16.34 2.36 -16 1 C-10.65097076 0.40801257 -5.39115154 -0.14187241 0 0 Z " fill="#E06A28" transform="translate(89,30)"/>
<path d="M0 0 C0.66 0.33 1.32 0.66 2 1 C1.39724807 6.1233914 -0.73231969 10.1372626 -4.75 13.4375 C-8.30501294 14.32625323 -11.40140727 13.59976545 -15 13 C-15 11.68 -15 10.36 -15 9 C-13.01432292 9.29296875 -11.02864583 9.5859375 -9.04296875 9.87890625 C-6.7974658 10.13904799 -6.7974658 10.13904799 -4 9 C-2.87914688 6.6569191 -2.87914688 6.6569191 -2 4 C-1.34786461 2.65949948 -0.68620031 1.32338632 0 0 Z " fill="#1E1C29" transform="translate(378,68)"/>
<path d="M0 0 C2.97 0.495 2.97 0.495 6 1 C5.835 1.639375 5.67 2.27875 5.5 2.9375 C4.94333373 6.34708087 5.05831335 9.47563592 5.2578125 12.9140625 C4.93307791 15.54146058 4.00503699 16.35188059 2 18 C1.34 17.67 0.68 17.34 0 17 C0 11.39 0 5.78 0 0 Z " fill="#DBCEBB" transform="translate(59,62)"/>
<path d="M0 0 C0.33 1.32 0.66 2.64 1 4 C0.01 4.33 -0.98 4.66 -2 5 C-2.12375 5.61875 -2.2475 6.2375 -2.375 6.875 C-3 9 -3 9 -5.5625 10.6875 C-6.7690625 11.3371875 -6.7690625 11.3371875 -8 12 C-8 12.33 -8 12.66 -8 13 C-10.31 13 -12.62 13 -15 13 C-15 12.67 -15 12.34 -15 12 C-13.35 12 -11.7 12 -10 12 C-10 11.34 -10 10.68 -10 10 C-9.34 10 -8.68 10 -8 10 C-7.9175 9.38125 -7.835 8.7625 -7.75 8.125 C-7 6 -7 6 -4.953125 4.8671875 C-4.30859375 4.58101563 -3.6640625 4.29484375 -3 4 C-3.72445312 4.09539062 -4.44890625 4.19078125 -5.1953125 4.2890625 C-10.65280121 4.91485454 -14.86019239 5.36153322 -20 3 C-17.43335871 1.71667936 -15.67490819 1.97169257 -12.8125 2.0625 C-8.09167584 2.1184045 -4.43165371 1.5756991 0 0 Z " fill="#F7ECDD" transform="translate(51,60)"/>
<path d="M0 0 C0.90105469 0.00902344 1.80210938 0.01804688 2.73046875 0.02734375 C3.41753906 0.03894531 4.10460937 0.05054688 4.8125 0.0625 C4.8125 1.0525 4.8125 2.0425 4.8125 3.0625 C3.8225 3.5575 3.8225 3.5575 2.8125 4.0625 C3.4725 4.7225 4.1325 5.3825 4.8125 6.0625 C4.4825 7.0525 4.1525 8.0425 3.8125 9.0625 C3.338125 8.588125 2.86375 8.11375 2.375 7.625 C-1.7620034 5.10243695 -6.72293388 4.53920172 -11.46875 5.546875 C-12.31953125 5.80210938 -12.31953125 5.80210938 -13.1875 6.0625 C-8.77664445 1.41321983 -6.38358264 -0.08290367 0 0 Z " fill="#C2794A" transform="translate(83.1875,46.9375)"/>
<path d="M0 0 C0.33 0 0.66 0 1 0 C1 1.65 1 3.3 1 5 C3.31 5.33 5.62 5.66 8 6 C7.4375 7.9375 7.4375 7.9375 6 10 C2.375 10.75 2.375 10.75 -1 11 C-1.33 10.01 -1.66 9.02 -2 8 C-2.66 8 -3.32 8 -4 8 C-3.4021799 4.65220745 -2.20964398 2.57791798 0 0 Z " fill="#F9F0DF" transform="translate(53,73)"/>
<path d="M0 0 C6.27 0 12.54 0 19 0 C19 0.33 19 0.66 19 1 C18.25234375 1.06058594 17.5046875 1.12117188 16.734375 1.18359375 C15.74953125 1.26738281 14.7646875 1.35117187 13.75 1.4375 C12.28820312 1.55931641 12.28820312 1.55931641 10.796875 1.68359375 C7.77228378 1.96346926 7.77228378 1.96346926 4 3 C4 9.6 4 16.2 4 23 C3.67 23 3.34 23 3 23 C2.92652344 21.39318359 2.92652344 21.39318359 2.8515625 19.75390625 C2.77654706 18.35674361 2.7009987 16.9596095 2.625 15.5625 C2.5940625 14.85544922 2.563125 14.14839844 2.53125 13.41992188 C2.42719371 11.60760812 2.22080108 9.80182012 2 8 C1.34 7.67 0.68 7.34 0 7 C0 4.69 0 2.38 0 0 Z " fill="#413D55" transform="translate(303,32)"/>
<path d="M0 0 C0.86625 0.4640625 0.86625 0.4640625 1.75 0.9375 C3.84294184 1.92583364 5.74535275 2.5168613 8 3 C8 3.66 8 4.32 8 5 C12.455 5.99 12.455 5.99 17 7 C16.67 6.01 16.34 5.02 16 4 C20.29 3.34 24.58 2.68 29 2 C24.35722263 6.64277737 22.1677836 8.28334111 15.6875 8.375 C10.2486008 8.27333833 7.33856375 7.25392281 3 4 C1.0625 1.75 1.0625 1.75 0 0 Z " fill="#C27849" transform="translate(23,55)"/>
<path d="M0 0 C0 0.99 0 1.98 0 3 C1.32 3.33 2.64 3.66 4 4 C2.39967863 4.84069415 0.79458829 5.67231505 -0.8125 6.5 C-2.15248047 7.19609375 -2.15248047 7.19609375 -3.51953125 7.90625 C-6 9 -6 9 -9 9 C-9.33 7.68 -9.66 6.36 -10 5 C-4.5 0 -4.5 0 0 0 Z " fill="#1D1937" transform="translate(279,42)"/>
<path d="M0 0 C0.66 0.33 1.32 0.66 2 1 C3.09195608 4.57367446 3.3327444 7.47774695 2 11 C-1.05715786 12.92164209 -2.7129895 13.03249175 -6.3125 12.625 C-7.6428125 12.315625 -7.6428125 12.315625 -9 12 C-9 11.34 -9 10.68 -9 10 C-7.68 9.67 -6.36 9.34 -5 9 C-5 8.34 -5 7.68 -5 7 C-4.0409375 6.6596875 -4.0409375 6.6596875 -3.0625 6.3125 C-0.72806339 5.14749104 -0.72806339 5.14749104 -0.25 2.375 C-0.1675 1.59125 -0.085 0.8075 0 0 Z " fill="#15102F" transform="translate(138,58)"/>
<path d="M0 0 C0.66 0.33 1.32 0.66 2 1 C3.67654729 0.72057545 5.34608154 0.39171753 7 0 C6.2575 0.556875 5.515 1.11375 4.75 1.6875 C1.52326049 4.40089459 -1.10512328 7.21024656 -3 11 C-1.68 11.33 -0.36 11.66 1 12 C0.01 13.485 0.01 13.485 -1 15 C-3.475 14.01 -3.475 14.01 -6 13 C-5.63118644 6.85310727 -4.09949571 4.30972626 0 0 Z " fill="#E1DBCB" transform="translate(71,39)"/>
<path d="M0 0 C2.64 0 5.28 0 8 0 C8 0.66 8 1.32 8 2 C8.66 2 9.32 2 10 2 C9.67 3.32 9.34 4.64 9 6 C9 5.34 9 4.68 9 4 C6.66705225 3.95758277 4.33297433 3.95907063 2 4 C0.18884044 5.81115956 0.61800552 8.61278227 0.4375 11.0625 C0.31181641 12.71958984 0.31181641 12.71958984 0.18359375 14.41015625 C0.12300781 15.26480469 0.06242187 16.11945312 0 17 C-0.66 17 -1.32 17 -2 17 C-2 12.05 -2 7.1 -2 2 C-1.34 2 -0.68 2 0 2 C0 1.34 0 0.68 0 0 Z " fill="#FAEBD7" transform="translate(34,20)"/>
<path d="M0 0 C2 3 2 3 2 7 C-1.3171411 8.4216319 -4.44219804 9.39009109 -8 10 C-5.54716981 0 -5.54716981 0 0 0 Z " fill="#DE6A29" transform="translate(65,17)"/>
<path d="M0 0 C1.98 0 3.96 0 6 0 C5.01 0.66 4.02 1.32 3 2 C3.763125 2.433125 4.52625 2.86625 5.3125 3.3125 C7.58093768 4.73686785 9.2199723 6.03260097 11 8 C10.67 8.99 10.34 9.98 10 11 C9.96125079 12.66621616 9.9549714 14.33394172 10 16 C7.37613513 12.93882432 7 12.26826873 7 8 C6.46375 7.731875 5.9275 7.46375 5.375 7.1875 C2.58333333 5.79166667 -0.20833333 4.39583333 -3 3 C-2.01 2.67 -1.02 2.34 0 2 C0 1.34 0 0.68 0 0 Z " fill="#E5D7C6" transform="translate(67,59)"/>
<path d="M0 0 C3.625 0.375 3.625 0.375 7 1 C7.625 3.875 7.625 3.875 8 7 C7.34 7.66 6.68 8.32 6 9 C6 7.02 6 5.04 6 3 C4.35 3 2.7 3 1 3 C0.34 4.98 -0.32 6.96 -1 9 C-0.34 9 0.32 9 1 9 C0.67 11.64 0.34 14.28 0 17 C-2.31590289 13.52614567 -2.26991835 12.03569994 -2.25 7.9375 C-2.25515625 6.87402344 -2.2603125 5.81054688 -2.265625 4.71484375 C-2 2 -2 2 0 0 Z " fill="#C47646" transform="translate(36,23)"/>
<path d="M0 0 C0.66 0.99 1.32 1.98 2 3 C-4.73281213 4.700773 -10.13252891 5.10765663 -17 4 C-16.67 3.01 -16.34 2.02 -16 1 C-13.3755252 0.75190045 -10.75232855 0.5258301 -8.125 0.3125 C-7.37863281 0.23966797 -6.63226563 0.16683594 -5.86328125 0.09179688 C-3.6953125 -0.07421875 -3.6953125 -0.07421875 0 0 Z " fill="#E46B1E" transform="translate(48,74)"/>
<path d="M0 0 C3 0.125 3 0.125 4 1.125 C4.125 3.625 4.125 3.625 4 6.125 C3 7.125 3 7.125 0.0625 7.3125 C-3 7.125 -3 7.125 -5 5.125 C-4.40256972 1.18196016 -4.1426006 0.17260836 0 0 Z " fill="#221D38" transform="translate(153,28.875)"/>
<path d="M0 0 C0.66 0 1.32 0 2 0 C2.55353075 10.55808656 2.55353075 10.55808656 -1 15 C-3.46800047 13.84826645 -5.04783565 12.95216435 -7 11 C-6.01 10.01 -5.02 9.02 -4 8 C-3.34 8.33 -2.68 8.66 -2 9 C-1.855625 7.700625 -1.71125 6.40125 -1.5625 5.0625 C-1.125 1.125 -1.125 1.125 0 0 Z " fill="#17132E" transform="translate(248,52)"/>
<path d="M0 0 C7.42857143 -0.28571429 7.42857143 -0.28571429 11 2 C10.1875 3.9375 10.1875 3.9375 9 6 C5.71023192 7.09658936 4.28696233 6.79953138 1 6 C0.67 4.02 0.34 2.04 0 0 Z " fill="#2E2A46" transform="translate(279,41)"/>
<path d="M0 0 C1.4540625 0.0309375 1.4540625 0.0309375 2.9375 0.0625 C2.9375 1.7125 2.9375 3.3625 2.9375 5.0625 C2.2775 5.0625 1.6175 5.0625 0.9375 5.0625 C0.6075 6.0525 0.2775 7.0425 -0.0625 8.0625 C-1.0525 8.3925 -2.0425 8.7225 -3.0625 9.0625 C-4.4575848 6.76471327 -5.13688619 5.5832033 -4.75 2.875 C-3.60401046 -0.14624516 -3.45360789 0.07048179 0 0 Z " fill="#DE6627" transform="translate(58.0625,84.9375)"/>
<path d="M0 0 C0.99 0.33 1.98 0.66 3 1 C3.8125 2.9375 3.8125 2.9375 4 5 C3.34 5.66 2.68 6.32 2 7 C1.835 8.155 1.67 9.31 1.5 10.5 C1 14 1 14 -1 16 C-3 14 -3 14 -3.265625 12.125 C-3.26046875 11.42375 -3.2553125 10.7225 -3.25 10 C-3.25515625 9.29875 -3.2603125 8.5975 -3.265625 7.875 C-3 6 -3 6 -1 4 C-0.3574765 1.93125966 -0.3574765 1.93125966 0 0 Z " fill="#231C45" transform="translate(246,47)"/>
<path d="M0 0 C7.50769231 0.61538462 7.50769231 0.61538462 10 2.5625 C10.33 3.036875 10.66 3.51125 11 4 C9.35 4 7.7 4 6 4 C6 4.99 6 5.98 6 7 C2.7 6.34 -0.6 5.68 -4 5 C-2.68 4.34 -1.36 3.68 0 3 C0 2.01 0 1.02 0 0 Z " fill="#171231" transform="translate(129,49)"/>
<path d="M0 0 C3.3450637 1.25439889 3.8109406 2.84089109 5.5 5.9375 C7.12652316 7.64336575 8.79006566 9.3152546 10.5 10.9375 C11.16 11.5975 11.82 12.2575 12.5 12.9375 C8.76142598 12.43228729 6.8599678 11.91311158 4.5 8.9375 C3.860625 7.90625 3.22125 6.875 2.5625 5.8125 C0.81507997 2.82430863 0.81507997 2.82430863 -1.75 2.0625 C-2.61625 2.000625 -2.61625 2.000625 -3.5 1.9375 C-3.5 4.2475 -3.5 6.5575 -3.5 8.9375 C-4.16 8.6075 -4.82 8.2775 -5.5 7.9375 C-5.6875 5.0625 -5.6875 5.0625 -5.5 1.9375 C-2.5 -0.0625 -2.5 -0.0625 0 0 Z " fill="#BD7C49" transform="translate(26.5,46.0625)"/>
<path d="M0 0 C6.72505081 0.16439013 10.21055351 1.21055351 15 6 C14.01 6.495 14.01 6.495 13 7 C12.26394531 6.69320312 11.52789062 6.38640625 10.76953125 6.0703125 C7.55261967 4.82710549 5.12208601 4.79951459 1.6875 4.875 C0.61886719 4.89304687 -0.44976562 4.91109375 -1.55078125 4.9296875 C-2.76314453 4.96449219 -2.76314453 4.96449219 -4 5 C-3.34 4.34 -2.68 3.68 -2 3 C-0.68 3 0.64 3 2 3 C2 2.34 2 1.68 2 1 C1.34 0.67 0.68 0.34 0 0 Z " fill="#E5D3BE" transform="translate(74,51)"/>
<path d="M0 0 C1.32 0 2.64 0 4 0 C4 2.31 4 4.62 4 7 C3.01 7 2.02 7 1 7 C0.67 6.01 0.34 5.02 0 4 C-0.680625 4.495 -1.36125 4.99 -2.0625 5.5 C-5.59465009 7.30365111 -8.08636991 7.23021353 -12 7 C-12 6.67 -12 6.34 -12 6 C-10.35 6 -8.7 6 -7 6 C-7 5.34 -7 4.68 -7 4 C-5.5459375 3.2884375 -5.5459375 3.2884375 -4.0625 2.5625 C-1.19522563 1.29806053 -1.19522563 1.29806053 0 0 Z " fill="#141124" transform="translate(356,64)"/>
<path d="M0 0 C0.33 0 0.66 0 1 0 C1 7.26 1 14.52 1 22 C0.67 22 0.34 22 0 22 C0 19.69 0 17.38 0 15 C-1.32 14.67 -2.64 14.34 -4 14 C-3.71831703 12.04020573 -3.42433283 10.08217622 -3.125 8.125 C-2.96257812 7.03445312 -2.80015625 5.94390625 -2.6328125 4.8203125 C-2 2 -2 2 0 0 Z " fill="#3E3B52" transform="translate(360,49)"/>
<path d="M0 0 C0.66 0.33 1.32 0.66 2 1 C1.68657358 4.44769066 1.32465015 6.55940337 -0.75 9.375 C-3 11 -3 11 -5.5625 11.4375 C-8.36248966 10.93493775 -9.26107595 10.19653565 -11 8 C-10.01 8 -9.02 8 -8 8 C-7.67 7.34 -7.34 6.68 -7 6 C-7 6.66 -7 7.32 -7 8 C-4.50447516 7.21869929 -4.50447516 7.21869929 -2 6 C-1.67 5.01 -1.34 4.02 -1 3 C-0.67 2.01 -0.34 1.02 0 0 Z " fill="#E4E2E8" transform="translate(374,68)"/>
<path d="M0 0 C2 0 2 0 3.6015625 1.55859375 C5.48069098 4.83919515 5.39872863 7.30151235 5.375 11.0625 C5.38273437 12.29097656 5.39046875 13.51945312 5.3984375 14.78515625 C5 18 5 18 3.70703125 19.921875 C0.93093905 21.67519639 -1.81566307 21.18024549 -5 21 C-5 20.67 -5 20.34 -5 20 C-1.535 19.505 -1.535 19.505 2 19 C2.05411124 16.58303128 2.09372278 14.16728213 2.125 11.75 C2.14175781 11.06808594 2.15851563 10.38617188 2.17578125 9.68359375 C2.21213482 5.9391765 2.07944349 3.17647273 0 0 Z " fill="#FEF8E8" transform="translate(85,69)"/>
<path d="M0 0 C0.66 0.33 1.32 0.66 2 1 C1.34 2.32 0.68 3.64 0 5 C0.66 5.33 1.32 5.66 2 6 C1.38511719 6.68835937 1.38511719 6.68835937 0.7578125 7.390625 C-0.05042969 8.31101562 -0.05042969 8.31101562 -0.875 9.25 C-1.40867187 9.85328125 -1.94234375 10.4565625 -2.4921875 11.078125 C-3.9797487 12.97418746 -5.00322436 14.81290005 -6 17 C-6.8119452 9.55716899 -4.52317917 5.81551608 0 0 Z " fill="#C38158" transform="translate(71,32)"/>
<path d="M0 0 C-0.33 0.66 -0.66 1.32 -1 2 C-3.70716242 2.90238747 -5.23776768 3.11851302 -8.01171875 3.09765625 C-9.14770508 3.09282227 -9.14770508 3.09282227 -10.30664062 3.08789062 C-11.09232422 3.07951172 -11.87800781 3.07113281 -12.6875 3.0625 C-13.48478516 3.05798828 -14.28207031 3.05347656 -15.10351562 3.04882812 C-17.06904257 3.0370585 -19.03453085 3.01912348 -21 3 C-21 2.34 -21 1.68 -21 1 C-19.64455078 0.90912109 -19.64455078 0.90912109 -18.26171875 0.81640625 C-16.49248047 0.69072266 -16.49248047 0.69072266 -14.6875 0.5625 C-12.92986328 0.44068359 -12.92986328 0.44068359 -11.13671875 0.31640625 C-2.34507042 -0.57042254 -2.34507042 -0.57042254 0 0 Z " fill="#120F22" transform="translate(328,55)"/>
<path d="M0 0 C3.16115776 1.36983503 3.9927092 1.9890638 6 5 C6.25 7.5625 6.25 7.5625 6 10 C4 12 4 12 0.875 12.125 C-0.07375 12.08375 -1.0225 12.0425 -2 12 C-3.32 9.36 -4.64 6.72 -6 4 C-5.34 4 -4.68 4 -4 4 C-1 8.38461538 -1 8.38461538 -1 11 C-0.01 11 0.98 11 2 11 C2 10.34 2 9.68 2 9 C2.66 9 3.32 9 4 9 C2.80100302 5.9168649 1.52299523 2.93720508 0 0 Z " fill="#C07241" transform="translate(94,52)"/>
<path d="M0 0 C0 0.66 0 1.32 0 2 C-0.7425 2.53625 -1.485 3.0725 -2.25 3.625 C-5.75702883 6.65379763 -7.13898787 9.83913445 -9 14 C-9.66109375 15.33610526 -10.32621917 16.67024753 -11 18 C-11.57798165 8.17431193 -11.57798165 8.17431193 -8 4 C-2.7027027 0 -2.7027027 0 0 0 Z " fill="#FCEFDE" transform="translate(62,15)"/>
<path d="M0 0 C0.66 0.33 1.32 0.66 2 1 C2.10794277 3.26979665 2.18556176 5.54105196 2.25 7.8125 C2.29640625 9.07707031 2.3428125 10.34164062 2.390625 11.64453125 C2 15 2 15 -0.015625 16.94921875 C-0.67046875 17.29597656 -1.3253125 17.64273438 -2 18 C-2.625 14.625 -2.625 14.625 -3 11 C-2.34 10.34 -1.68 9.68 -1 9 C-0.53993654 6.79749008 -0.53993654 6.79749008 -0.375 4.375 C-0.30023438 3.55773437 -0.22546875 2.74046875 -0.1484375 1.8984375 C-0.09945312 1.27195312 -0.05046875 0.64546875 0 0 Z " fill="#D26F32" transform="translate(65,71)"/>
<path d="M0 0 C4.83256305 0.41421969 6.82679218 2.46413986 10 6 C7 7 7 7 4 6 C4 7.65 4 9.3 4 11 C0 5 0 5 0 0 Z " fill="#F9F1E2" transform="translate(65,63)"/>
<path d="M0 0 C0.66 1.32 1.32 2.64 2 4 C-2.625 8.875 -2.625 8.875 -6 10 C-8.33299825 10.03954234 -10.66708189 10.04401732 -13 10 C-10.66330145 8.11266655 -8.54966678 6.78807848 -5.8125 5.5 C-2.70295517 4.25596622 -2.70295517 4.25596622 -2 1 C-1.34 0.67 -0.68 0.34 0 0 Z " fill="#DCD2C6" transform="translate(51,64)"/>
<path d="M0 0 C2.1723491 3.25852365 4.07119658 6.59244728 6 10 C4.375 10.75 4.375 10.75 2 11 C-1.25 9.0625 -1.25 9.0625 -4 7 C-3.34 6.34 -2.68 5.68 -2 5 C-1.29289322 3.35008418 -0.62056011 1.68437744 0 0 Z " fill="#FCF4EA" transform="translate(52,37)"/>
<path d="M0 0 C6.2049038 0.2757735 10.10160999 1.10640794 15 5 C13.68 5.33 12.36 5.66 11 6 C10.67 7.32 10.34 8.64 10 10 C9.608125 9.236875 9.21625 8.47375 8.8125 7.6875 C6.81356183 4.72355719 5.10714878 3.67308011 2 2 C1.34 1.34 0.68 0.68 0 0 Z " fill="#C18050" transform="translate(68,60)"/>
<path d="M0 0 C0.33 0 0.66 0 1 0 C1 8.58 1 17.16 1 26 C1.66 26 2.32 26 3 26 C3 27.98 3 29.96 3 32 C2.01 32 1.02 32 0 32 C0 21.44 0 10.88 0 0 Z " fill="#0B0918" transform="translate(303,39)"/>
<path d="M0 0 C0 0.66 0 1.32 0 2 C-1.65 2.66 -3.3 3.32 -5 4 C-5.58776634 6.7446344 -5.58776634 6.7446344 -5 10 C-2.9050512 12.33122122 -0.53926173 14.17328621 2 16 C0.02 16.99 0.02 16.99 -2 18 C-2.66 16.68 -3.32 15.36 -4 14 C-4.66 14 -5.32 14 -6 14 C-7.18306728 11.63386544 -7.13354608 10.13219264 -7.125 7.5 C-7.12757812 6.7059375 -7.13015625 5.911875 -7.1328125 5.09375 C-7 3 -7 3 -6 1 C-3.911361 0.32624548 -2.19636905 0 0 0 Z " fill="#FBE7CE" transform="translate(27,44)"/>
<path d="M0 0 C0.70640625 0.05220703 1.4128125 0.10441406 2.140625 0.15820312 C3.88579987 0.28791207 5.63045725 0.42454954 7.375 0.5625 C7.375 0.8925 7.375 1.2225 7.375 1.5625 C2.755 1.5625 -1.865 1.5625 -6.625 1.5625 C-6.625 5.5225 -6.625 9.4825 -6.625 13.5625 C-6.955 13.5625 -7.285 13.5625 -7.625 13.5625 C-7.625 11.5825 -7.625 9.6025 -7.625 7.5625 C-8.285 7.5625 -8.945 7.5625 -9.625 7.5625 C-9.625 5.2525 -9.625 2.9425 -9.625 0.5625 C-6.5270403 -0.98647985 -3.36283448 -0.26989539 0 0 Z " fill="#3A364F" transform="translate(313.625,57.4375)"/>
<path d="M0 0 C0.8971875 0.5259375 0.8971875 0.5259375 1.8125 1.0625 C0.74 1.454375 -0.3325 1.84625 -1.4375 2.25 C-6.27503755 4.31206146 -8.33369585 7.78179377 -11.1875 12.0625 C-11.7409764 9.98696352 -12.1875 8.21884036 -12.1875 6.0625 C-11.5275 5.4025 -10.8675 4.7425 -10.1875 4.0625 C-10.1875 3.4025 -10.1875 2.7425 -10.1875 2.0625 C-8.8675 2.0625 -7.5475 2.0625 -6.1875 2.0625 C-5.8575 1.4025 -5.5275 0.7425 -5.1875 0.0625 C-2.1875 -0.9375 -2.1875 -0.9375 0 0 Z " fill="#E6E4EE" transform="translate(277.1875,40.9375)"/>
<path d="M0 0 C5.02941176 5.02941176 5.02941176 5.02941176 6 9 C5.86204772 12.03495018 5.48332105 15.00210319 5 18 C4.67 18 4.34 18 4 18 C3.67 14.37 3.34 10.74 3 7 C2.67 8.98 2.34 10.96 2 13 C1.34 12.67 0.68 12.34 0 12 C0 8.04 0 4.08 0 0 Z " fill="#BE8156" transform="translate(63,65)"/>
<path d="M0 0 C2.0625 0.4375 2.0625 0.4375 4 1 C3.67 1.66 3.34 2.32 3 3 C2.82781798 7.47673252 3.14263214 11.60598974 4 16 C0.97785139 14.48892569 -0.15310978 11.77033533 -2 9 C-2.016173 6.22902515 -1.48763555 3.74849127 -1 1 C-0.67 0.67 -0.34 0.34 0 0 Z " fill="#DACAB2" transform="translate(58,31)"/>
<path d="M0 0 C1.8871875 0.0309375 1.8871875 0.0309375 3.8125 0.0625 C1.8325 1.0525 1.8325 1.0525 -0.1875 2.0625 C-0.1875 2.7225 -0.1875 3.3825 -0.1875 4.0625 C0.43125 3.85625 1.05 3.65 1.6875 3.4375 C2.739375 3.251875 2.739375 3.251875 3.8125 3.0625 C4.4725 3.7225 5.1325 4.3825 5.8125 5.0625 C1.8525 5.0625 -2.1075 5.0625 -6.1875 5.0625 C-5.5275 4.7325 -4.8675 4.4025 -4.1875 4.0625 C-4.1875 3.4025 -4.1875 2.7425 -4.1875 2.0625 C-5.1775 1.7325 -6.1675 1.4025 -7.1875 1.0625 C-4.43671116 0.14557039 -2.82801087 -0.04636083 0 0 Z " fill="#100C27" transform="translate(129.1875,65.9375)"/>
<path d="M0 0 C0.33 0.66 0.66 1.32 1 2 C3.02463255 2.65213292 3.02463255 2.65213292 5 3 C4.01 5.31 3.02 7.62 2 10 C-1.0916909 7.47043472 -1.90931332 4.77545388 -3 1 C-2.01 0.67 -1.02 0.34 0 0 Z " fill="#E8E6EE" transform="translate(377,56)"/>
<path d="M0 0 C1.65 0 3.3 0 5 0 C6.11002992 3.33008975 5.68516272 4.65983176 5 8 C5.33 8.66 5.66 9.32 6 10 C5.01 10.99 4.02 11.98 3 13 C2.86722656 12.39671875 2.73445313 11.7934375 2.59765625 11.171875 C2.42105469 10.37265625 2.24445313 9.5734375 2.0625 8.75 C1.88847656 7.96109375 1.71445313 7.1721875 1.53515625 6.359375 C1.052444 4.23121297 0.53836822 2.11467158 0 0 Z " fill="#F8F8F5" transform="translate(98,48)"/>
<path d="M0 0 C1.32 0 2.64 0 4 0 C4.68707555 2.49064888 5 4.37886292 5 7 C4.01 7.495 4.01 7.495 3 8 C3.33 12.95 3.66 17.9 4 23 C3.34 23 2.68 23 2 23 C1.97494385 22.44538086 1.9498877 21.89076172 1.92407227 21.31933594 C1.80772073 18.79601157 1.68517246 16.27302464 1.5625 13.75 C1.52318359 12.87730469 1.48386719 12.00460938 1.44335938 11.10546875 C1.40146484 10.26113281 1.35957031 9.41679688 1.31640625 8.546875 C1.27974854 7.77182617 1.24309082 6.99677734 1.20532227 6.19824219 C1.00396985 4.0425024 0.58270703 2.08198525 0 0 Z " fill="#110B30" transform="translate(204,48)"/>
<path d="M0 0 C0.33 0.66 0.66 1.32 1 2 C2.65 2 4.3 2 6 2 C6.33 3.65 6.66 5.3 7 7 C6.01 7.33 5.02 7.66 4 8 C3.34 7.01 2.68 6.02 2 5 C0.68 6.65 -0.64 8.3 -2 10 C-3 8 -3 8 -2.44140625 6.0546875 C-2.15136719 5.33539063 -1.86132812 4.61609375 -1.5625 3.875 C-1.27503906 3.15054688 -0.98757812 2.42609375 -0.69140625 1.6796875 C-0.46324219 1.12539062 -0.23507813 0.57109375 0 0 Z " fill="#FBF5EB" transform="translate(69,78)"/>
<path d="M0 0 C1.65 0.33 3.3 0.66 5 1 C4.67 1.99 4.34 2.98 4 4 C4.99 4.66 5.98 5.32 7 6 C-0.625 7.25 -0.625 7.25 -4 5 C-3.67 4.34 -3.34 3.68 -3 3 C-2.34 3 -1.68 3 -1 3 C-0.67 2.01 -0.34 1.02 0 0 Z " fill="#231E3E" transform="translate(125,47)"/>
<path d="M0 0 C1.98 1.32 3.96 2.64 6 4 C5.67 4.66 5.34 5.32 5 6 C4.01 6 3.02 6 2 6 C1.01 7.485 1.01 7.485 0 9 C-0.33 8.01 -0.66 7.02 -1 6 C-1.66 6 -2.32 6 -3 6 C-3 5.34 -3 4.68 -3 4 C-3.66 4 -4.32 4 -5 4 C-3.74458443 1.48916886 -2.49936512 1.12874554 0 0 Z " fill="#2E284E" transform="translate(169,42)"/>
<path d="M0 0 C1.98 0.66 3.96 1.32 6 2 C6.33 1.34 6.66 0.68 7 0 C7.66 1.98 8.32 3.96 9 6 C7.02 6.99 7.02 6.99 5 8 C2.5 5.6875 2.5 5.6875 0 3 C0 2.01 0 1.02 0 0 Z " fill="#E9E8EC" transform="translate(357,42)"/>
<path d="M0 0 C0.33 1.32 0.66 2.64 1 4 C-0.98 4.99 -0.98 4.99 -3 6 C-3 5.34 -3 4.68 -3 4 C-4.32 4 -5.64 4 -7 4 C-7 3.34 -7 2.68 -7 2 C-8.98 2 -10.96 2 -13 2 C-13 1.67 -13 1.34 -13 1 C-8.61414671 0.29826347 -4.44209357 -0.10834375 0 0 Z " fill="#2F2A4A" transform="translate(245,64)"/>
<path d="M0 0 C0.33 0 0.66 0 1 0 C1 1.98 1 3.96 1 6 C-6.59 6 -14.18 6 -22 6 C-21.67 5.01 -21.34 4.02 -21 3 C-21 3.66 -21 4.32 -21 5 C-20.48695313 4.835 -19.97390625 4.67 -19.4453125 4.5 C-16.21694753 3.83988703 -13.16712169 3.94501676 -9.875 4 C-5.27274665 4.26438564 -5.27274665 4.26438564 -1 3 C-0.67 2.01 -0.34 1.02 0 0 Z " fill="#0C0726" transform="translate(295,52)"/>
<path d="M0 0 C1.2065625 0.2475 1.2065625 0.2475 2.4375 0.5 C4.7284443 1.03191839 4.7284443 1.03191839 6 1 C6.66 1 7.32 1 8 1 C7.34 2.65 6.68 4.3 6 6 C3.36 5.34 0.72 4.68 -2 4 C-1.34 2.68 -0.68 1.36 0 0 Z " fill="#1A1631" transform="translate(135,34)"/>
<path d="M0 0 C0.99 0.66 1.98 1.32 3 2 C2.34 2 1.68 2 1 2 C1.33 7.61 1.66 13.22 2 19 C1.67 18.34 1.34 17.68 1 17 C-1.52733235 16.34444881 -1.52733235 16.34444881 -4 16 C-4 15.34 -4 14.68 -4 14 C-2.68 14 -1.36 14 0 14 C0 9.38 0 4.76 0 0 Z " fill="#F0EEF7" transform="translate(226,68)"/>
<path d="M0 0 C0.66 0 1.32 0 2 0 C4.43160605 3.36683915 5 4.73350364 5 9 C2.5625 8.3125 2.5625 8.3125 0 7 C-0.875 4.5 -0.875 4.5 -1 2 C-0.67 1.34 -0.34 0.68 0 0 Z " fill="#ECEDED" transform="translate(123,39)"/>
<path d="M0 0 C0.33 0 0.66 0 1 0 C1.33 2.97 1.66 5.94 2 9 C1.01 8.67 0.02 8.34 -1 8 C-1 7.34 -1 6.68 -1 6 C-1.99 6.66 -2.98 7.32 -4 8 C-4.99 7.67 -5.98 7.34 -7 7 C-6.21625 6.401875 -5.4325 5.80375 -4.625 5.1875 C-1.85425677 3.08914751 -1.85425677 3.08914751 0 0 Z " fill="#FAEDDB" transform="translate(65,87)"/>
<path d="M0 0 C1.98 0 3.96 0 6 0 C6 0.66 6 1.32 6 2 C7.32 2 8.64 2 10 2 C9.67 2.99 9.34 3.98 9 5 C6.03 5 3.06 5 0 5 C0.99 4.34 1.98 3.68 3 3 C2.01 2.01 1.02 1.02 0 0 Z " fill="#15112F" transform="translate(232,66)"/>
<path d="M0 0 C0.66 1.32 1.32 2.64 2 4 C1.34 4 0.68 4 0 4 C0 4.66 0 5.32 0 6 C1.32 6.33 2.64 6.66 4 7 C3.67 8.32 3.34 9.64 3 11 C2.278125 10.21625 1.55625 9.4325 0.8125 8.625 C-1.83299041 6.15587562 -3.60373611 5.06739722 -7 4 C-7 3.67 -7 3.34 -7 3 C-5.02 3 -3.04 3 -1 3 C-0.67 2.01 -0.34 1.02 0 0 Z " fill="#F9EDD4" transform="translate(81,57)"/>
<path d="M0 0 C1.57043101 0.01330874 3.14079971 0.03717648 4.7109375 0.0703125 C5.51273438 0.07933594 6.31453125 0.08835937 7.140625 0.09765625 C9.12252273 0.12125027 11.10426731 0.15712185 13.0859375 0.1953125 C13.0859375 0.5253125 13.0859375 0.8553125 13.0859375 1.1953125 C12.2403125 1.22109375 11.3946875 1.246875 10.5234375 1.2734375 C3.32535917 1.63334142 -1.73771528 2.44106223 -7.9140625 6.1953125 C-5.14267285 0.2566204 -5.14267285 0.2566204 0 0 Z " fill="#F9DCBD" transform="translate(76.9140625,27.8046875)"/>
<path d="M0 0 C1.65 0.33 3.3 0.66 5 1 C5 1.99 5 2.98 5 4 C4.01 4 3.02 4 2 4 C1.67 7.3 1.34 10.6 1 14 C0.34 14 -0.32 14 -1 14 C-0.67 9.38 -0.34 4.76 0 0 Z " fill="#C47235" transform="translate(79,66)"/>
<path d="M0 0 C-1.26239712 0.86658615 -2.53527501 1.71792059 -3.8125 2.5625 C-4.87404297 3.27599609 -4.87404297 3.27599609 -5.95703125 4.00390625 C-8 5 -8 5 -11 4 C-11.66 3.01 -12.32 2.02 -13 1 C-11.39796533 0.63631108 -9.79325797 0.28438048 -8.1875 -0.0625 C-7.29417969 -0.25972656 -6.40085937 -0.45695312 -5.48046875 -0.66015625 C-3 -1 -3 -1 0 0 Z " fill="#BB7F51" transform="translate(52,58)"/>
<path d="M0 0 C3.375 0.9375 3.375 0.9375 5.375 3.9375 C4.385 4.4325 4.385 4.4325 3.375 4.9375 C0.375 2.9375 0.375 2.9375 -0.625 1.9375 C-1.615 3.4225 -1.615 3.4225 -2.625 4.9375 C-4.275 4.6075 -5.925 4.2775 -7.625 3.9375 C-5.1083218 0.61548478 -4.27928421 -0.07378076 0 0 Z " fill="#E2E0EA" transform="translate(199.625,47.0625)"/>
<path d="M0 0 C0.66 0.66 1.32 1.32 2 2 C1.01 2 0.02 2 -1 2 C-1 2.99 -1 3.98 -1 5 C-3.35171131 4.40138258 -5.6859378 3.73075648 -8 3 C-8.33 2.34 -8.66 1.68 -9 1 C-5.75778445 -0.08073852 -3.39597063 -0.21676408 0 0 Z " fill="#2C2842" transform="translate(182,41)"/>
<path d="M0 0 C1.21516636 1.82274953 2.39331792 3.6719181 3.5 5.5625 C4.9097645 8.06417819 4.9097645 8.06417819 7 10 C5.68 10.33 4.36 10.66 3 11 C0.9375 8.875 0.9375 8.875 -1 6 C-0.75 2.6875 -0.75 2.6875 0 0 Z " fill="#EBE9F1" transform="translate(266,59)"/>
<path d="M0 0 C1.11375 0.1546875 1.11375 0.1546875 2.25 0.3125 C2.58 1.3025 2.91 2.2925 3.25 3.3125 C-3.375 6.4375 -3.375 6.4375 -6.75 5.3125 C-3.42692308 0.38942308 -3.42692308 0.38942308 0 0 Z " fill="#F4F4F2" transform="translate(215.75,39.6875)"/>
<path d="M0 0 C4.455 0.99 4.455 0.99 9 2 C8.67 2.99 8.34 3.98 8 5 C7.34 4.67 6.68 4.34 6 4 C4.67139075 3.64830932 3.33841672 3.31229724 2 3 C1.01 4.485 1.01 4.485 0 6 C-2.625 6.1875 -2.625 6.1875 -5 6 C-4.01 5.34 -3.02 4.68 -2 4 C-1.34 2.68 -0.68 1.36 0 0 Z " fill="#292543" transform="translate(133,32)"/>
<path d="M0 0 C2 3 2 3 2 7 C-1.77545388 5.90931332 -4.47043472 5.0916909 -7 2 C-5.824375 1.7834375 -5.824375 1.7834375 -4.625 1.5625 C-2.03578982 1.12201075 -2.03578982 1.12201075 0 0 Z " fill="#241F3D" transform="translate(277,64)"/>
<path d="M0 0 C2 3 2 3 2 7 C1.34 7 0.68 7 0 7 C-0.33 7.66 -0.66 8.32 -1 9 C-1.99 9.66 -2.98 10.32 -4 11 C-3.52269162 9.5410574 -3.04308958 8.08286504 -2.5625 6.625 C-2.29566406 5.81289062 -2.02882812 5.00078125 -1.75390625 4.1640625 C-1 2 -1 2 0 0 Z " fill="#FCF2E1" transform="translate(58,62)"/>
<path d="M0 0 C0.90492188 0.02320313 1.80984375 0.04640625 2.7421875 0.0703125 C4.10730469 0.09738281 4.10730469 0.09738281 5.5 0.125 C6.19867188 0.14820313 6.89734375 0.17140625 7.6171875 0.1953125 C7.6171875 1.1853125 7.6171875 2.1753125 7.6171875 3.1953125 C-0.95424107 4.62388393 -0.95424107 4.62388393 -4.3828125 2.1953125 C-2.3828125 0.1953125 -2.3828125 0.1953125 0 0 Z " fill="#130D33" transform="translate(229.3828125,43.8046875)"/>
<path d="M0 0 C1.32 0 2.64 0 4 0 C4.6875 2.3125 4.6875 2.3125 5 5 C3.5625 6.8125 3.5625 6.8125 2 8 C0.68 6.02 -0.64 4.04 -2 2 C-1.34 1.34 -0.68 0.68 0 0 Z " fill="#EBE9EF" transform="translate(330,33)"/>
<path d="M0 0 C1.98 0 3.96 0 6 0 C5.375 2.4375 5.375 2.4375 4 5 C0.875 5.8125 0.875 5.8125 -2 6 C-1.34 4.02 -0.68 2.04 0 0 Z " fill="#14102F" transform="translate(127,32)"/>
<path d="M0 0 C2.35171131 0.59861742 4.6859378 1.26924352 7 2 C8.20272819 4.40545638 8.10071472 5.94996953 8.0625 8.625 C8.05347656 9.44226562 8.04445313 10.25953125 8.03515625 11.1015625 C8.02355469 11.72804688 8.01195313 12.35453125 8 13 C7.01 13 6.02 13 5 13 C5.33 12.67 5.66 12.34 6 12 C5.82741843 7.51287922 5.43095011 5.49401598 2.4375 2.0625 C1.633125 1.381875 0.82875 0.70125 0 0 Z " fill="#FCEAD0" transform="translate(93,50)"/>
<path d="M0 0 C1.0625 1.8125 1.0625 1.8125 2 4 C0.97407374 7.07777878 0.24530756 7.84450474 -2 10 C-2.66 10.99 -3.32 11.98 -4 13 C-4.33 12.34 -4.66 11.68 -5 11 C-4.00390625 8.3984375 -4.00390625 8.3984375 -2.5625 5.375 C-2.08941406 4.37210938 -1.61632812 3.36921875 -1.12890625 2.3359375 C-0.75636719 1.56507812 -0.38382812 0.79421875 0 0 Z " fill="#E4E3E9" transform="translate(390,48)"/>
<path d="M0 0 C0.53625 0.226875 1.0725 0.45375 1.625 0.6875 C0.635 1.0175 -0.355 1.3475 -1.375 1.6875 C-1.375 2.3475 -1.375 3.0075 -1.375 3.6875 C-3.355 4.3475 -5.335 5.0075 -7.375 5.6875 C-7.705 4.6975 -8.035 3.7075 -8.375 2.6875 C-2.95961538 -0.38942308 -2.95961538 -0.38942308 0 0 Z " fill="#272532" transform="translate(345.375,42.3125)"/>
<path d="M0 0 C0.98871094 -0.01417969 1.97742188 -0.02835938 2.99609375 -0.04296875 C5.5625 0.1875 5.5625 0.1875 7.5625 2.1875 C6.716875 2.14625 5.87125 2.105 5 2.0625 C1.14036731 2.20285028 -1.77438013 3.01530164 -5.4375 4.1875 C-5.7675 3.1975 -6.0975 2.2075 -6.4375 1.1875 C-4.69900372 -0.55099628 -2.3588363 0.01533704 0 0 Z " fill="#FAE9D0" transform="translate(78.4375,36.8125)"/>
<path d="M0 0 C-0.99 0.33 -1.98 0.66 -3 1 C-3 1.99 -3 2.98 -3 4 C-1.68 4.33 -0.36 4.66 1 5 C-1.31 5 -3.62 5 -6 5 C-6 3.68 -6 2.36 -6 1 C-6.99 0.67 -7.98 0.34 -9 0 C-5.93109813 -1.53445094 -3.29905734 -0.54984289 0 0 Z " fill="#110C2B" transform="translate(285,66)"/>
<path d="M0 0 C1.28132813 0.10183594 2.56265625 0.20367187 3.8828125 0.30859375 C4.87023438 0.39238281 5.85765625 0.47617187 6.875 0.5625 C3.52560119 2.58808881 1.00537449 2.77988987 -2.875 2.6875 C-3.85984375 2.66945312 -4.8446875 2.65140625 -5.859375 2.6328125 C-6.98085938 2.59800781 -6.98085938 2.59800781 -8.125 2.5625 C-8.455 1.9025 -8.785 1.2425 -9.125 0.5625 C-6.07230154 -0.96384923 -3.36654311 -0.27544444 0 0 Z " fill="#D3CABD" transform="translate(43.125,54.4375)"/>
<path d="M0 0 C1.32 0.66 2.64 1.32 4 2 C3.34 6.29 2.68 10.58 2 15 C1.67 15 1.34 15 1 15 C0.67 12.03 0.34 9.06 0 6 C0.66 6 1.32 6 2 6 C2 5.34 2 4.68 2 4 C1.34 3.67 0.68 3.34 0 3 C0 2.01 0 1.02 0 0 Z " fill="#140E34" transform="translate(243,44)"/>
<path d="M0 0 C0.66 0.33 1.32 0.66 2 1 C1.45276317 4.37462715 0.9451 6.08235 -1 9 C-1.99 9 -2.98 9 -4 9 C-2.80100302 5.9168649 -1.52299523 2.93720508 0 0 Z " fill="#141126" transform="translate(378,68)"/>
<path d="M0 0 C2.0625 0.4375 2.0625 0.4375 4 1 C3.4376049 4.26189156 2.5859495 5.91134848 0 8 C-0.99 8.33 -1.98 8.66 -3 9 C-2.67 8.01 -2.34 7.02 -2 6 C-1.34 6 -0.68 6 0 6 C-0.2784375 4.7934375 -0.2784375 4.7934375 -0.5625 3.5625 C-0.706875 2.716875 -0.85125 1.87125 -1 1 C-0.67 0.67 -0.34 0.34 0 0 Z " fill="#F3F3F1" transform="translate(371,67)"/>
<path d="M0 0 C0.66 0.99 1.32 1.98 2 3 C1.34 4.32 0.68 5.64 0 7 C-2.97 6.505 -2.97 6.505 -6 6 C-6 5.34 -6 4.68 -6 4 C-4.68 3.67 -3.36 3.34 -2 3 C-2 2.34 -2 1.68 -2 1 C-1.34 0.67 -0.68 0.34 0 0 Z " fill="#241E44" transform="translate(135,64)"/>
<path d="M0 0 C3.4375 0.8125 3.4375 0.8125 7 2 C7.33 2.99 7.66 3.98 8 5 C2.46153846 5.36923077 2.46153846 5.36923077 0.125 3.5 C-0.24625 3.005 -0.6175 2.51 -1 2 C-0.67 1.34 -0.34 0.68 0 0 Z " fill="#D66E2B" transform="translate(32,57)"/>
<path d="M0 0 C1.1894524 1.7841786 2.34821969 3.59045948 3.4375 5.4375 C4.84347634 7.7433012 6.34349569 9.87020874 8 12 C5.03 11.505 5.03 11.505 2 11 C0.80712589 7.12315913 0 4.08378077 0 0 Z " fill="#F9E3CC" transform="translate(34,37)"/>
<path d="M0 0 C2.97 0.495 2.97 0.495 6 1 C5.34 2.98 4.68 4.96 4 7 C3.01 6.67 2.02 6.34 1 6 C1 5.01 1 4.02 1 3 C0.34 2.67 -0.32 2.34 -1 2 C-0.67 1.34 -0.34 0.68 0 0 Z " fill="#292248" transform="translate(290,49)"/>
<path d="M0 0 C6.52307692 -0.36923077 6.52307692 -0.36923077 8.9375 1.5 C9.288125 1.995 9.63875 2.49 10 3 C3.375 4.25 3.375 4.25 0 2 C0 1.34 0 0.68 0 0 Z " fill="#CD6F32" transform="translate(84,49)"/>
<path d="M0 0 C0.33 0.99 0.66 1.98 1 3 C1.99 3.33 2.98 3.66 4 4 C2.68 5.32 1.36 6.64 0 8 C-0.99 7.01 -1.98 6.02 -3 5 C-1.125 1.125 -1.125 1.125 0 0 Z " fill="#140F2C" transform="translate(272,44)"/>
<path d="M0 0 C0 0.99 0 1.98 0 3 C-2.25 4.75 -2.25 4.75 -5 6 C-7.3125 5.6875 -7.3125 5.6875 -9 5 C-2.87096774 0 -2.87096774 0 0 0 Z " fill="#FCE6D3" transform="translate(68,25)"/>
<path d="M0 0 C0.66 0.33 1.32 0.66 2 1 C1.34 1.66 0.68 2.32 0 3 C0.08885 6.03344954 0.08885 6.03344954 1 9 C1.99 9.66 2.98 10.32 4 11 C1.625 10.6875 1.625 10.6875 -1 10 C-3 7 -3 7 -2.75 4.4375 C-2 2 -2 2 0 0 Z " fill="#C98F6A" transform="translate(54,84)"/>
<path d="M0 0 C-2.1732987 2.4992935 -3.68300548 3.60976535 -7 4 C-9.75 3.5625 -9.75 3.5625 -12 3 C-8.62446616 -0.37553384 -4.59080647 -0.1311659 0 0 Z " fill="#D2793F" transform="translate(50,77)"/>
<path d="M0 0 C2 2 2 2 2.1953125 4.1640625 C2.16050781 5.38222656 2.16050781 5.38222656 2.125 6.625 C2.10695313 7.44226563 2.08890625 8.25953125 2.0703125 9.1015625 C2.04710938 9.72804688 2.02390625 10.35453125 2 11 C1.01 11.33 0.02 11.66 -1 12 C-1.02687279 10.18757948 -1.04633715 8.37504767 -1.0625 6.5625 C-1.07410156 5.55316406 -1.08570313 4.54382813 -1.09765625 3.50390625 C-1 1 -1 1 0 0 Z " fill="#FDF1D9" transform="translate(62,66)"/>
<path d="M0 0 C2.125 0.9375 2.125 0.9375 4 2 C3.67 3.32 3.34 4.64 3 6 C0.525 5.01 0.525 5.01 -2 4 C-2 3.01 -2 2.02 -2 1 C-1.34 0.67 -0.68 0.34 0 0 Z " fill="#292541" transform="translate(290,63)"/>
<path d="M0 0 C1.32 0.33 2.64 0.66 4 1 C3.01 3.31 2.02 5.62 1 8 C0.01 7.01 -0.98 6.02 -2 5 C-1.34 3.35 -0.68 1.7 0 0 Z " fill="#22212D" transform="translate(389,42)"/>
<path d="M0 0 C0.99 0.33 1.98 0.66 3 1 C2.67 3.31 2.34 5.62 2 8 C1.01 8 0.02 8 -1 8 C-1.04241723 5.66705225 -1.04092937 3.33297433 -1 1 C-0.67 0.67 -0.34 0.34 0 0 Z " fill="#F7E5CC" transform="translate(69,16)"/>
<path d="M0 0 C0.33 0 0.66 0 1 0 C1 4.62 1 9.24 1 14 C0.34 13.01 -0.32 12.02 -1 11 C-1.66 10.67 -2.32 10.34 -3 10 C-2.690625 9.46375 -2.38125 8.9275 -2.0625 8.375 C-0.82172561 5.6015043 -0.4090325 2.99957163 0 0 Z " fill="#EFEEF4" transform="translate(254,57)"/>
<path d="M0 0 C0.33 1.32 0.66 2.64 1 4 C0.34 4 -0.32 4 -1 4 C-1 4.66 -1 5.32 -1 6 C-2.32 6 -3.64 6 -5 6 C-4.67 4.35 -4.34 2.7 -4 1 C-2.68 0.67 -1.36 0.34 0 0 Z " fill="#251F43" transform="translate(188,45)"/>
<path d="M0 0 C0.99 0.495 0.99 0.495 2 1 C1.01 1.495 1.01 1.495 0 2 C0 1.34 0 0.68 0 0 Z M-1 2 C-0.34 3.32 0.32 4.64 1 6 C0.01 6 -0.98 6 -2 6 C-2.99 6.33 -3.98 6.66 -5 7 C-5.66 6.34 -6.32 5.68 -7 5 C-5.02 4.01 -3.04 3.02 -1 2 Z " fill="#E4E3E7" transform="translate(143,65)"/>
<path d="M0 0 C0.99 0.33 1.98 0.66 3 1 C2.79375 1.78375 2.5875 2.5675 2.375 3.375 C2.25125 4.24125 2.1275 5.1075 2 6 C2.66 6.66 3.32 7.32 4 8 C3.01 8.33 2.02 8.66 1 9 C0.67 9.66 0.34 10.32 0 11 C0 10.01 0 9.02 0 8 C-0.33 7.01 -0.66 6.02 -1 5 C-0.5625 2.3125 -0.5625 2.3125 0 0 Z " fill="#E4E3E7" transform="translate(113,61)"/>
<path d="M0 0 C0.66 0.66 1.32 1.32 2 2 C0.68 3.32 -0.64 4.64 -2 6 C-2.99 5.67 -3.98 5.34 -5 5 C-4.1875 3.0625 -4.1875 3.0625 -3 1 C-2.01 0.67 -1.02 0.34 0 0 Z " fill="#2E2B40" transform="translate(330,50)"/>
<path d="M0 0 C2.91517292 1.07401108 4.77810176 1.77810176 7 4 C5 6 5 6 1.875 6.125 C0.451875 6.063125 0.451875 6.063125 -1 6 C-0.649375 5.38125 -0.29875 4.7625 0.0625 4.125 C0.371875 3.42375 0.68125 2.7225 1 2 C0.67 1.34 0.34 0.68 0 0 Z " fill="#D1C5B3" transform="translate(49,45)"/>
<path d="M0 0 C0.99 0 1.98 0 3 0 C3.6875 1.75 3.6875 1.75 4 4 C2.5625 6.25 2.5625 6.25 1 8 C-0.35439668 5.29120665 -0.06501451 2.99066732 0 0 Z " fill="#15122D" transform="translate(115,41)"/>
<path d="M0 0 C1.32 0.33 2.64 0.66 4 1 C4.33 2.65 4.66 4.3 5 6 C3.35 5.67 1.7 5.34 0 5 C0 3.35 0 1.7 0 0 Z " fill="#F3FAFB" transform="translate(54,73)"/>
<path d="M0 0 C1.9375 0.6875 1.9375 0.6875 4 2 C4.75 4.625 4.75 4.625 5 7 C4.01 7.33 3.02 7.66 2 8 C2 7.34 2 6.68 2 6 C1.34 6 0.68 6 0 6 C0 4.02 0 2.04 0 0 Z " fill="#393358" transform="translate(266,53)"/>
<path d="M0 0 C1.98 0.99 3.96 1.98 6 3 C6 4.32 6 5.64 6 7 C4 6 2 5 0 4 C0 2.68 0 1.36 0 0 Z " fill="#D86C32" transform="translate(23,51)"/>
<path d="M0 0 C0.99 0.33 1.98 0.66 3 1 C3.73046875 3.06640625 3.73046875 3.06640625 4.1875 5.5625 C4.34605469 6.38878906 4.50460938 7.21507812 4.66796875 8.06640625 C4.77753906 8.70449219 4.88710938 9.34257813 5 10 C2.12807199 7.32114278 0.66212727 4.56170128 -1 1 C-0.67 0.67 -0.34 0.34 0 0 Z " fill="#F4E3C7" transform="translate(29,45)"/>
<path d="M0 0 C0 0.66 0 1.32 0 2 C-3.3 2.33 -6.6 2.66 -10 3 C-10 2.34 -10 1.68 -10 1 C-6.61981469 -0.04005702 -3.5219721 -0.08004482 0 0 Z " fill="#C86D3B" transform="translate(81,34)"/>
<path d="M0 0 C0.66 0.99 1.32 1.98 2 3 C-0.64 3.33 -3.28 3.66 -6 4 C-6.33 3.01 -6.66 2.02 -7 1 C-3.535 0.505 -3.535 0.505 0 0 Z " fill="#D56B21" transform="translate(48,74)"/>
<path d="M0 0 C3.875 1.75 3.875 1.75 5 4 C3.35 4.66 1.7 5.32 0 6 C-0.66 5.34 -1.32 4.68 -2 4 C-1.34 4 -0.68 4 0 4 C0 2.68 0 1.36 0 0 Z " fill="#161130" transform="translate(272,61)"/>
<path d="M0 0 C2.97 0.495 2.97 0.495 6 1 C5 4 5 4 2.9375 5.1875 C2.298125 5.455625 1.65875 5.72375 1 6 C0.67 4.02 0.34 2.04 0 0 Z " fill="#E1D3C1" transform="translate(59,62)"/>
<path d="M0 0 C0.99 0.33 1.98 0.66 3 1 C2.67 2.98 2.34 4.96 2 7 C0.35 6.01 -1.3 5.02 -3 4 C-2.67 3.01 -2.34 2.02 -2 1 C-1.34 0.67 -0.68 0.34 0 0 Z " fill="#1B153A" transform="translate(244,60)"/>
<path d="M0 0 C0.99 0.99 1.98 1.98 3 3 C1.60804085 5.7839183 -0.15575779 5.97898997 -3 7 C-1.125 1.125 -1.125 1.125 0 0 Z " fill="#F0F0F2" transform="translate(365,48)"/>
<path d="M0 0 C-3 2 -3 2 -5 2 C-5.66 3.32 -6.32 4.64 -7 6 C-7.66 5.67 -8.32 5.34 -9 5 C-6.81610567 0.16423399 -5.20641855 -0.13701101 0 0 Z " fill="#E3E2ED" transform="translate(180,47)"/>
<path d="M0 0 C1.98 1.65 3.96 3.3 6 5 C4.25 5.75 4.25 5.75 2 6 C-0.25 4.0625 -0.25 4.0625 -2 2 C-1.34 2 -0.68 2 0 2 C0 1.34 0 0.68 0 0 Z " fill="#EEDCC4" transform="translate(46,42)"/>
<path d="M0 0 C0.66 0.33 1.32 0.66 2 1 C1.34 3.64 0.68 6.28 0 9 C-3 5.375 -3 5.375 -3 2 C-2.01 1.34 -1.02 0.68 0 0 Z " fill="#171433" transform="translate(122,38)"/>
<path d="M0 0 C0.33 0.66 0.66 1.32 1 2 C1.99 2.33 2.98 2.66 4 3 C5.1875 6.5625 5.1875 6.5625 6 10 C2.46413986 6.82679218 0.41421969 4.83256305 0 0 Z " fill="#AD8266" transform="translate(53,37)"/>
<path d="M0 0 C1.13643966 3.40931897 0.86747764 4.00335456 -0.4375 7.1875 C-0.86869141 8.26064453 -0.86869141 8.26064453 -1.30859375 9.35546875 C-1.53675781 9.89816406 -1.76492187 10.44085938 -2 11 C-2.33 11 -2.66 11 -3 11 C-3.36923077 3.49230769 -3.36923077 3.49230769 -1.5 1 C-1.005 0.67 -0.51 0.34 0 0 Z " fill="#DD6620" transform="translate(41,29)"/>
<path d="M0 0 C-0.33 0.66 -0.66 1.32 -1 2 C-4.47325181 3.1577506 -7.36067448 3.06866652 -11 3 C-7.48550811 -0.37391222 -4.73940561 -0.27342725 0 0 Z " fill="#F3D6B9" transform="translate(49,71)"/>
<path d="M0 0 C3.16115776 1.36983503 3.9927092 1.9890638 6 5 C6.125 7.6875 6.125 7.6875 6 10 C5.7525 9.4225 5.505 8.845 5.25 8.25 C4.06009525 5.86550111 4.06009525 5.86550111 1.875 3.875 C1.25625 3.25625 0.6375 2.6375 0 2 C0 1.34 0 0.68 0 0 Z " fill="#C77E50" transform="translate(94,52)"/>
<path d="M0 0 C-1.12451727 2.9719385 -2.22293791 5.33440687 -4 8 C-4.5534764 5.92446352 -5 4.15634036 -5 2 C-2 0 -2 0 0 0 Z " fill="#EFEDF5" transform="translate(270,45)"/>
<path d="M0 0 C2.97 0.99 5.94 1.98 9 3 C9 3.33 9 3.66 9 4 C3.58461538 4.36923077 3.58461538 4.36923077 0.625 2.5 C0.08875 2.005 -0.4475 1.51 -1 1 C-0.67 0.67 -0.34 0.34 0 0 Z " fill="#100B2E" transform="translate(172,43)"/>
<path d="M0 0 C0 0.99 0 1.98 0 3 C-2.64 3 -5.28 3 -8 3 C-5.53387212 -0.1151089 -3.89156016 -0.31553191 0 0 Z " fill="#0E0C1E" transform="translate(352,42)"/>
<path d="M0 0 C2.69082872 0.17635452 5.32851446 0.61835921 8 1 C6.35 2.32 4.7 3.64 3 5 C1.68 3.68 0.36 2.36 -1 1 C-0.67 0.67 -0.34 0.34 0 0 Z " fill="#ECEAF3" transform="translate(186,41)"/>
<path d="M0 0 C-1.13304992 3.39914975 -2.12518475 4.05254451 -5 6 C-5.66 4.35 -6.32 2.7 -7 1 C-4.50935112 0.31292445 -2.62113708 0 0 0 Z " fill="#EAEAEE" transform="translate(121,32)"/>
<path d="M0 0 C1.65 0 3.3 0 5 0 C5.33 1.65 5.66 3.3 6 5 C4.68 4.67 3.36 4.34 2 4 C2 3.34 2 2.68 2 2 C1.34 2 0.68 2 0 2 C0 1.34 0 0.68 0 0 Z " fill="#F8FDF8" transform="translate(49,79)"/>
<path d="M0 0 C0.33 0 0.66 0 1 0 C0.67 2.97 0.34 5.94 0 9 C-0.99 8.01 -1.98 7.02 -3 6 C-2.01 4.02 -1.02 2.04 0 0 Z " fill="#BB9371" transform="translate(55,62)"/>
<path d="M0 0 C1.98 0.99 1.98 0.99 4 2 C2.02 2.99 2.02 2.99 0 4 C0 2.68 0 1.36 0 0 Z M-1 4 C-0.34 4.66 0.32 5.32 1 6 C0.01 6.66 -0.98 7.32 -2 8 C-2.66 7.01 -3.32 6.02 -4 5 C-3.01 4.67 -2.02 4.34 -1 4 Z " fill="#E8E7EC" transform="translate(294,64)"/>
<path d="M0 0 C1.32 0.33 2.64 0.66 4 1 C3.67 1.99 3.34 2.98 3 4 C1.35 4.33 -0.3 4.66 -2 5 C-1.34 3.35 -0.68 1.7 0 0 Z " fill="#211D32" transform="translate(116,62)"/>
<path d="M0 0 C0.66 1.32 1.32 2.64 2 4 C1.01 5.32 0.02 6.64 -1 8 C-1.625 5.6875 -1.625 5.6875 -2 3 C-1.34 2.01 -0.68 1.02 0 0 Z " fill="#15102D" transform="translate(382,59)"/>
<path d="M0 0 C1.70840281 1.63412443 2.93453047 2.86906094 4 5 C6.01669827 6.13350534 6.01669827 6.13350534 8 7 C5.69 6.67 3.38 6.34 1 6 C0.34 4.35 -0.32 2.7 -1 1 C-0.67 0.67 -0.34 0.34 0 0 Z " fill="#FCE9CF" transform="translate(88,58)"/>
<path d="M0 0 C2.14210449 1.76956458 2.96060573 2.87575652 3.8125 5.5625 C3.874375 6.366875 3.93625 7.17125 4 8 C3.34 8.66 2.68 9.32 2 10 C0 8 0 8 -0.1953125 6.0546875 C-0.13020833 4.03645833 -0.06510417 2.01822917 0 0 Z " fill="#363057" transform="translate(243,53)"/>
<path d="M0 0 C1.98 0.66 3.96 1.32 6 2 C6 2.66 6 3.32 6 4 C3.69 4 1.38 4 -1 4 C-0.67 2.68 -0.34 1.36 0 0 Z " fill="#F9FDF9" transform="translate(74,56)"/>
<path d="M0 0 C1.54571278 2.31856917 2.79618552 4.50638429 4 7 C2.68 7 1.36 7 0 7 C-0.38133299 5.0085944 -0.71325582 3.00720923 -1 1 C-0.67 0.67 -0.34 0.34 0 0 Z " fill="#F7E9CF" transform="translate(52,37)"/>
<path d="M0 0 C2.64 0 5.28 0 8 0 C8 0.66 8 1.32 8 2 C4.71303767 2.79953138 3.28976808 3.09658936 0 2 C0 1.34 0 0.68 0 0 Z " fill="#FFF5E8" transform="translate(84,39)"/>
<path d="M0 0 C0.33 0 0.66 0 1 0 C1.36923077 6.52307692 1.36923077 6.52307692 -0.5 8.9375 C-0.995 9.288125 -1.49 9.63875 -2 10 C-1.125 2.25 -1.125 2.25 0 0 Z " fill="#F6FAF2" transform="translate(95,30)"/>
<path d="M0 0 C2.33944736 0.28730055 4.6739143 0.61936779 7 1 C7 1.33 7 1.66 7 2 C4.36 2.66 1.72 3.32 -1 4 C-1 1 -1 1 0 0 Z " fill="#FCE9D2" transform="translate(29,70)"/>
<path d="M0 0 C2.31 0 4.62 0 7 0 C7 0.66 7 1.32 7 2 C4.69 2.33 2.38 2.66 0 3 C0 2.01 0 1.02 0 0 Z " fill="#221F2F" transform="translate(342,68)"/>
<path d="M0 0 C-0.33 0.66 -0.66 1.32 -1 2 C-3.31 2 -5.62 2 -8 2 C-8 1.34 -8 0.68 -8 0 C-4.71023192 -1.09658936 -3.28696233 -0.79953138 0 0 Z " fill="#19162A" transform="translate(328,55)"/>
<path d="M0 0 C1.98 0.99 1.98 0.99 4 2 C4 3.32 4 4.64 4 6 C3.34 6 2.68 6 2 6 C1.34 4.02 0.68 2.04 0 0 Z " fill="#E8E6EE" transform="translate(371,50)"/>
<path d="M0 0 C-0.99 0.66 -1.98 1.32 -3 2 C-3.33 1.67 -3.66 1.34 -4 1 C-6.32817964 0.63239269 -8.6618385 0.29758419 -11 0 C-11 -0.33 -11 -0.66 -11 -1 C-6.70700357 -2.26264601 -4.12168689 -1.62950412 0 0 Z " fill="#FCF0E1" transform="translate(94,28)"/>
</svg>
