<?xml version="1.0" encoding="UTF-8"?>
<svg version="1.1" xmlns="http://www.w3.org/2000/svg" width="318" height="159">
<path d="M0 0 C104.94 0 209.88 0 318 0 C318 52.47 318 104.94 318 159 C213.06 159 108.12 159 0 159 C0 106.53 0 54.06 0 0 Z " fill="#FEFEFE" transform="translate(0,0)"/>
<path d="M0 0 C7.7698063 5.6193492 14.42298115 13.00997052 16.578125 22.5625 C17.12340745 26.54543267 17.30744665 29.22329267 15.8125 33 C13.23826603 35.84053403 11.19495468 36.89134143 7.3550415 37.24050903 C6.35132507 37.23606781 5.34760864 37.23162659 4.31347656 37.22705078 C3.17259583 37.22689972 2.03171509 37.22674866 0.85626221 37.22659302 C-0.36989807 37.21627045 -1.59605835 37.20594788 -2.859375 37.1953125 C-4.11888977 37.1924826 -5.37840454 37.18965271 -6.67608643 37.18673706 C-10.01673902 37.17744121 -13.35711669 37.15948583 -16.69769287 37.1373291 C-20.10963572 37.11683208 -23.52160702 37.10772712 -26.93359375 37.09765625 C-33.62247168 37.07559907 -40.31121997 37.04212367 -47 37 C-46.37078014 38.61407041 -45.73751909 40.22656586 -45.10253906 41.83837891 C-44.75032288 42.73650299 -44.39810669 43.63462708 -44.03521729 44.55996704 C-41.49824236 50.5396802 -36.56314202 55.76872801 -30.55859375 58.3671875 C-22.60120287 60.33527501 -13.63646258 60.54132658 -6.375 56.4375 C-2.67110287 53.8484883 -0.11827383 50.8361883 2.62109375 47.28515625 C4 46 4 46 7.3125 46 C10 47 10 47 11 48 C11.40784371 52.02988431 11.4851747 54.2593572 9.234375 57.6953125 C0.41928788 66.31635682 -8.33992271 70.64979394 -20.76953125 71.125 C-32.74834613 70.66149084 -41.56786977 65.84142782 -49.8125 57.3125 C-57.44839093 47.83096719 -59.23163538 37.73455041 -58.23925781 25.90917969 C-57.08885111 16.72940372 -51.57367963 8.84248778 -44.60546875 2.98828125 C-42.13519844 1.17826752 -39.63743228 -0.44534743 -37 -2 C-36.39929688 -2.36222656 -35.79859375 -2.72445312 -35.1796875 -3.09765625 C-24.55180131 -8.22096461 -9.69925092 -5.83710576 0 0 Z " fill="#08B3D5" transform="translate(160,47)"/>
<path d="M0 0 C5.35680003 3.77217665 8.59674347 8.29948738 11.14453125 14.28125 C12.69271884 24.25845894 11.88675074 32.39319538 6.31640625 40.9453125 C0.84541428 47.61142407 -6.40081974 50.197639 -14.6640625 51.19140625 C-22.42892867 51.66383961 -28.46430466 49.20783223 -34.3359375 44.14453125 C-40.19815483 37.98232839 -43.39938846 30.91574801 -43.85546875 22.40625 C-43.53088944 14.74617836 -40.16386466 8.66500847 -35.10546875 3.03125 C-24.92363717 -6.25089387 -11.69441946 -6.49860269 0 0 Z " fill="#FBFDFE" transform="translate(269.29296875,56.09375)"/>
<path d="M0 0 C7.38795952 7.04921028 12.00097266 15.34971035 12.28344727 25.65039062 C12.31496515 38.59738754 9.45518839 47.66502388 0.25390625 57.203125 C-8.73522462 65.16910276 -18.78620705 67.16175278 -30.44921875 66.83984375 C-39.62797923 66.17046175 -48.55774783 61.25953827 -54.6875 54.4296875 C-62.42021945 43.32682562 -64.32203259 32.55555203 -63.1484375 19.33203125 C-62.28618344 15.92769139 -61.05016603 13.26687874 -59.1484375 10.33203125 C-58.5503125 9.30078125 -57.9521875 8.26953125 -57.3359375 7.20703125 C-51.04972226 -1.05485164 -43.4504578 -7.145575 -33.01953125 -9.3203125 C-20.8952404 -10.78842391 -9.71426399 -7.54180132 0 0 Z M-49.1484375 13.33203125 C-53.23969411 19.64227449 -54.16298275 25.92689688 -53.1484375 33.33203125 C-51.09595875 41.54194625 -46.80776711 48.11356996 -39.82421875 52.9375 C-32.50251851 57.04087046 -25.99167972 57.25914798 -17.8984375 55.58203125 C-9.44221295 52.76328973 -3.59127881 46.94833064 0.8515625 39.33203125 C3.17233474 30.11001523 2.57470079 20.69402545 -2.26171875 12.4296875 C-6.99665622 6.04660071 -14.47973736 2.10425312 -22.2421875 0.8203125 C-33.56822327 0.3970457 -42.2205578 4.36090592 -49.1484375 13.33203125 Z " fill="#05B3D5" transform="translate(279.1484375,50.66796875)"/>
<path d="M0 0 C4.83621271 0.76237272 6.94595743 3.40444729 10.23779297 6.86523438 C10.87298859 7.50891968 11.5081842 8.15260498 12.16262817 8.8157959 C14.18398962 10.87068741 16.18347471 12.94546215 18.18310547 15.02148438 C19.5515049 16.41998342 20.92128178 17.81713608 22.29248047 19.21289062 C25.64719327 22.63368291 28.98243836 26.07245697 32.30810547 29.52148438 C36.71527962 25.84809359 40.84767292 22.06234237 44.81201172 17.90429688 C45.80930685 16.87492219 46.8073761 15.84629704 47.80615234 14.81835938 C49.34952847 13.22538794 50.88765107 11.62849734 52.41333008 10.01855469 C53.90747618 8.44566916 55.42007675 6.8926737 56.93701172 5.34179688 C57.82461182 4.41641113 58.71221191 3.49102539 59.62670898 2.53759766 C62.30810547 0.52148438 62.30810547 0.52148438 65.51879883 0.09521484 C68.30810547 0.52148438 68.30810547 0.52148438 70.30810547 2.52148438 C70.32733463 6.94250491 69.54419568 9.65413208 66.62426758 12.88647461 C65.45995181 14.04984899 64.27933563 15.19707044 63.08544922 16.33007812 C62.46537491 16.94166275 61.8453006 17.55324738 61.20643616 18.18336487 C59.23318514 20.12317385 57.24006991 22.0410173 55.24560547 23.95898438 C53.89983571 25.27464308 52.55541835 26.59168665 51.21240234 27.91015625 C47.92641549 31.13018073 44.62245659 34.33067306 41.30810547 37.52148438 C44.74386177 41.61030433 48.225534 45.55613245 52.05029297 49.29101562 C52.88818359 50.11666016 53.72607422 50.94230469 54.58935547 51.79296875 C56.340246 53.50826136 58.09289386 55.22176176 59.84716797 56.93359375 C60.67732422 57.75279297 61.50748047 58.57199219 62.36279297 59.41601562 C63.12060059 60.15698486 63.8784082 60.8979541 64.65917969 61.66137695 C66.30810547 63.52148438 66.30810547 63.52148438 66.30810547 65.52148438 C66.96810547 65.52148438 67.62810547 65.52148438 68.30810547 65.52148438 C70.46313078 68.75402234 70.77666681 69.77299361 70.30810547 73.52148438 C69.12060547 75.39648438 69.12060547 75.39648438 67.30810547 76.52148438 C64.6333122 76.26052893 62.70715406 75.72100867 60.30810547 74.52148438 C60.30810547 73.86148438 60.30810547 73.20148438 60.30810547 72.52148438 C58.82310547 72.02648437 58.82310547 72.02648437 57.30810547 71.52148438 C57.30810547 70.86148438 57.30810547 70.20148438 57.30810547 69.52148438 C56.31810547 69.19148438 55.32810547 68.86148438 54.30810547 68.52148438 C54.30810547 67.86148438 54.30810547 67.20148438 54.30810547 66.52148438 C53.64810547 66.52148438 52.98810547 66.52148438 52.30810547 66.52148438 C52.30810547 65.86148438 52.30810547 65.20148438 52.30810547 64.52148438 C51.31810547 64.19148438 50.32810547 63.86148438 49.30810547 63.52148438 C49.30810547 62.86148438 49.30810547 62.20148438 49.30810547 61.52148438 C48.64810547 61.52148438 47.98810547 61.52148438 47.30810547 61.52148438 C47.30810547 60.86148438 47.30810547 60.20148438 47.30810547 59.52148438 C46.31810547 59.19148438 45.32810547 58.86148438 44.30810547 58.52148438 C44.30810547 57.86148438 44.30810547 57.20148438 44.30810547 56.52148438 C43.64810547 56.52148438 42.98810547 56.52148438 42.30810547 56.52148438 C42.30810547 55.86148438 42.30810547 55.20148438 42.30810547 54.52148438 C41.31810547 54.19148438 40.32810547 53.86148438 39.30810547 53.52148438 C39.30810547 52.86148438 39.30810547 52.20148438 39.30810547 51.52148438 C38.64810547 51.52148438 37.98810547 51.52148438 37.30810547 51.52148438 C35.68310547 50.14648438 35.68310547 50.14648438 34.30810547 48.52148438 C34.30810547 47.86148438 34.30810547 47.20148438 34.30810547 46.52148438 C29.7351943 48.92638724 26.60067907 52.05816334 23.08935547 55.75585938 C21.89853271 56.98168689 20.70710846 58.20693033 19.51513672 59.43164062 C17.6520698 61.35682621 15.79407673 63.28621216 13.94628906 65.22607422 C12.15317606 67.10364716 10.34185788 68.96197234 8.52685547 70.81835938 C7.97775513 71.40470154 7.42865479 71.9910437 6.86291504 72.59515381 C5.27490234 74.20410156 5.27490234 74.20410156 2.30810547 76.52148438 C-1.19869289 76.4979405 -2.21351605 75.99986286 -4.69189453 73.52148438 C-5.21337891 70.82958984 -5.21337891 70.82958984 -4.69189453 67.52148438 C-2.88986254 64.89169366 -0.65181738 62.78300713 1.65185547 60.59179688 C2.29554077 59.95660126 2.93922607 59.32140564 3.60241699 58.66696167 C5.6573085 56.64560022 7.73208324 54.64611513 9.80810547 52.64648438 C11.20660451 51.27808494 12.60375718 49.90830806 13.99951172 48.53710938 C17.420304 45.18239657 20.85907807 41.84715148 24.30810547 38.52148438 C20.63471468 34.11431022 16.84896346 29.98191692 12.69091797 26.01757812 C11.66154329 25.02028299 10.63291813 24.02221374 9.60498047 23.0234375 C8.01200904 21.48006137 6.41511844 19.94193878 4.80517578 18.41625977 C3.23229025 16.92211366 1.67929479 15.40951309 0.12841797 13.89257812 C-0.79696777 13.00497803 -1.72235352 12.11737793 -2.67578125 11.20288086 C-4.69189453 8.52148438 -4.69189453 8.52148438 -5.11816406 5.31079102 C-4.54495804 1.5600013 -3.72123763 0.72089276 0 0 Z " fill="#06B3D5" transform="translate(31.69189453125,41.478515625)"/>
<path d="M0 0 C2.32432398 1.82402106 2.92079353 2.54739158 3.4375 5.5 C3 8 3 8 1.28515625 9.6015625 C-1.90575636 11.55429193 -4.89808476 11.74397959 -8.5625 12.1796875 C-12.17510549 13.3954682 -13.0522137 14.68435492 -15 18 C-15.5780857 21.97905182 -15.50928833 25.92697557 -15.46875 29.94140625 C-15.47579956 31.1012352 -15.48284912 32.26106415 -15.4901123 33.45603943 C-15.51216204 37.15841749 -15.50913289 40.8600753 -15.5 44.5625 C-15.48798766 49.4391942 -15.50158506 54.31480739 -15.53125 59.19140625 C-15.51993042 60.31438614 -15.50861084 61.43736603 -15.49694824 62.59437561 C-15.5037561 63.63903488 -15.51056396 64.68369415 -15.51757812 65.76000977 C-15.51439575 66.6775856 -15.51121338 67.59516144 -15.50793457 68.5405426 C-16.15507008 71.77507628 -17.43105129 72.99593418 -20 75 C-23.39154295 74.83849795 -24.58296757 74.41703243 -27 72 C-27.25396729 69.15344238 -27.25396729 69.15344238 -27.25878906 65.47070312 C-27.2622937 64.80062729 -27.26579834 64.13055145 -27.26940918 63.44017029 C-27.27822732 61.22042548 -27.27237724 59.00099817 -27.265625 56.78125 C-27.26697163 55.24190204 -27.26891215 53.7025545 -27.27142334 52.16320801 C-27.27437471 48.93509883 -27.27007661 45.70710024 -27.26074219 42.47900391 C-27.24934757 38.33594206 -27.25590699 34.19313931 -27.26788712 30.05008698 C-27.27510542 26.87085 -27.27281794 23.69167472 -27.26763153 20.51243591 C-27.26629495 18.98457305 -27.26794306 17.45670464 -27.27259064 15.92884827 C-27.27765547 13.79551301 -27.26994669 11.66260055 -27.25878906 9.52929688 C-27.25719788 8.31399292 -27.25560669 7.09868896 -27.25396729 5.84655762 C-27 3 -27 3 -25 1 C-21.8476493 0.72588255 -19.76131515 0.54796913 -17 2.1875 C-16.34 2.455625 -15.68 2.72375 -15 3 C-14.113125 2.54625 -13.22625 2.0925 -12.3125 1.625 C-8.22109606 -0.38210382 -4.50025988 -0.87433621 0 0 Z " fill="#0CB4D6" transform="translate(215,42)"/>
<path d="M0 0 C4.18668215 3.32262222 6.71935685 6.80271705 8.9609375 11.64453125 C8.9609375 12.96453125 8.9609375 14.28453125 8.9609375 15.64453125 C-8.5290625 15.64453125 -26.0190625 15.64453125 -44.0390625 15.64453125 C-40.39145625 5.91758125 -36.4565142 0.08672545 -27.0390625 -4.35546875 C-17.56000987 -7.26002318 -8.14870846 -5.41686175 0 0 Z " fill="#FBFDFE" transform="translate(157.0390625,57.35546875)"/>
</svg>
